STARTFONT 2.1
COMMENT
COMMENT Converted from OpenType font "IosevkaSS14-Regular.ttc" by "otf2bdf 3.0".
COMMENT
FONT -FreeType-Iosevka SS14-Medium-R-Normal--17-120-100-100-P-79-ISO10646-1
SIZE 12 100 100
FONTBOUNDINGBOX 38 30 -17 -10
STARTPROPERTIES 19
FOUNDRY "FreeType"
FAMILY_NAME "Iosevka SS14"
WEIGHT_NAME "Medium"
SLANT "R"
SETWIDTH_NAME "Normal"
ADD_STYLE_NAME ""
PIXEL_SIZE 17
POINT_SIZE 120
RESOLUTION_X 100
RESOLUTION_Y 100
SPACING "P"
AVERAGE_WIDTH 80
CHARSET_REGISTRY "ISO10646"
CHARSET_ENCODING "1"
FONT_ASCENT 16
FONT_DESCENT 3
COPYRIGHT "Copyright 2015-2025, Renzhi Li (aka. Belleve Invis, belleve@typeof.net)."
_OTF_FONTFILE "IosevkaSS14-Regular.ttc"
_OTF_PSNAME "Iosevka-SS14"
ENDPROPERTIES
CHARS 4950
STARTCHAR 000D
ENCODING 13
SWIDTH 0 0
DWIDTH 0 0
BBX 0 0 0 0
BITMAP
ENDCHAR
STARTCHAR 0020
ENCODING 32
SWIDTH 540 0
DWIDTH 9 0
BBX 0 0 0 0
BITMAP
ENDCHAR
STARTCHAR 0021
ENCODING 33
SWIDTH 540 0
DWIDTH 9 0
BBX 2 13 3 0
BITMAP
40
40
40
40
40
40
40
40
00
00
00
C0
C0
ENDCHAR
STARTCHAR 0022
ENCODING 34
SWIDTH 540 0
DWIDTH 9 0
BBX 5 6 2 8
BITMAP
98
98
98
98
98
98
ENDCHAR
STARTCHAR 0023
ENCODING 35
SWIDTH 540 0
DWIDTH 9 0
BBX 8 13 0 0
BITMAP
13
12
12
12
7F
32
26
24
24
FF
64
4C
48
ENDCHAR
STARTCHAR 0024
ENCODING 36
SWIDTH 540 0
DWIDTH 9 0
BBX 7 16 1 -2
BITMAP
10
10
30
7C
D4
94
D0
70
18
14
96
94
FC
38
10
10
ENDCHAR
STARTCHAR 0025
ENCODING 37
SWIDTH 540 0
DWIDTH 9 0
BBX 8 13 0 0
BITMAP
73
D2
D6
D4
D4
78
08
17
15
25
25
65
47
ENDCHAR
STARTCHAR 0026
ENCODING 38
SWIDTH 540 0
DWIDTH 9 0
BBX 7 13 1 0
BITMAP
70
48
C8
C0
40
60
20
50
DA
8E
8C
CC
72
ENDCHAR
STARTCHAR 0027
ENCODING 39
SWIDTH 540 0
DWIDTH 9 0
BBX 1 6 4 8
BITMAP
80
80
80
80
80
80
ENDCHAR
STARTCHAR 0028
ENCODING 40
SWIDTH 540 0
DWIDTH 9 0
BBX 5 17 1 -3
BITMAP
18
30
60
40
C0
C0
C0
C0
C0
C0
C0
C0
C0
40
40
20
18
ENDCHAR
STARTCHAR 0029
ENCODING 41
SWIDTH 540 0
DWIDTH 9 0
BBX 5 17 2 -3
BITMAP
E0
30
10
18
08
08
08
08
08
08
08
08
08
08
18
30
E0
ENDCHAR
STARTCHAR 002A
ENCODING 42
SWIDTH 540 0
DWIDTH 9 0
BBX 7 7 1 2
BITMAP
10
10
D6
78
38
68
4C
ENDCHAR
STARTCHAR 002B
ENCODING 43
SWIDTH 540 0
DWIDTH 9 0
BBX 6 7 1 2
BITMAP
10
10
10
FC
10
10
10
ENDCHAR
STARTCHAR 002C
ENCODING 44
SWIDTH 540 0
DWIDTH 9 0
BBX 3 7 3 -4
BITMAP
C0
E0
E0
40
40
80
80
ENDCHAR
STARTCHAR 002D
ENCODING 45
SWIDTH 540 0
DWIDTH 9 0
BBX 6 1 1 5
BITMAP
FC
ENDCHAR
STARTCHAR 002E
ENCODING 46
SWIDTH 540 0
DWIDTH 9 0
BBX 3 3 3 0
BITMAP
C0
E0
C0
ENDCHAR
STARTCHAR 002F
ENCODING 47
SWIDTH 540 0
DWIDTH 9 0
BBX 7 17 1 -2
BITMAP
06
04
04
0C
08
08
18
10
10
30
20
20
60
40
40
C0
C0
ENDCHAR
STARTCHAR 0030
ENCODING 48
SWIDTH 540 0
DWIDTH 9 0
BBX 7 13 1 0
BITMAP
78
CC
84
86
86
86
B6
B6
86
86
84
CC
78
ENDCHAR
STARTCHAR 0031
ENCODING 49
SWIDTH 540 0
DWIDTH 9 0
BBX 6 13 1 0
BITMAP
30
70
D0
90
10
10
10
10
10
10
10
10
FC
ENDCHAR
STARTCHAR 0032
ENCODING 50
SWIDTH 540 0
DWIDTH 9 0
BBX 6 13 1 0
BITMAP
78
CC
84
04
04
04
08
18
30
20
60
C0
FC
ENDCHAR
STARTCHAR 0033
ENCODING 51
SWIDTH 540 0
DWIDTH 9 0
BBX 7 13 1 0
BITMAP
FC
04
08
10
30
38
0C
04
06
06
84
4C
78
ENDCHAR
STARTCHAR 0034
ENCODING 52
SWIDTH 540 0
DWIDTH 9 0
BBX 6 13 1 0
BITMAP
0C
08
18
10
30
24
64
44
C4
FC
04
04
04
ENDCHAR
STARTCHAR 0035
ENCODING 53
SWIDTH 540 0
DWIDTH 9 0
BBX 7 13 1 0
BITMAP
FC
C0
C0
C0
C0
F8
0C
04
06
06
C4
CC
78
ENDCHAR
STARTCHAR 0036
ENCODING 54
SWIDTH 540 0
DWIDTH 9 0
BBX 7 13 1 0
BITMAP
18
30
20
20
40
7C
CC
84
86
86
C4
4C
78
ENDCHAR
STARTCHAR 0037
ENCODING 55
SWIDTH 540 0
DWIDTH 9 0
BBX 6 13 1 0
BITMAP
FC
84
84
0C
08
08
18
18
10
10
30
20
60
ENDCHAR
STARTCHAR 0038
ENCODING 56
SWIDTH 540 0
DWIDTH 9 0
BBX 7 13 1 0
BITMAP
38
4C
C4
C4
C4
4C
38
4C
84
86
84
CC
78
ENDCHAR
STARTCHAR 0039
ENCODING 57
SWIDTH 540 0
DWIDTH 9 0
BBX 7 13 1 0
BITMAP
78
4C
C4
86
86
84
CC
7C
08
08
10
10
30
ENDCHAR
STARTCHAR 003A
ENCODING 58
SWIDTH 540 0
DWIDTH 9 0
BBX 3 9 3 0
BITMAP
C0
E0
C0
00
00
00
C0
E0
C0
ENDCHAR
STARTCHAR 003B
ENCODING 59
SWIDTH 540 0
DWIDTH 9 0
BBX 3 13 3 -4
BITMAP
C0
E0
C0
00
00
00
C0
E0
E0
40
40
80
80
ENDCHAR
STARTCHAR 003C
ENCODING 60
SWIDTH 540 0
DWIDTH 9 0
BBX 7 9 1 1
BITMAP
06
1C
30
C0
C0
60
18
0E
02
ENDCHAR
STARTCHAR 003D
ENCODING 61
SWIDTH 540 0
DWIDTH 9 0
BBX 6 4 1 4
BITMAP
FC
00
00
FC
ENDCHAR
STARTCHAR 003E
ENCODING 62
SWIDTH 540 0
DWIDTH 9 0
BBX 6 9 1 1
BITMAP
80
60
18
0C
04
18
30
C0
80
ENDCHAR
STARTCHAR 003F
ENCODING 63
SWIDTH 540 0
DWIDTH 9 0
BBX 6 13 2 0
BITMAP
F0
18
08
0C
08
08
30
20
20
00
00
60
60
ENDCHAR
STARTCHAR 0040
ENCODING 64
SWIDTH 540 0
DWIDTH 9 0
BBX 6 15 1 -2
BITMAP
78
4C
84
84
9C
94
94
94
94
94
94
9C
80
C0
7C
ENDCHAR
STARTCHAR 0041
ENCODING 65
SWIDTH 540 0
DWIDTH 9 0
BBX 7 13 1 0
BITMAP
30
30
38
38
28
68
48
4C
4C
FC
C4
84
86
ENDCHAR
STARTCHAR 0042
ENCODING 66
SWIDTH 540 0
DWIDTH 9 0
BBX 7 13 1 0
BITMAP
F8
8C
84
84
84
8C
F8
8C
86
86
86
8C
F8
ENDCHAR
STARTCHAR 0043
ENCODING 67
SWIDTH 540 0
DWIDTH 9 0
BBX 6 13 1 0
BITMAP
78
CC
84
80
80
80
80
80
80
80
84
CC
78
ENDCHAR
STARTCHAR 0044
ENCODING 68
SWIDTH 540 0
DWIDTH 9 0
BBX 7 13 1 0
BITMAP
F8
8C
84
86
86
86
86
86
86
86
84
8C
F8
ENDCHAR
STARTCHAR 0045
ENCODING 69
SWIDTH 540 0
DWIDTH 9 0
BBX 6 13 1 0
BITMAP
FC
C0
C0
C0
C0
C0
F8
C0
C0
C0
C0
C0
FC
ENDCHAR
STARTCHAR 0046
ENCODING 70
SWIDTH 540 0
DWIDTH 9 0
BBX 5 13 2 0
BITMAP
F8
80
80
80
80
80
F0
80
80
80
80
80
80
ENDCHAR
STARTCHAR 0047
ENCODING 71
SWIDTH 540 0
DWIDTH 9 0
BBX 6 13 1 0
BITMAP
78
CC
84
80
80
80
9C
84
84
84
84
CC
78
ENDCHAR
STARTCHAR 0048
ENCODING 72
SWIDTH 540 0
DWIDTH 9 0
BBX 6 13 1 0
BITMAP
84
84
84
84
84
84
FC
84
84
84
84
84
84
ENDCHAR
STARTCHAR 0049
ENCODING 73
SWIDTH 540 0
DWIDTH 9 0
BBX 6 13 1 0
BITMAP
FC
10
10
10
10
10
10
10
10
10
10
10
FC
ENDCHAR
STARTCHAR 004A
ENCODING 74
SWIDTH 540 0
DWIDTH 9 0
BBX 6 13 1 0
BITMAP
04
04
04
04
04
04
04
04
04
04
84
CC
78
ENDCHAR
STARTCHAR 004B
ENCODING 75
SWIDTH 540 0
DWIDTH 9 0
BBX 7 13 1 0
BITMAP
C6
CC
C8
C8
D8
D0
F0
D0
D0
C8
C8
CC
C6
ENDCHAR
STARTCHAR 004C
ENCODING 76
SWIDTH 540 0
DWIDTH 9 0
BBX 6 13 2 0
BITMAP
80
80
80
80
80
80
80
80
80
80
80
80
FC
ENDCHAR
STARTCHAR 004D
ENCODING 77
SWIDTH 540 0
DWIDTH 9 0
BBX 7 13 1 0
BITMAP
C6
C6
CE
CE
AE
AE
B6
B6
96
86
86
86
86
ENDCHAR
STARTCHAR 004E
ENCODING 78
SWIDTH 540 0
DWIDTH 9 0
BBX 6 13 1 0
BITMAP
C4
C4
E4
A4
A4
B4
94
94
94
8C
8C
8C
84
ENDCHAR
STARTCHAR 004F
ENCODING 79
SWIDTH 540 0
DWIDTH 9 0
BBX 7 13 1 0
BITMAP
78
CC
84
86
86
86
86
86
86
86
84
CC
78
ENDCHAR
STARTCHAR 0050
ENCODING 80
SWIDTH 540 0
DWIDTH 9 0
BBX 7 13 1 0
BITMAP
F8
CC
C6
C6
C6
C6
C4
F8
C0
C0
C0
C0
C0
ENDCHAR
STARTCHAR 0051
ENCODING 81
SWIDTH 540 0
DWIDTH 9 0
BBX 7 16 1 -3
BITMAP
78
CC
84
86
86
86
86
86
86
86
84
CC
78
18
18
08
ENDCHAR
STARTCHAR 0052
ENCODING 82
SWIDTH 540 0
DWIDTH 9 0
BBX 7 13 1 0
BITMAP
F8
8C
84
86
86
84
84
F8
90
88
8C
84
86
ENDCHAR
STARTCHAR 0053
ENCODING 83
SWIDTH 540 0
DWIDTH 9 0
BBX 7 13 1 0
BITMAP
78
4C
84
80
C0
60
38
0C
04
06
84
CC
78
ENDCHAR
STARTCHAR 0054
ENCODING 84
SWIDTH 540 0
DWIDTH 9 0
BBX 7 13 1 0
BITMAP
FE
10
10
10
10
10
10
10
10
10
10
10
10
ENDCHAR
STARTCHAR 0055
ENCODING 85
SWIDTH 540 0
DWIDTH 9 0
BBX 6 13 1 0
BITMAP
84
84
84
84
84
84
84
84
84
84
C4
4C
78
ENDCHAR
STARTCHAR 0056
ENCODING 86
SWIDTH 540 0
DWIDTH 9 0
BBX 7 13 1 0
BITMAP
86
84
C4
C4
44
4C
48
68
28
28
38
30
30
ENDCHAR
STARTCHAR 0057
ENCODING 87
SWIDTH 540 0
DWIDTH 9 0
BBX 7 13 1 0
BITMAP
92
92
B6
B6
B4
B4
AC
AC
6C
6C
4C
4C
4C
ENDCHAR
STARTCHAR 0058
ENCODING 88
SWIDTH 540 0
DWIDTH 9 0
BBX 7 13 1 0
BITMAP
86
C4
4C
68
38
30
10
30
38
68
4C
C4
86
ENDCHAR
STARTCHAR 0059
ENCODING 89
SWIDTH 540 0
DWIDTH 9 0
BBX 7 13 1 0
BITMAP
86
C4
4C
48
68
38
30
30
10
10
10
10
10
ENDCHAR
STARTCHAR 005A
ENCODING 90
SWIDTH 540 0
DWIDTH 9 0
BBX 6 13 1 0
BITMAP
FC
04
0C
08
18
10
30
30
20
60
40
C0
FC
ENDCHAR
STARTCHAR 005B
ENCODING 91
SWIDTH 540 0
DWIDTH 9 0
BBX 5 16 2 -2
BITMAP
F8
80
80
80
80
80
80
80
80
80
80
80
80
80
80
F8
ENDCHAR
STARTCHAR 005C
ENCODING 92
SWIDTH 540 0
DWIDTH 9 0
BBX 7 17 1 -2
BITMAP
80
C0
40
40
60
20
20
30
30
10
10
18
08
08
0C
04
06
ENDCHAR
STARTCHAR 005D
ENCODING 93
SWIDTH 540 0
DWIDTH 9 0
BBX 4 16 2 -2
BITMAP
F0
10
10
10
10
10
10
10
10
10
10
10
10
10
10
F0
ENDCHAR
STARTCHAR 005E
ENCODING 94
SWIDTH 540 0
DWIDTH 9 0
BBX 7 5 1 7
BITMAP
30
68
4C
C6
84
ENDCHAR
STARTCHAR 005F
ENCODING 95
SWIDTH 540 0
DWIDTH 9 0
BBX 6 1 1 -1
BITMAP
FC
ENDCHAR
STARTCHAR 0060
ENCODING 96
SWIDTH 540 0
DWIDTH 9 0
BBX 4 5 2 9
BITMAP
80
C0
40
20
30
ENDCHAR
STARTCHAR 0061
ENCODING 97
SWIDTH 540 0
DWIDTH 9 0
BBX 6 9 1 0
BITMAP
78
CC
84
04
7C
C4
84
CC
74
ENDCHAR
STARTCHAR 0062
ENCODING 98
SWIDTH 540 0
DWIDTH 9 0
BBX 7 13 1 0
BITMAP
80
80
80
80
B8
CC
C4
86
86
86
C4
CC
B8
ENDCHAR
STARTCHAR 0063
ENCODING 99
SWIDTH 540 0
DWIDTH 9 0
BBX 6 9 1 0
BITMAP
78
CC
84
80
80
80
84
CC
78
ENDCHAR
STARTCHAR 0064
ENCODING 100
SWIDTH 540 0
DWIDTH 9 0
BBX 6 13 1 0
BITMAP
04
04
04
04
74
CC
84
84
84
84
84
CC
74
ENDCHAR
STARTCHAR 0065
ENCODING 101
SWIDTH 540 0
DWIDTH 9 0
BBX 7 9 1 0
BITMAP
78
CC
84
86
FE
80
86
C4
78
ENDCHAR
STARTCHAR 0066
ENCODING 102
SWIDTH 540 0
DWIDTH 9 0
BBX 6 13 1 0
BITMAP
1C
10
30
30
30
FC
30
30
30
30
30
30
30
ENDCHAR
STARTCHAR 0067
ENCODING 103
SWIDTH 540 0
DWIDTH 9 0
BBX 6 13 1 -4
BITMAP
74
CC
84
84
84
84
84
CC
74
04
04
0C
78
ENDCHAR
STARTCHAR 0068
ENCODING 104
SWIDTH 540 0
DWIDTH 9 0
BBX 6 13 1 0
BITMAP
80
80
80
80
B8
CC
C4
84
84
84
84
84
84
ENDCHAR
STARTCHAR 0069
ENCODING 105
SWIDTH 540 0
DWIDTH 9 0
BBX 6 12 1 0
BITMAP
30
30
00
70
10
10
10
10
10
10
10
FC
ENDCHAR
STARTCHAR 006A
ENCODING 106
SWIDTH 540 0
DWIDTH 9 0
BBX 5 16 1 -4
BITMAP
18
18
00
78
08
08
08
08
08
08
08
08
08
08
18
F0
ENDCHAR
STARTCHAR 006B
ENCODING 107
SWIDTH 540 0
DWIDTH 9 0
BBX 7 13 1 0
BITMAP
C0
C0
C0
C0
C6
CC
C8
D0
F0
D0
D8
CC
C6
ENDCHAR
STARTCHAR 006C
ENCODING 108
SWIDTH 540 0
DWIDTH 9 0
BBX 6 13 1 0
BITMAP
F0
10
10
10
10
10
10
10
10
10
10
10
0C
ENDCHAR
STARTCHAR 006D
ENCODING 109
SWIDTH 540 0
DWIDTH 9 0
BBX 7 9 1 0
BITMAP
EC
96
96
96
96
96
96
96
96
ENDCHAR
STARTCHAR 006E
ENCODING 110
SWIDTH 540 0
DWIDTH 9 0
BBX 6 9 1 0
BITMAP
B8
CC
C4
84
84
84
84
84
84
ENDCHAR
STARTCHAR 006F
ENCODING 111
SWIDTH 540 0
DWIDTH 9 0
BBX 7 9 1 0
BITMAP
78
CC
84
86
86
86
84
CC
78
ENDCHAR
STARTCHAR 0070
ENCODING 112
SWIDTH 540 0
DWIDTH 9 0
BBX 7 13 1 -4
BITMAP
B8
CC
C4
86
86
86
C4
CC
B8
80
80
80
80
ENDCHAR
STARTCHAR 0071
ENCODING 113
SWIDTH 540 0
DWIDTH 9 0
BBX 6 13 1 -4
BITMAP
74
CC
84
84
84
84
84
CC
74
04
04
04
04
ENDCHAR
STARTCHAR 0072
ENCODING 114
SWIDTH 540 0
DWIDTH 9 0
BBX 6 9 2 0
BITMAP
B8
CC
CC
80
80
80
80
80
80
ENDCHAR
STARTCHAR 0073
ENCODING 115
SWIDTH 540 0
DWIDTH 9 0
BBX 6 9 1 0
BITMAP
78
CC
C0
40
38
0C
04
C4
78
ENDCHAR
STARTCHAR 0074
ENCODING 116
SWIDTH 540 0
DWIDTH 9 0
BBX 6 12 1 0
BITMAP
30
30
30
FC
30
30
30
30
30
30
10
1C
ENDCHAR
STARTCHAR 0075
ENCODING 117
SWIDTH 540 0
DWIDTH 9 0
BBX 6 9 1 0
BITMAP
84
84
84
84
84
84
C4
4C
78
ENDCHAR
STARTCHAR 0076
ENCODING 118
SWIDTH 540 0
DWIDTH 9 0
BBX 7 9 1 0
BITMAP
86
C4
44
4C
48
68
28
30
30
ENDCHAR
STARTCHAR 0077
ENCODING 119
SWIDTH 540 0
DWIDTH 9 0
BBX 7 9 1 0
BITMAP
92
B2
B6
B4
AC
EC
6C
4C
4C
ENDCHAR
STARTCHAR 0078
ENCODING 120
SWIDTH 540 0
DWIDTH 9 0
BBX 7 9 1 0
BITMAP
C6
4C
68
38
10
38
68
4C
C6
ENDCHAR
STARTCHAR 0079
ENCODING 121
SWIDTH 540 0
DWIDTH 9 0
BBX 7 13 1 -4
BITMAP
86
C4
44
4C
48
68
28
38
30
10
30
20
20
ENDCHAR
STARTCHAR 007A
ENCODING 122
SWIDTH 540 0
DWIDTH 9 0
BBX 6 9 1 0
BITMAP
FC
04
08
18
10
20
40
C0
FC
ENDCHAR
STARTCHAR 007B
ENCODING 123
SWIDTH 540 0
DWIDTH 9 0
BBX 6 17 1 -2
BITMAP
1C
30
20
20
30
10
10
30
E0
30
10
10
30
20
20
30
1C
ENDCHAR
STARTCHAR 007C
ENCODING 124
SWIDTH 540 0
DWIDTH 9 0
BBX 1 17 4 -2
BITMAP
80
80
80
80
80
80
80
80
80
80
80
80
80
80
80
80
80
ENDCHAR
STARTCHAR 007D
ENCODING 125
SWIDTH 540 0
DWIDTH 9 0
BBX 5 17 2 -2
BITMAP
C0
60
30
30
20
20
60
20
18
30
20
60
20
30
30
20
C0
ENDCHAR
STARTCHAR 007E
ENCODING 126
SWIDTH 540 0
DWIDTH 9 0
BBX 8 4 0 3
BITMAP
31
7B
4A
CE
ENDCHAR
STARTCHAR 00A0
ENCODING 160
SWIDTH 540 0
DWIDTH 9 0
BBX 0 0 0 0
BITMAP
ENDCHAR
STARTCHAR 00A1
ENCODING 161
SWIDTH 540 0
DWIDTH 9 0
BBX 2 13 3 -4
BITMAP
C0
C0
00
00
00
40
40
40
40
40
40
40
40
ENDCHAR
STARTCHAR 00A2
ENCODING 162
SWIDTH 540 0
DWIDTH 9 0
BBX 6 13 1 -2
BITMAP
10
10
78
D4
94
90
90
90
94
D4
78
10
10
ENDCHAR
STARTCHAR 00A3
ENCODING 163
SWIDTH 540 0
DWIDTH 9 0
BBX 6 13 1 0
BITMAP
38
6C
64
60
60
60
F0
60
60
60
40
C0
FC
ENDCHAR
STARTCHAR 00A4
ENCODING 164
SWIDTH 540 0
DWIDTH 9 0
BBX 7 8 1 2
BITMAP
84
FE
4C
C4
84
44
FC
82
ENDCHAR
STARTCHAR 00A5
ENCODING 165
SWIDTH 540 0
DWIDTH 9 0
BBX 7 13 1 0
BITMAP
86
C4
4C
48
68
38
30
FC
10
10
FC
10
10
ENDCHAR
STARTCHAR 00A6
ENCODING 166
SWIDTH 540 0
DWIDTH 9 0
BBX 1 16 4 -2
BITMAP
80
80
80
80
80
80
80
00
00
80
80
80
80
80
80
80
ENDCHAR
STARTCHAR 00A7
ENCODING 167
SWIDTH 540 0
DWIDTH 9 0
BBX 6 17 1 -2
BITMAP
78
4C
C4
80
C0
70
58
C4
84
C4
7C
38
0C
04
84
C4
78
ENDCHAR
STARTCHAR 00A8
ENCODING 168
SWIDTH 540 0
DWIDTH 9 0
BBX 6 2 1 10
BITMAP
EC
4C
ENDCHAR
STARTCHAR 00A9
ENCODING 169
SWIDTH 540 0
DWIDTH 9 0
BBX 7 13 1 -1
BITMAP
78
C4
82
B2
EA
C2
C2
C2
CA
BA
82
C4
7C
ENDCHAR
STARTCHAR 00AA
ENCODING 170
SWIDTH 540 0
DWIDTH 9 0
BBX 5 9 2 3
BITMAP
70
98
18
F8
98
F8
00
00
F8
ENDCHAR
STARTCHAR 00AB
ENCODING 171
SWIDTH 540 0
DWIDTH 9 0
BBX 7 9 1 1
BITMAP
36
64
48
D8
90
C8
6C
26
34
ENDCHAR
STARTCHAR 00AC
ENCODING 172
SWIDTH 540 0
DWIDTH 9 0
BBX 6 4 1 2
BITMAP
FC
04
04
04
ENDCHAR
STARTCHAR 00AD
ENCODING 173
SWIDTH 540 0
DWIDTH 9 0
BBX 6 1 1 5
BITMAP
FC
ENDCHAR
STARTCHAR 00AE
ENCODING 174
SWIDTH 540 0
DWIDTH 9 0
BBX 8 8 0 7
BITMAP
3C
63
D9
95
9D
99
57
3E
ENDCHAR
STARTCHAR 00AF
ENCODING 175
SWIDTH 540 0
DWIDTH 9 0
BBX 6 1 1 11
BITMAP
FC
ENDCHAR
STARTCHAR 00B0
ENCODING 176
SWIDTH 540 0
DWIDTH 9 0
BBX 4 4 2 9
BITMAP
70
D0
90
70
ENDCHAR
STARTCHAR 00B1
ENCODING 177
SWIDTH 540 0
DWIDTH 9 0
BBX 6 9 1 0
BITMAP
10
10
10
FC
10
10
10
00
FC
ENDCHAR
STARTCHAR 00B2
ENCODING 178
SWIDTH 540 0
DWIDTH 9 0
BBX 5 9 2 6
BITMAP
70
98
08
18
10
20
40
C0
F8
ENDCHAR
STARTCHAR 00B3
ENCODING 179
SWIDTH 540 0
DWIDTH 9 0
BBX 5 9 2 6
BITMAP
F8
10
20
70
18
08
08
98
70
ENDCHAR
STARTCHAR 00B4
ENCODING 180
SWIDTH 540 0
DWIDTH 9 0
BBX 4 5 3 9
BITMAP
20
30
60
C0
80
ENDCHAR
STARTCHAR 00B5
ENCODING 181
SWIDTH 540 0
DWIDTH 9 0
BBX 6 13 1 -4
BITMAP
84
84
84
84
84
84
C4
CC
F4
80
80
80
80
ENDCHAR
STARTCHAR 00B6
ENCODING 182
SWIDTH 540 0
DWIDTH 9 0
BBX 6 17 1 -4
BITMAP
7C
74
F4
F4
F4
F4
74
14
14
14
14
14
14
14
14
14
14
ENDCHAR
STARTCHAR 00B7
ENCODING 183
SWIDTH 540 0
DWIDTH 9 0
BBX 3 3 3 4
BITMAP
C0
E0
C0
ENDCHAR
STARTCHAR 00B8
ENCODING 184
SWIDTH 540 0
DWIDTH 9 0
BBX 3 3 3 -4
BITMAP
40
20
E0
ENDCHAR
STARTCHAR 00B9
ENCODING 185
SWIDTH 540 0
DWIDTH 9 0
BBX 4 9 2 6
BITMAP
60
E0
A0
20
20
20
20
20
F0
ENDCHAR
STARTCHAR 00BA
ENCODING 186
SWIDTH 540 0
DWIDTH 9 0
BBX 5 9 2 3
BITMAP
70
98
88
88
98
70
00
00
F8
ENDCHAR
STARTCHAR 00BB
ENCODING 187
SWIDTH 540 0
DWIDTH 9 0
BBX 7 9 1 1
BITMAP
90
48
6C
24
36
64
48
98
90
ENDCHAR
STARTCHAR 00BC
ENCODING 188
SWIDTH 540 0
DWIDTH 9 0
BBX 6 18 1 -3
BITMAP
10
30
50
10
10
10
10
38
00
FC
00
08
10
20
28
78
08
08
ENDCHAR
STARTCHAR 00BD
ENCODING 189
SWIDTH 540 0
DWIDTH 9 0
BBX 6 17 1 -3
BITMAP
30
50
10
10
10
10
38
00
FC
00
38
48
08
08
10
20
78
ENDCHAR
STARTCHAR 00BE
ENCODING 190
SWIDTH 540 0
DWIDTH 9 0
BBX 6 17 1 -3
BITMAP
78
18
30
38
08
48
38
00
FC
00
08
10
20
68
78
08
08
ENDCHAR
STARTCHAR 00BF
ENCODING 191
SWIDTH 540 0
DWIDTH 9 0
BBX 6 13 1 -4
BITMAP
30
30
00
00
10
10
70
C0
80
80
80
C0
7C
ENDCHAR
STARTCHAR 00C0
ENCODING 192
SWIDTH 540 0
DWIDTH 9 0
BBX 7 17 1 0
BITMAP
20
60
10
00
30
30
38
38
28
68
48
4C
4C
FC
C4
84
86
ENDCHAR
STARTCHAR 00C1
ENCODING 193
SWIDTH 540 0
DWIDTH 9 0
BBX 7 17 1 0
BITMAP
08
18
30
00
30
30
38
38
28
68
48
4C
4C
FC
C4
84
86
ENDCHAR
STARTCHAR 00C2
ENCODING 194
SWIDTH 540 0
DWIDTH 9 0
BBX 7 17 1 0
BITMAP
30
38
4C
00
30
30
38
38
28
68
48
4C
4C
FC
C4
84
86
ENDCHAR
STARTCHAR 00C3
ENCODING 195
SWIDTH 540 0
DWIDTH 9 0
BBX 7 16 1 0
BITMAP
64
DC
00
30
30
38
38
28
68
48
4C
4C
FC
C4
84
86
ENDCHAR
STARTCHAR 00C4
ENCODING 196
SWIDTH 540 0
DWIDTH 9 0
BBX 7 16 1 0
BITMAP
4C
EC
00
30
30
38
38
28
68
48
4C
4C
FC
C4
84
86
ENDCHAR
STARTCHAR 00C5
ENCODING 197
SWIDTH 540 0
DWIDTH 9 0
BBX 7 17 1 0
BITMAP
30
38
38
10
30
30
38
38
28
68
48
4C
4C
FC
C4
84
86
ENDCHAR
STARTCHAR 00C6
ENCODING 198
SWIDTH 540 0
DWIDTH 9 0
BBX 7 13 1 0
BITMAP
3E
30
30
30
70
50
5C
50
50
F0
90
90
9E
ENDCHAR
STARTCHAR 00C7
ENCODING 199
SWIDTH 540 0
DWIDTH 9 0
BBX 6 17 1 -4
BITMAP
78
CC
84
80
80
80
80
80
80
80
84
CC
78
10
18
08
38
ENDCHAR
STARTCHAR 00C8
ENCODING 200
SWIDTH 540 0
DWIDTH 9 0
BBX 6 17 1 0
BITMAP
20
60
10
00
FC
C0
C0
C0
C0
C0
F8
C0
C0
C0
C0
C0
FC
ENDCHAR
STARTCHAR 00C9
ENCODING 201
SWIDTH 540 0
DWIDTH 9 0
BBX 6 17 1 0
BITMAP
08
18
30
00
FC
C0
C0
C0
C0
C0
F8
C0
C0
C0
C0
C0
FC
ENDCHAR
STARTCHAR 00CA
ENCODING 202
SWIDTH 540 0
DWIDTH 9 0
BBX 6 17 1 0
BITMAP
30
38
4C
00
FC
C0
C0
C0
C0
C0
F8
C0
C0
C0
C0
C0
FC
ENDCHAR
STARTCHAR 00CB
ENCODING 203
SWIDTH 540 0
DWIDTH 9 0
BBX 6 16 1 0
BITMAP
4C
EC
00
FC
C0
C0
C0
C0
C0
F8
C0
C0
C0
C0
C0
FC
ENDCHAR
STARTCHAR 00CC
ENCODING 204
SWIDTH 540 0
DWIDTH 9 0
BBX 6 17 1 0
BITMAP
20
60
10
00
FC
10
10
10
10
10
10
10
10
10
10
10
FC
ENDCHAR
STARTCHAR 00CD
ENCODING 205
SWIDTH 540 0
DWIDTH 9 0
BBX 6 17 1 0
BITMAP
08
18
30
00
FC
10
10
10
10
10
10
10
10
10
10
10
FC
ENDCHAR
STARTCHAR 00CE
ENCODING 206
SWIDTH 540 0
DWIDTH 9 0
BBX 6 17 1 0
BITMAP
30
38
4C
00
FC
10
10
10
10
10
10
10
10
10
10
10
FC
ENDCHAR
STARTCHAR 00CF
ENCODING 207
SWIDTH 540 0
DWIDTH 9 0
BBX 6 16 1 0
BITMAP
4C
EC
00
FC
10
10
10
10
10
10
10
10
10
10
10
FC
ENDCHAR
STARTCHAR 00D0
ENCODING 208
SWIDTH 540 0
DWIDTH 9 0
BBX 8 13 0 0
BITMAP
7C
46
42
43
43
43
F3
43
43
43
42
46
7C
ENDCHAR
STARTCHAR 00D1
ENCODING 209
SWIDTH 540 0
DWIDTH 9 0
BBX 6 16 1 0
BITMAP
64
DC
00
C4
C4
E4
A4
A4
B4
94
94
94
8C
8C
8C
84
ENDCHAR
STARTCHAR 00D2
ENCODING 210
SWIDTH 540 0
DWIDTH 9 0
BBX 7 17 1 0
BITMAP
20
60
10
00
78
CC
84
86
86
86
86
86
86
86
84
CC
78
ENDCHAR
STARTCHAR 00D3
ENCODING 211
SWIDTH 540 0
DWIDTH 9 0
BBX 7 17 1 0
BITMAP
08
18
30
00
78
CC
84
86
86
86
86
86
86
86
84
CC
78
ENDCHAR
STARTCHAR 00D4
ENCODING 212
SWIDTH 540 0
DWIDTH 9 0
BBX 7 17 1 0
BITMAP
30
38
4C
00
78
CC
84
86
86
86
86
86
86
86
84
CC
78
ENDCHAR
STARTCHAR 00D5
ENCODING 213
SWIDTH 540 0
DWIDTH 9 0
BBX 7 16 1 0
BITMAP
64
DC
00
78
CC
84
86
86
86
86
86
86
86
84
CC
78
ENDCHAR
STARTCHAR 00D6
ENCODING 214
SWIDTH 540 0
DWIDTH 9 0
BBX 7 16 1 0
BITMAP
4C
EC
00
78
CC
84
86
86
86
86
86
86
86
84
CC
78
ENDCHAR
STARTCHAR 00D7
ENCODING 215
SWIDTH 540 0
DWIDTH 9 0
BBX 8 8 0 2
BITMAP
41
C3
26
1C
18
34
62
C1
ENDCHAR
STARTCHAR 00D8
ENCODING 216
SWIDTH 540 0
DWIDTH 9 0
BBX 7 15 1 -1
BITMAP
06
7C
CC
8C
8E
9E
96
96
A6
A6
E6
C4
CC
F8
80
ENDCHAR
STARTCHAR 00D9
ENCODING 217
SWIDTH 540 0
DWIDTH 9 0
BBX 6 17 1 0
BITMAP
20
60
10
00
84
84
84
84
84
84
84
84
84
84
C4
4C
78
ENDCHAR
STARTCHAR 00DA
ENCODING 218
SWIDTH 540 0
DWIDTH 9 0
BBX 6 17 1 0
BITMAP
08
18
30
00
84
84
84
84
84
84
84
84
84
84
C4
4C
78
ENDCHAR
STARTCHAR 00DB
ENCODING 219
SWIDTH 540 0
DWIDTH 9 0
BBX 6 17 1 0
BITMAP
30
38
4C
00
84
84
84
84
84
84
84
84
84
84
C4
4C
78
ENDCHAR
STARTCHAR 00DC
ENCODING 220
SWIDTH 540 0
DWIDTH 9 0
BBX 6 16 1 0
BITMAP
4C
EC
00
84
84
84
84
84
84
84
84
84
84
C4
4C
78
ENDCHAR
STARTCHAR 00DD
ENCODING 221
SWIDTH 540 0
DWIDTH 9 0
BBX 7 17 1 0
BITMAP
08
18
30
00
86
C4
4C
48
68
38
30
30
10
10
10
10
10
ENDCHAR
STARTCHAR 00DE
ENCODING 222
SWIDTH 540 0
DWIDTH 9 0
BBX 7 13 1 0
BITMAP
C0
C0
C0
F8
CC
C4
C6
C4
CC
F8
C0
C0
C0
ENDCHAR
STARTCHAR 00DF
ENCODING 223
SWIDTH 540 0
DWIDTH 9 0
BBX 7 13 1 0
BITMAP
78
4C
C4
84
84
8C
98
8C
84
86
84
8C
B8
ENDCHAR
STARTCHAR 00E0
ENCODING 224
SWIDTH 540 0
DWIDTH 9 0
BBX 6 13 1 0
BITMAP
60
20
10
00
78
CC
84
04
7C
C4
84
CC
74
ENDCHAR
STARTCHAR 00E1
ENCODING 225
SWIDTH 540 0
DWIDTH 9 0
BBX 6 13 1 0
BITMAP
08
18
30
00
78
CC
84
04
7C
C4
84
CC
74
ENDCHAR
STARTCHAR 00E2
ENCODING 226
SWIDTH 540 0
DWIDTH 9 0
BBX 6 13 1 0
BITMAP
30
68
4C
00
78
CC
84
04
7C
C4
84
CC
74
ENDCHAR
STARTCHAR 00E3
ENCODING 227
SWIDTH 540 0
DWIDTH 9 0
BBX 6 13 1 0
BITMAP
20
74
98
00
78
CC
84
04
7C
C4
84
CC
74
ENDCHAR
STARTCHAR 00E4
ENCODING 228
SWIDTH 540 0
DWIDTH 9 0
BBX 6 12 1 0
BITMAP
EC
4C
00
78
CC
84
04
7C
C4
84
CC
74
ENDCHAR
STARTCHAR 00E5
ENCODING 229
SWIDTH 540 0
DWIDTH 9 0
BBX 6 13 1 0
BITMAP
30
28
38
00
78
CC
84
04
7C
C4
84
CC
74
ENDCHAR
STARTCHAR 00E6
ENCODING 230
SWIDTH 540 0
DWIDTH 9 0
BBX 7 9 1 0
BITMAP
7C
B6
92
12
7E
90
92
B6
FC
ENDCHAR
STARTCHAR 00E7
ENCODING 231
SWIDTH 540 0
DWIDTH 9 0
BBX 6 13 1 -4
BITMAP
78
CC
84
80
80
80
84
CC
78
10
18
08
38
ENDCHAR
STARTCHAR 00E8
ENCODING 232
SWIDTH 540 0
DWIDTH 9 0
BBX 7 13 1 0
BITMAP
60
20
10
00
78
CC
84
86
FE
80
86
C4
78
ENDCHAR
STARTCHAR 00E9
ENCODING 233
SWIDTH 540 0
DWIDTH 9 0
BBX 7 13 1 0
BITMAP
08
18
30
00
78
CC
84
86
FE
80
86
C4
78
ENDCHAR
STARTCHAR 00EA
ENCODING 234
SWIDTH 540 0
DWIDTH 9 0
BBX 7 13 1 0
BITMAP
30
68
4C
00
78
CC
84
86
FE
80
86
C4
78
ENDCHAR
STARTCHAR 00EB
ENCODING 235
SWIDTH 540 0
DWIDTH 9 0
BBX 7 12 1 0
BITMAP
EC
4C
00
78
CC
84
86
FE
80
86
C4
78
ENDCHAR
STARTCHAR 00EC
ENCODING 236
SWIDTH 540 0
DWIDTH 9 0
BBX 6 13 1 0
BITMAP
60
30
10
00
70
10
10
10
10
10
10
10
FC
ENDCHAR
STARTCHAR 00ED
ENCODING 237
SWIDTH 540 0
DWIDTH 9 0
BBX 6 13 1 0
BITMAP
08
18
30
00
70
10
10
10
10
10
10
10
FC
ENDCHAR
STARTCHAR 00EE
ENCODING 238
SWIDTH 540 0
DWIDTH 9 0
BBX 6 13 1 0
BITMAP
30
28
44
00
70
10
10
10
10
10
10
10
FC
ENDCHAR
STARTCHAR 00EF
ENCODING 239
SWIDTH 540 0
DWIDTH 9 0
BBX 6 12 1 0
BITMAP
EC
4C
00
70
10
10
10
10
10
10
10
FC
ENDCHAR
STARTCHAR 00F0
ENCODING 240
SWIDTH 540 0
DWIDTH 9 0
BBX 7 13 1 0
BITMAP
30
10
1C
78
0C
74
CC
86
86
86
84
4C
78
ENDCHAR
STARTCHAR 00F1
ENCODING 241
SWIDTH 540 0
DWIDTH 9 0
BBX 6 13 1 0
BITMAP
20
74
98
00
B8
CC
C4
84
84
84
84
84
84
ENDCHAR
STARTCHAR 00F2
ENCODING 242
SWIDTH 540 0
DWIDTH 9 0
BBX 7 13 1 0
BITMAP
60
20
10
00
78
CC
84
86
86
86
84
CC
78
ENDCHAR
STARTCHAR 00F3
ENCODING 243
SWIDTH 540 0
DWIDTH 9 0
BBX 7 13 1 0
BITMAP
08
18
30
00
78
CC
84
86
86
86
84
CC
78
ENDCHAR
STARTCHAR 00F4
ENCODING 244
SWIDTH 540 0
DWIDTH 9 0
BBX 7 13 1 0
BITMAP
30
68
4C
00
78
CC
84
86
86
86
84
CC
78
ENDCHAR
STARTCHAR 00F5
ENCODING 245
SWIDTH 540 0
DWIDTH 9 0
BBX 7 13 1 0
BITMAP
20
74
98
00
78
CC
84
86
86
86
84
CC
78
ENDCHAR
STARTCHAR 00F6
ENCODING 246
SWIDTH 540 0
DWIDTH 9 0
BBX 7 12 1 0
BITMAP
EC
4C
00
78
CC
84
86
86
86
84
CC
78
ENDCHAR
STARTCHAR 00F7
ENCODING 247
SWIDTH 540 0
DWIDTH 9 0
BBX 6 8 1 1
BITMAP
30
30
00
FC
00
00
30
30
ENDCHAR
STARTCHAR 00F8
ENCODING 248
SWIDTH 540 0
DWIDTH 9 0
BBX 7 11 1 -1
BITMAP
06
7C
CC
8C
9E
96
A6
A4
CC
F8
80
ENDCHAR
STARTCHAR 00F9
ENCODING 249
SWIDTH 540 0
DWIDTH 9 0
BBX 6 13 1 0
BITMAP
60
20
10
00
84
84
84
84
84
84
C4
4C
78
ENDCHAR
STARTCHAR 00FA
ENCODING 250
SWIDTH 540 0
DWIDTH 9 0
BBX 6 13 1 0
BITMAP
08
18
30
00
84
84
84
84
84
84
C4
4C
78
ENDCHAR
STARTCHAR 00FB
ENCODING 251
SWIDTH 540 0
DWIDTH 9 0
BBX 6 13 1 0
BITMAP
30
68
4C
00
84
84
84
84
84
84
C4
4C
78
ENDCHAR
STARTCHAR 00FC
ENCODING 252
SWIDTH 540 0
DWIDTH 9 0
BBX 6 12 1 0
BITMAP
EC
4C
00
84
84
84
84
84
84
C4
4C
78
ENDCHAR
STARTCHAR 00FD
ENCODING 253
SWIDTH 540 0
DWIDTH 9 0
BBX 7 17 1 -4
BITMAP
08
18
30
00
86
C4
44
4C
48
68
28
38
30
10
30
20
20
ENDCHAR
STARTCHAR 00FE
ENCODING 254
SWIDTH 540 0
DWIDTH 9 0
BBX 7 17 1 -4
BITMAP
80
80
80
80
B8
CC
C4
86
86
86
C4
CC
B8
80
80
80
80
ENDCHAR
STARTCHAR 00FF
ENCODING 255
SWIDTH 540 0
DWIDTH 9 0
BBX 7 16 1 -4
BITMAP
EC
4C
00
86
C4
44
4C
48
68
28
38
30
10
30
20
20
ENDCHAR
STARTCHAR 0100
ENCODING 256
SWIDTH 540 0
DWIDTH 9 0
BBX 7 16 1 0
BITMAP
7C
7C
00
30
30
38
38
28
68
48
4C
4C
FC
C4
84
86
ENDCHAR
STARTCHAR 0101
ENCODING 257
SWIDTH 540 0
DWIDTH 9 0
BBX 6 12 1 0
BITMAP
7C
00
00
78
CC
84
04
7C
C4
84
CC
74
ENDCHAR
STARTCHAR 0102
ENCODING 258
SWIDTH 540 0
DWIDTH 9 0
BBX 7 16 1 0
BITMAP
44
7C
10
30
30
38
38
28
68
48
4C
4C
FC
C4
84
86
ENDCHAR
STARTCHAR 0103
ENCODING 259
SWIDTH 540 0
DWIDTH 9 0
BBX 6 12 1 0
BITMAP
4C
78
00
78
CC
84
04
7C
C4
84
CC
74
ENDCHAR
STARTCHAR 0104
ENCODING 260
SWIDTH 540 0
DWIDTH 9 0
BBX 7 17 1 -4
BITMAP
30
30
38
38
28
68
48
4C
4C
FC
C4
84
86
04
08
08
06
ENDCHAR
STARTCHAR 0105
ENCODING 261
SWIDTH 540 0
DWIDTH 9 0
BBX 7 13 1 -4
BITMAP
78
CC
84
04
7C
C4
84
CC
74
04
08
08
06
ENDCHAR
STARTCHAR 0106
ENCODING 262
SWIDTH 540 0
DWIDTH 9 0
BBX 6 17 1 0
BITMAP
08
18
30
00
78
CC
84
80
80
80
80
80
80
80
84
CC
78
ENDCHAR
STARTCHAR 0107
ENCODING 263
SWIDTH 540 0
DWIDTH 9 0
BBX 6 13 1 0
BITMAP
08
18
30
00
78
CC
84
80
80
80
84
CC
78
ENDCHAR
STARTCHAR 0108
ENCODING 264
SWIDTH 540 0
DWIDTH 9 0
BBX 6 17 1 0
BITMAP
30
38
4C
00
78
CC
84
80
80
80
80
80
80
80
84
CC
78
ENDCHAR
STARTCHAR 0109
ENCODING 265
SWIDTH 540 0
DWIDTH 9 0
BBX 6 13 1 0
BITMAP
30
68
4C
00
78
CC
84
80
80
80
84
CC
78
ENDCHAR
STARTCHAR 010A
ENCODING 266
SWIDTH 540 0
DWIDTH 9 0
BBX 6 16 1 0
BITMAP
30
30
00
78
CC
84
80
80
80
80
80
80
80
84
CC
78
ENDCHAR
STARTCHAR 010B
ENCODING 267
SWIDTH 540 0
DWIDTH 9 0
BBX 6 12 1 0
BITMAP
30
30
00
78
CC
84
80
80
80
84
CC
78
ENDCHAR
STARTCHAR 010C
ENCODING 268
SWIDTH 540 0
DWIDTH 9 0
BBX 6 17 1 0
BITMAP
48
6C
38
00
78
CC
84
80
80
80
80
80
80
80
84
CC
78
ENDCHAR
STARTCHAR 010D
ENCODING 269
SWIDTH 540 0
DWIDTH 9 0
BBX 6 13 1 0
BITMAP
4C
68
30
00
78
CC
84
80
80
80
84
CC
78
ENDCHAR
STARTCHAR 010E
ENCODING 270
SWIDTH 540 0
DWIDTH 9 0
BBX 7 17 1 0
BITMAP
48
6C
38
00
F8
8C
84
86
86
86
86
86
86
86
84
8C
F8
ENDCHAR
STARTCHAR 010F
ENCODING 271
SWIDTH 540 0
DWIDTH 9 0
BBX 8 13 1 0
BITMAP
07
05
07
04
74
CC
84
84
84
84
84
CC
74
ENDCHAR
STARTCHAR 0110
ENCODING 272
SWIDTH 540 0
DWIDTH 9 0
BBX 8 13 0 0
BITMAP
7C
46
42
43
43
43
F3
43
43
43
42
46
7C
ENDCHAR
STARTCHAR 0111
ENCODING 273
SWIDTH 540 0
DWIDTH 9 0
BBX 7 13 1 0
BITMAP
04
04
1E
04
74
CC
84
84
84
84
84
CC
74
ENDCHAR
STARTCHAR 0112
ENCODING 274
SWIDTH 540 0
DWIDTH 9 0
BBX 6 16 1 0
BITMAP
7C
7C
00
FC
C0
C0
C0
C0
C0
F8
C0
C0
C0
C0
C0
FC
ENDCHAR
STARTCHAR 0113
ENCODING 275
SWIDTH 540 0
DWIDTH 9 0
BBX 7 12 1 0
BITMAP
7C
00
00
78
CC
84
86
FE
80
86
C4
78
ENDCHAR
STARTCHAR 0114
ENCODING 276
SWIDTH 540 0
DWIDTH 9 0
BBX 6 16 1 0
BITMAP
44
7C
10
FC
C0
C0
C0
C0
C0
F8
C0
C0
C0
C0
C0
FC
ENDCHAR
STARTCHAR 0115
ENCODING 277
SWIDTH 540 0
DWIDTH 9 0
BBX 7 12 1 0
BITMAP
4C
78
00
78
CC
84
86
FE
80
86
C4
78
ENDCHAR
STARTCHAR 0116
ENCODING 278
SWIDTH 540 0
DWIDTH 9 0
BBX 6 16 1 0
BITMAP
30
30
00
FC
C0
C0
C0
C0
C0
F8
C0
C0
C0
C0
C0
FC
ENDCHAR
STARTCHAR 0117
ENCODING 279
SWIDTH 540 0
DWIDTH 9 0
BBX 7 12 1 0
BITMAP
30
30
00
78
CC
84
86
FE
80
86
C4
78
ENDCHAR
STARTCHAR 0118
ENCODING 280
SWIDTH 540 0
DWIDTH 9 0
BBX 7 17 1 -4
BITMAP
FC
C0
C0
C0
C0
C0
F8
C0
C0
C0
C0
C0
FC
04
08
08
06
ENDCHAR
STARTCHAR 0119
ENCODING 281
SWIDTH 540 0
DWIDTH 9 0
BBX 7 13 1 -4
BITMAP
78
CC
84
86
FE
80
86
C4
7C
04
08
08
0E
ENDCHAR
STARTCHAR 011A
ENCODING 282
SWIDTH 540 0
DWIDTH 9 0
BBX 6 17 1 0
BITMAP
48
6C
38
00
FC
C0
C0
C0
C0
C0
F8
C0
C0
C0
C0
C0
FC
ENDCHAR
STARTCHAR 011B
ENCODING 283
SWIDTH 540 0
DWIDTH 9 0
BBX 7 13 1 0
BITMAP
4C
68
30
00
78
CC
84
86
FE
80
86
C4
78
ENDCHAR
STARTCHAR 011C
ENCODING 284
SWIDTH 540 0
DWIDTH 9 0
BBX 6 17 1 0
BITMAP
30
38
4C
00
78
CC
84
80
80
80
9C
84
84
84
84
CC
78
ENDCHAR
STARTCHAR 011D
ENCODING 285
SWIDTH 540 0
DWIDTH 9 0
BBX 6 17 1 -4
BITMAP
30
68
4C
00
74
CC
84
84
84
84
84
CC
74
04
04
0C
78
ENDCHAR
STARTCHAR 011E
ENCODING 286
SWIDTH 540 0
DWIDTH 9 0
BBX 6 16 1 0
BITMAP
44
7C
10
78
CC
84
80
80
80
9C
84
84
84
84
CC
78
ENDCHAR
STARTCHAR 011F
ENCODING 287
SWIDTH 540 0
DWIDTH 9 0
BBX 6 16 1 -4
BITMAP
4C
78
00
74
CC
84
84
84
84
84
CC
74
04
04
0C
78
ENDCHAR
STARTCHAR 0120
ENCODING 288
SWIDTH 540 0
DWIDTH 9 0
BBX 6 16 1 0
BITMAP
30
30
00
78
CC
84
80
80
80
9C
84
84
84
84
CC
78
ENDCHAR
STARTCHAR 0121
ENCODING 289
SWIDTH 540 0
DWIDTH 9 0
BBX 6 16 1 -4
BITMAP
30
30
00
74
CC
84
84
84
84
84
CC
74
04
04
0C
78
ENDCHAR
STARTCHAR 0122
ENCODING 290
SWIDTH 540 0
DWIDTH 9 0
BBX 6 17 1 -4
BITMAP
78
CC
84
80
80
80
9C
84
84
84
84
CC
78
00
30
10
30
ENDCHAR
STARTCHAR 0123
ENCODING 291
SWIDTH 540 0
DWIDTH 9 0
BBX 6 17 1 -4
BITMAP
10
30
30
00
74
CC
84
84
84
84
84
CC
74
04
04
0C
78
ENDCHAR
STARTCHAR 0124
ENCODING 292
SWIDTH 540 0
DWIDTH 9 0
BBX 6 17 1 0
BITMAP
30
38
4C
00
84
84
84
84
84
84
FC
84
84
84
84
84
84
ENDCHAR
STARTCHAR 0125
ENCODING 293
SWIDTH 540 0
DWIDTH 9 0
BBX 8 17 -1 0
BITMAP
30
70
C8
00
20
20
20
20
2E
33
31
21
21
21
21
21
21
ENDCHAR
STARTCHAR 0126
ENCODING 294
SWIDTH 540 0
DWIDTH 9 0
BBX 8 13 0 0
BITMAP
42
42
42
FF
42
42
7E
42
42
42
42
42
42
ENDCHAR
STARTCHAR 0127
ENCODING 295
SWIDTH 540 0
DWIDTH 9 0
BBX 7 13 0 0
BITMAP
40
40
F0
40
5C
66
62
42
42
42
42
42
42
ENDCHAR
STARTCHAR 0128
ENCODING 296
SWIDTH 540 0
DWIDTH 9 0
BBX 6 16 1 0
BITMAP
64
DC
00
FC
10
10
10
10
10
10
10
10
10
10
10
FC
ENDCHAR
STARTCHAR 0129
ENCODING 297
SWIDTH 540 0
DWIDTH 9 0
BBX 6 13 1 0
BITMAP
20
74
98
00
70
10
10
10
10
10
10
10
FC
ENDCHAR
STARTCHAR 012A
ENCODING 298
SWIDTH 540 0
DWIDTH 9 0
BBX 6 16 1 0
BITMAP
7C
7C
00
FC
10
10
10
10
10
10
10
10
10
10
10
FC
ENDCHAR
STARTCHAR 012B
ENCODING 299
SWIDTH 540 0
DWIDTH 9 0
BBX 6 12 1 0
BITMAP
7C
00
00
70
10
10
10
10
10
10
10
FC
ENDCHAR
STARTCHAR 012C
ENCODING 300
SWIDTH 540 0
DWIDTH 9 0
BBX 6 16 1 0
BITMAP
44
7C
10
FC
10
10
10
10
10
10
10
10
10
10
10
FC
ENDCHAR
STARTCHAR 012D
ENCODING 301
SWIDTH 540 0
DWIDTH 9 0
BBX 6 12 1 0
BITMAP
4C
78
00
70
10
10
10
10
10
10
10
FC
ENDCHAR
STARTCHAR 012E
ENCODING 302
SWIDTH 540 0
DWIDTH 9 0
BBX 6 17 1 -4
BITMAP
FC
10
10
10
10
10
10
10
10
10
10
10
FC
04
08
08
0C
ENDCHAR
STARTCHAR 012F
ENCODING 303
SWIDTH 540 0
DWIDTH 9 0
BBX 6 16 1 -4
BITMAP
30
30
00
70
10
10
10
10
10
10
10
FC
04
08
08
0C
ENDCHAR
STARTCHAR 0130
ENCODING 304
SWIDTH 540 0
DWIDTH 9 0
BBX 6 16 1 0
BITMAP
30
30
00
FC
10
10
10
10
10
10
10
10
10
10
10
FC
ENDCHAR
STARTCHAR 0131
ENCODING 305
SWIDTH 540 0
DWIDTH 9 0
BBX 6 9 1 0
BITMAP
70
10
10
10
10
10
10
10
FC
ENDCHAR
STARTCHAR 0132
ENCODING 306
SWIDTH 540 0
DWIDTH 9 0
BBX 8 13 0 0
BITMAP
F3
23
23
23
23
23
23
23
23
23
2B
2E
F6
ENDCHAR
STARTCHAR 0133
ENCODING 307
SWIDTH 540 0
DWIDTH 9 0
BBX 8 17 0 -4
BITMAP
63
63
00
00
E7
21
21
21
21
21
21
21
F1
01
01
03
0E
ENDCHAR
STARTCHAR 0134
ENCODING 308
SWIDTH 540 0
DWIDTH 9 0
BBX 7 17 1 0
BITMAP
0C
1E
12
00
04
04
04
04
04
04
04
04
04
04
84
CC
78
ENDCHAR
STARTCHAR 0135
ENCODING 309
SWIDTH 540 0
DWIDTH 9 0
BBX 7 17 1 -4
BITMAP
18
34
26
00
78
08
08
08
08
08
08
08
08
08
08
18
F0
ENDCHAR
STARTCHAR 0136
ENCODING 310
SWIDTH 540 0
DWIDTH 9 0
BBX 7 17 1 -4
BITMAP
C6
CC
C8
C8
D8
D0
F0
D0
D0
C8
C8
CC
C6
00
30
10
30
ENDCHAR
STARTCHAR 0137
ENCODING 311
SWIDTH 540 0
DWIDTH 9 0
BBX 7 17 1 -4
BITMAP
C0
C0
C0
C0
C6
CC
C8
D0
F0
D0
D8
CC
C6
00
30
10
30
ENDCHAR
STARTCHAR 0138
ENCODING 312
SWIDTH 540 0
DWIDTH 9 0
BBX 7 9 1 0
BITMAP
C6
CC
C8
D0
F0
D0
D8
CC
C6
ENDCHAR
STARTCHAR 0139
ENCODING 313
SWIDTH 540 0
DWIDTH 9 0
BBX 7 17 1 0
BITMAP
20
60
C0
00
40
40
40
40
40
40
40
40
40
40
40
40
7E
ENDCHAR
STARTCHAR 013A
ENCODING 314
SWIDTH 540 0
DWIDTH 9 0
BBX 6 17 1 0
BITMAP
08
18
30
00
F0
10
10
10
10
10
10
10
10
10
10
10
0C
ENDCHAR
STARTCHAR 013B
ENCODING 315
SWIDTH 540 0
DWIDTH 9 0
BBX 6 17 2 -4
BITMAP
80
80
80
80
80
80
80
80
80
80
80
80
FC
00
60
20
60
ENDCHAR
STARTCHAR 013C
ENCODING 316
SWIDTH 540 0
DWIDTH 9 0
BBX 6 17 1 -4
BITMAP
F0
10
10
10
10
10
10
10
10
10
10
10
0C
00
30
10
30
ENDCHAR
STARTCHAR 013D
ENCODING 317
SWIDTH 540 0
DWIDTH 9 0
BBX 6 13 2 0
BITMAP
88
88
88
80
80
80
80
80
80
80
80
80
FC
ENDCHAR
STARTCHAR 013E
ENCODING 318
SWIDTH 540 0
DWIDTH 9 0
BBX 7 13 1 0
BITMAP
F6
14
14
10
10
10
10
10
10
10
10
10
0C
ENDCHAR
STARTCHAR 013F
ENCODING 319
SWIDTH 540 0
DWIDTH 9 0
BBX 6 13 2 0
BITMAP
80
80
80
80
80
90
B8
80
80
80
80
80
FC
ENDCHAR
STARTCHAR 0140
ENCODING 320
SWIDTH 540 0
DWIDTH 9 0
BBX 7 13 1 0
BITMAP
E0
20
20
20
20
2C
2E
20
20
20
20
30
1C
ENDCHAR
STARTCHAR 0141
ENCODING 321
SWIDTH 540 0
DWIDTH 9 0
BBX 8 13 0 0
BITMAP
20
20
20
20
28
3C
60
A0
20
20
20
20
3F
ENDCHAR
STARTCHAR 0142
ENCODING 322
SWIDTH 540 0
DWIDTH 9 0
BBX 6 13 1 0
BITMAP
F0
10
10
10
10
1C
30
50
10
10
10
10
0C
ENDCHAR
STARTCHAR 0143
ENCODING 323
SWIDTH 540 0
DWIDTH 9 0
BBX 6 17 1 0
BITMAP
08
18
30
00
C4
C4
E4
A4
A4
B4
94
94
94
8C
8C
8C
84
ENDCHAR
STARTCHAR 0144
ENCODING 324
SWIDTH 540 0
DWIDTH 9 0
BBX 6 13 1 0
BITMAP
08
18
30
00
B8
CC
C4
84
84
84
84
84
84
ENDCHAR
STARTCHAR 0145
ENCODING 325
SWIDTH 540 0
DWIDTH 9 0
BBX 6 17 1 -4
BITMAP
C4
C4
E4
A4
A4
B4
94
94
94
8C
8C
8C
84
00
30
10
30
ENDCHAR
STARTCHAR 0146
ENCODING 326
SWIDTH 540 0
DWIDTH 9 0
BBX 6 13 1 -4
BITMAP
B8
CC
C4
84
84
84
84
84
84
00
30
10
30
ENDCHAR
STARTCHAR 0147
ENCODING 327
SWIDTH 540 0
DWIDTH 9 0
BBX 6 17 1 0
BITMAP
48
6C
38
00
C4
C4
E4
A4
A4
B4
94
94
94
8C
8C
8C
84
ENDCHAR
STARTCHAR 0148
ENCODING 328
SWIDTH 540 0
DWIDTH 9 0
BBX 6 13 1 0
BITMAP
4C
68
30
00
B8
CC
C4
84
84
84
84
84
84
ENDCHAR
STARTCHAR 0149
ENCODING 329
SWIDTH 540 0
DWIDTH 9 0
BBX 7 13 0 0
BITMAP
C0
40
C0
00
5C
66
62
42
42
42
42
42
42
ENDCHAR
STARTCHAR 014A
ENCODING 330
SWIDTH 540 0
DWIDTH 9 0
BBX 6 17 1 -4
BITMAP
C4
C4
E4
A4
A4
B4
94
94
94
8C
8C
8C
84
04
04
0C
18
ENDCHAR
STARTCHAR 014B
ENCODING 331
SWIDTH 540 0
DWIDTH 9 0
BBX 6 13 1 -4
BITMAP
B8
CC
C4
84
84
84
84
84
84
04
04
0C
18
ENDCHAR
STARTCHAR 014C
ENCODING 332
SWIDTH 540 0
DWIDTH 9 0
BBX 7 16 1 0
BITMAP
7C
7C
00
78
CC
84
86
86
86
86
86
86
86
84
CC
78
ENDCHAR
STARTCHAR 014D
ENCODING 333
SWIDTH 540 0
DWIDTH 9 0
BBX 7 12 1 0
BITMAP
7C
00
00
78
CC
84
86
86
86
84
CC
78
ENDCHAR
STARTCHAR 014E
ENCODING 334
SWIDTH 540 0
DWIDTH 9 0
BBX 7 16 1 0
BITMAP
44
7C
10
78
CC
84
86
86
86
86
86
86
86
84
CC
78
ENDCHAR
STARTCHAR 014F
ENCODING 335
SWIDTH 540 0
DWIDTH 9 0
BBX 7 12 1 0
BITMAP
4C
78
00
78
CC
84
86
86
86
84
CC
78
ENDCHAR
STARTCHAR 0150
ENCODING 336
SWIDTH 540 0
DWIDTH 9 0
BBX 7 17 1 0
BITMAP
14
36
6C
00
78
CC
84
86
86
86
86
86
86
86
84
CC
78
ENDCHAR
STARTCHAR 0151
ENCODING 337
SWIDTH 540 0
DWIDTH 9 0
BBX 7 13 1 0
BITMAP
16
24
48
00
78
CC
84
86
86
86
84
CC
78
ENDCHAR
STARTCHAR 0152
ENCODING 338
SWIDTH 540 0
DWIDTH 9 0
BBX 7 13 1 0
BITMAP
7E
D0
90
90
90
90
9C
90
90
90
90
D0
7E
ENDCHAR
STARTCHAR 0153
ENCODING 339
SWIDTH 540 0
DWIDTH 9 0
BBX 7 9 1 0
BITMAP
FC
B6
92
92
9E
90
92
B6
FC
ENDCHAR
STARTCHAR 0154
ENCODING 340
SWIDTH 540 0
DWIDTH 9 0
BBX 7 17 1 0
BITMAP
08
18
30
00
F8
8C
84
86
86
84
84
F8
90
88
8C
84
86
ENDCHAR
STARTCHAR 0155
ENCODING 341
SWIDTH 540 0
DWIDTH 9 0
BBX 6 13 2 0
BITMAP
10
30
60
00
B8
CC
CC
80
80
80
80
80
80
ENDCHAR
STARTCHAR 0156
ENCODING 342
SWIDTH 540 0
DWIDTH 9 0
BBX 7 17 1 -4
BITMAP
F8
8C
84
86
86
84
84
F8
90
88
8C
84
86
00
30
10
30
ENDCHAR
STARTCHAR 0157
ENCODING 343
SWIDTH 540 0
DWIDTH 9 0
BBX 6 13 2 -4
BITMAP
B8
CC
CC
80
80
80
80
80
80
00
C0
C0
80
ENDCHAR
STARTCHAR 0158
ENCODING 344
SWIDTH 540 0
DWIDTH 9 0
BBX 7 17 1 0
BITMAP
48
6C
38
00
F8
8C
84
86
86
84
84
F8
90
88
8C
84
86
ENDCHAR
STARTCHAR 0159
ENCODING 345
SWIDTH 540 0
DWIDTH 9 0
BBX 6 13 2 0
BITMAP
88
50
70
00
B8
CC
CC
80
80
80
80
80
80
ENDCHAR
STARTCHAR 015A
ENCODING 346
SWIDTH 540 0
DWIDTH 9 0
BBX 7 17 1 0
BITMAP
08
18
30
00
78
4C
84
80
C0
60
38
0C
04
06
84
CC
78
ENDCHAR
STARTCHAR 015B
ENCODING 347
SWIDTH 540 0
DWIDTH 9 0
BBX 6 13 1 0
BITMAP
08
18
30
00
78
CC
C0
40
38
0C
04
C4
78
ENDCHAR
STARTCHAR 015C
ENCODING 348
SWIDTH 540 0
DWIDTH 9 0
BBX 7 17 1 0
BITMAP
30
38
4C
00
78
4C
84
80
C0
60
38
0C
04
06
84
CC
78
ENDCHAR
STARTCHAR 015D
ENCODING 349
SWIDTH 540 0
DWIDTH 9 0
BBX 6 13 1 0
BITMAP
30
68
4C
00
78
CC
C0
40
38
0C
04
C4
78
ENDCHAR
STARTCHAR 015E
ENCODING 350
SWIDTH 540 0
DWIDTH 9 0
BBX 7 17 1 -4
BITMAP
78
4C
84
80
C0
60
38
0C
04
06
84
CC
78
10
18
08
38
ENDCHAR
STARTCHAR 015F
ENCODING 351
SWIDTH 540 0
DWIDTH 9 0
BBX 6 13 1 -4
BITMAP
78
CC
C0
40
38
0C
04
C4
78
10
18
08
38
ENDCHAR
STARTCHAR 0160
ENCODING 352
SWIDTH 540 0
DWIDTH 9 0
BBX 7 17 1 0
BITMAP
48
6C
38
00
78
4C
84
80
C0
60
38
0C
04
06
84
CC
78
ENDCHAR
STARTCHAR 0161
ENCODING 353
SWIDTH 540 0
DWIDTH 9 0
BBX 6 13 1 0
BITMAP
4C
68
30
00
78
CC
C0
40
38
0C
04
C4
78
ENDCHAR
STARTCHAR 0162
ENCODING 354
SWIDTH 540 0
DWIDTH 9 0
BBX 7 17 1 -4
BITMAP
FE
10
10
10
10
10
10
10
10
10
10
10
10
00
10
08
38
ENDCHAR
STARTCHAR 0163
ENCODING 355
SWIDTH 540 0
DWIDTH 9 0
BBX 6 16 1 -4
BITMAP
30
30
30
FC
30
30
30
30
30
30
10
1C
18
1C
04
38
ENDCHAR
STARTCHAR 0164
ENCODING 356
SWIDTH 540 0
DWIDTH 9 0
BBX 7 17 1 0
BITMAP
48
6C
38
00
FE
10
10
10
10
10
10
10
10
10
10
10
10
ENDCHAR
STARTCHAR 0165
ENCODING 357
SWIDTH 540 0
DWIDTH 9 0
BBX 7 13 1 0
BITMAP
06
34
34
30
FC
30
30
30
30
30
30
10
1C
ENDCHAR
STARTCHAR 0166
ENCODING 358
SWIDTH 540 0
DWIDTH 9 0
BBX 7 13 1 0
BITMAP
FE
10
10
10
10
10
10
78
10
10
10
10
10
ENDCHAR
STARTCHAR 0167
ENCODING 359
SWIDTH 540 0
DWIDTH 9 0
BBX 6 12 1 0
BITMAP
30
30
30
FC
30
30
78
30
30
30
10
1C
ENDCHAR
STARTCHAR 0168
ENCODING 360
SWIDTH 540 0
DWIDTH 9 0
BBX 6 16 1 0
BITMAP
64
DC
00
84
84
84
84
84
84
84
84
84
84
C4
4C
78
ENDCHAR
STARTCHAR 0169
ENCODING 361
SWIDTH 540 0
DWIDTH 9 0
BBX 6 13 1 0
BITMAP
20
74
98
00
84
84
84
84
84
84
C4
4C
78
ENDCHAR
STARTCHAR 016A
ENCODING 362
SWIDTH 540 0
DWIDTH 9 0
BBX 6 16 1 0
BITMAP
7C
7C
00
84
84
84
84
84
84
84
84
84
84
C4
4C
78
ENDCHAR
STARTCHAR 016B
ENCODING 363
SWIDTH 540 0
DWIDTH 9 0
BBX 6 12 1 0
BITMAP
7C
00
00
84
84
84
84
84
84
C4
4C
78
ENDCHAR
STARTCHAR 016C
ENCODING 364
SWIDTH 540 0
DWIDTH 9 0
BBX 6 16 1 0
BITMAP
44
7C
10
84
84
84
84
84
84
84
84
84
84
C4
4C
78
ENDCHAR
STARTCHAR 016D
ENCODING 365
SWIDTH 540 0
DWIDTH 9 0
BBX 6 12 1 0
BITMAP
4C
78
00
84
84
84
84
84
84
C4
4C
78
ENDCHAR
STARTCHAR 016E
ENCODING 366
SWIDTH 540 0
DWIDTH 9 0
BBX 6 17 1 0
BITMAP
30
38
38
10
84
84
84
84
84
84
84
84
84
84
C4
4C
78
ENDCHAR
STARTCHAR 016F
ENCODING 367
SWIDTH 540 0
DWIDTH 9 0
BBX 6 13 1 0
BITMAP
30
28
38
00
84
84
84
84
84
84
C4
4C
78
ENDCHAR
STARTCHAR 0170
ENCODING 368
SWIDTH 540 0
DWIDTH 9 0
BBX 7 17 1 0
BITMAP
14
36
6C
00
84
84
84
84
84
84
84
84
84
84
C4
4C
78
ENDCHAR
STARTCHAR 0171
ENCODING 369
SWIDTH 540 0
DWIDTH 9 0
BBX 7 13 1 0
BITMAP
16
24
48
00
84
84
84
84
84
84
C4
4C
78
ENDCHAR
STARTCHAR 0172
ENCODING 370
SWIDTH 540 0
DWIDTH 9 0
BBX 6 17 1 -4
BITMAP
84
84
84
84
84
84
84
84
84
84
C4
4C
78
10
20
20
30
ENDCHAR
STARTCHAR 0173
ENCODING 371
SWIDTH 540 0
DWIDTH 9 0
BBX 6 13 1 -4
BITMAP
84
84
84
84
84
84
C4
4C
78
10
20
20
30
ENDCHAR
STARTCHAR 0174
ENCODING 372
SWIDTH 540 0
DWIDTH 9 0
BBX 7 17 1 0
BITMAP
30
38
4C
00
92
92
B6
B6
B4
B4
AC
AC
6C
6C
4C
4C
4C
ENDCHAR
STARTCHAR 0175
ENCODING 373
SWIDTH 540 0
DWIDTH 9 0
BBX 7 13 1 0
BITMAP
30
68
4C
00
92
B2
B6
B4
AC
EC
6C
4C
4C
ENDCHAR
STARTCHAR 0176
ENCODING 374
SWIDTH 540 0
DWIDTH 9 0
BBX 7 17 1 0
BITMAP
30
38
4C
00
86
C4
4C
48
68
38
30
30
10
10
10
10
10
ENDCHAR
STARTCHAR 0177
ENCODING 375
SWIDTH 540 0
DWIDTH 9 0
BBX 7 17 1 -4
BITMAP
30
68
4C
00
86
C4
44
4C
48
68
28
38
30
10
30
20
20
ENDCHAR
STARTCHAR 0178
ENCODING 376
SWIDTH 540 0
DWIDTH 9 0
BBX 7 16 1 0
BITMAP
4C
EC
00
86
C4
4C
48
68
38
30
30
10
10
10
10
10
ENDCHAR
STARTCHAR 0179
ENCODING 377
SWIDTH 540 0
DWIDTH 9 0
BBX 6 17 1 0
BITMAP
08
18
30
00
FC
04
0C
08
18
10
30
30
20
60
40
C0
FC
ENDCHAR
STARTCHAR 017A
ENCODING 378
SWIDTH 540 0
DWIDTH 9 0
BBX 6 13 1 0
BITMAP
08
18
30
00
FC
04
08
18
10
20
40
C0
FC
ENDCHAR
STARTCHAR 017B
ENCODING 379
SWIDTH 540 0
DWIDTH 9 0
BBX 6 16 1 0
BITMAP
30
30
00
FC
04
0C
08
18
10
30
30
20
60
40
C0
FC
ENDCHAR
STARTCHAR 017C
ENCODING 380
SWIDTH 540 0
DWIDTH 9 0
BBX 6 12 1 0
BITMAP
30
30
00
FC
04
08
18
10
20
40
C0
FC
ENDCHAR
STARTCHAR 017D
ENCODING 381
SWIDTH 540 0
DWIDTH 9 0
BBX 6 17 1 0
BITMAP
48
6C
38
00
FC
04
0C
08
18
10
30
30
20
60
40
C0
FC
ENDCHAR
STARTCHAR 017E
ENCODING 382
SWIDTH 540 0
DWIDTH 9 0
BBX 6 13 1 0
BITMAP
4C
68
30
00
FC
04
08
18
10
20
40
C0
FC
ENDCHAR
STARTCHAR 017F
ENCODING 383
SWIDTH 540 0
DWIDTH 9 0
BBX 4 13 3 0
BITMAP
70
80
80
80
80
80
80
80
80
80
80
80
80
ENDCHAR
STARTCHAR 0180
ENCODING 384
SWIDTH 540 0
DWIDTH 9 0
BBX 8 13 0 0
BITMAP
40
40
F0
40
5C
66
62
43
43
43
62
66
5C
ENDCHAR
STARTCHAR 0181
ENCODING 385
SWIDTH 540 0
DWIDTH 9 0
BBX 9 13 -1 0
BITMAP
7E00
6300
E100
2100
2100
2300
3E00
2300
2180
2180
2180
2300
3E00
ENDCHAR
STARTCHAR 0182
ENCODING 386
SWIDTH 540 0
DWIDTH 9 0
BBX 7 13 1 0
BITMAP
FC
80
80
80
80
80
F8
8C
84
86
84
8C
F8
ENDCHAR
STARTCHAR 0183
ENCODING 387
SWIDTH 540 0
DWIDTH 9 0
BBX 7 13 1 0
BITMAP
FC
80
80
80
B8
CC
C4
86
86
86
C4
CC
B8
ENDCHAR
STARTCHAR 0184
ENCODING 388
SWIDTH 540 0
DWIDTH 9 0
BBX 7 13 1 0
BITMAP
60
E0
E0
60
60
60
78
64
64
66
64
64
78
ENDCHAR
STARTCHAR 0185
ENCODING 389
SWIDTH 540 0
DWIDTH 9 0
BBX 7 9 1 0
BITMAP
60
E0
E0
60
7C
64
66
64
7C
ENDCHAR
STARTCHAR 0186
ENCODING 390
SWIDTH 540 0
DWIDTH 9 0
BBX 7 13 1 0
BITMAP
78
CC
84
06
06
06
06
06
06
06
84
CC
78
ENDCHAR
STARTCHAR 0187
ENCODING 391
SWIDTH 540 0
DWIDTH 9 0
BBX 8 17 1 0
BITMAP
03
02
04
04
7C
CC
84
84
80
80
80
80
80
80
84
CC
78
ENDCHAR
STARTCHAR 0188
ENCODING 392
SWIDTH 540 0
DWIDTH 9 0
BBX 8 13 1 0
BITMAP
03
02
04
04
7C
CC
84
80
80
80
84
CC
78
ENDCHAR
STARTCHAR 0189
ENCODING 393
SWIDTH 540 0
DWIDTH 9 0
BBX 8 13 0 0
BITMAP
7C
46
42
43
43
43
F3
43
43
43
42
46
7C
ENDCHAR
STARTCHAR 018A
ENCODING 394
SWIDTH 540 0
DWIDTH 9 0
BBX 9 13 -1 0
BITMAP
7E00
6300
E100
2180
2180
2180
2180
2180
2180
2180
2100
2300
3E00
ENDCHAR
STARTCHAR 018B
ENCODING 395
SWIDTH 540 0
DWIDTH 9 0
BBX 6 13 1 0
BITMAP
7C
04
04
04
04
04
7C
C4
84
84
84
C4
7C
ENDCHAR
STARTCHAR 018C
ENCODING 396
SWIDTH 540 0
DWIDTH 9 0
BBX 6 13 1 0
BITMAP
7C
04
04
04
74
CC
84
84
84
84
84
CC
74
ENDCHAR
STARTCHAR 018D
ENCODING 397
SWIDTH 540 0
DWIDTH 9 0
BBX 7 13 1 -4
BITMAP
78
CC
84
86
86
86
C4
7C
70
38
18
0C
FC
ENDCHAR
STARTCHAR 018E
ENCODING 398
SWIDTH 540 0
DWIDTH 9 0
BBX 6 13 1 0
BITMAP
FC
04
04
04
04
04
7C
04
04
04
04
04
FC
ENDCHAR
STARTCHAR 018F
ENCODING 399
SWIDTH 540 0
DWIDTH 9 0
BBX 7 13 1 0
BITMAP
78
CC
84
06
06
06
FE
86
86
86
84
CC
78
ENDCHAR
STARTCHAR 0190
ENCODING 400
SWIDTH 540 0
DWIDTH 9 0
BBX 7 13 1 0
BITMAP
78
4C
C4
80
80
C0
70
C0
80
80
86
CC
78
ENDCHAR
STARTCHAR 0191
ENCODING 401
SWIDTH 540 0
DWIDTH 9 0
BBX 7 17 0 -4
BITMAP
3E
20
20
20
20
20
3C
20
20
20
20
20
20
20
20
60
C0
ENDCHAR
STARTCHAR 0192
ENCODING 402
SWIDTH 540 0
DWIDTH 9 0
BBX 6 17 1 -4
BITMAP
0C
18
10
10
10
FC
10
10
10
10
10
10
10
10
10
30
E0
ENDCHAR
STARTCHAR 0193
ENCODING 403
SWIDTH 540 0
DWIDTH 9 0
BBX 8 17 1 0
BITMAP
03
02
04
04
7C
CC
84
84
80
80
9C
84
84
84
84
CC
78
ENDCHAR
STARTCHAR 0194
ENCODING 404
SWIDTH 540 0
DWIDTH 9 0
BBX 7 17 1 -4
BITMAP
86
C4
4C
48
68
28
30
30
10
10
30
30
38
28
28
28
30
ENDCHAR
STARTCHAR 0195
ENCODING 405
SWIDTH 540 0
DWIDTH 9 0
BBX 7 13 1 0
BITMAP
80
80
80
80
E6
B6
96
96
96
96
96
96
9C
ENDCHAR
STARTCHAR 0196
ENCODING 406
SWIDTH 540 0
DWIDTH 9 0
BBX 6 13 1 0
BITMAP
F0
10
10
10
10
10
10
10
10
10
10
10
0C
ENDCHAR
STARTCHAR 0197
ENCODING 407
SWIDTH 540 0
DWIDTH 9 0
BBX 6 13 1 0
BITMAP
FC
10
10
10
10
10
78
10
10
10
10
10
FC
ENDCHAR
STARTCHAR 0198
ENCODING 408
SWIDTH 540 0
DWIDTH 9 0
BBX 7 13 1 0
BITMAP
C6
C8
C8
D0
D0
F0
E0
D0
D0
C8
C8
CC
C6
ENDCHAR
STARTCHAR 0199
ENCODING 409
SWIDTH 540 0
DWIDTH 9 0
BBX 7 13 1 0
BITMAP
20
40
C0
C0
C6
CC
C8
D0
F0
D0
D8
CC
C6
ENDCHAR
STARTCHAR 019A
ENCODING 410
SWIDTH 540 0
DWIDTH 9 0
BBX 6 13 1 0
BITMAP
F0
10
10
10
10
10
78
10
10
10
10
10
0C
ENDCHAR
STARTCHAR 019B
ENCODING 411
SWIDTH 540 0
DWIDTH 9 0
BBX 7 13 1 0
BITMAP
20
2C
30
D0
30
30
28
68
48
4C
44
C4
86
ENDCHAR
STARTCHAR 019C
ENCODING 412
SWIDTH 540 0
DWIDTH 9 0
BBX 7 13 1 0
BITMAP
96
96
96
96
96
96
96
96
96
96
96
B6
EC
ENDCHAR
STARTCHAR 019D
ENCODING 413
SWIDTH 540 0
DWIDTH 9 0
BBX 8 17 -1 -4
BITMAP
31
31
39
29
29
2D
25
25
25
23
23
23
21
20
20
60
C0
ENDCHAR
STARTCHAR 019E
ENCODING 414
SWIDTH 540 0
DWIDTH 9 0
BBX 6 13 1 -4
BITMAP
B8
CC
C4
84
84
84
84
84
84
04
04
04
04
ENDCHAR
STARTCHAR 019F
ENCODING 415
SWIDTH 540 0
DWIDTH 9 0
BBX 7 13 1 0
BITMAP
78
CC
84
86
86
86
FE
86
86
86
84
CC
78
ENDCHAR
STARTCHAR 01A0
ENCODING 416
SWIDTH 540 0
DWIDTH 9 0
BBX 8 15 1 0
BITMAP
03
01
79
CE
86
86
86
86
86
86
86
86
84
CC
78
ENDCHAR
STARTCHAR 01A1
ENCODING 417
SWIDTH 540 0
DWIDTH 9 0
BBX 8 11 1 0
BITMAP
03
01
79
CE
84
86
86
86
84
CC
78
ENDCHAR
STARTCHAR 01A2
ENCODING 418
SWIDTH 540 0
DWIDTH 9 0
BBX 7 17 1 -4
BITMAP
76
9E
9A
92
92
92
92
92
92
92
92
92
72
02
02
02
02
ENDCHAR
STARTCHAR 01A3
ENCODING 419
SWIDTH 540 0
DWIDTH 9 0
BBX 7 13 1 -4
BITMAP
76
9E
92
92
92
92
92
92
72
02
02
02
02
ENDCHAR
STARTCHAR 01A4
ENCODING 420
SWIDTH 540 0
DWIDTH 9 0
BBX 8 13 0 0
BITMAP
FC
E6
E3
63
63
63
62
7C
60
60
60
60
60
ENDCHAR
STARTCHAR 01A5
ENCODING 421
SWIDTH 540 0
DWIDTH 9 0
BBX 7 17 1 -4
BITMAP
60
C0
80
80
B8
CC
C4
86
86
86
C4
CC
B8
80
80
80
80
ENDCHAR
STARTCHAR 01A6
ENCODING 422
SWIDTH 540 0
DWIDTH 9 0
BBX 7 17 1 -4
BITMAP
80
80
80
F8
8C
84
86
84
84
F8
90
98
88
08
0C
04
06
ENDCHAR
STARTCHAR 01A7
ENCODING 423
SWIDTH 540 0
DWIDTH 9 0
BBX 6 13 1 0
BITMAP
78
CC
84
04
04
0C
38
60
C0
80
84
CC
78
ENDCHAR
STARTCHAR 01A8
ENCODING 424
SWIDTH 540 0
DWIDTH 9 0
BBX 6 9 1 0
BITMAP
78
CC
04
0C
78
C0
80
C4
78
ENDCHAR
STARTCHAR 01A9
ENCODING 425
SWIDTH 540 0
DWIDTH 9 0
BBX 6 13 1 0
BITMAP
FC
C0
40
60
20
20
10
30
20
60
40
C0
FC
ENDCHAR
STARTCHAR 01AA
ENCODING 426
SWIDTH 540 0
DWIDTH 9 0
BBX 5 17 2 -4
BITMAP
E0
A0
A0
E0
20
20
20
20
20
20
20
20
20
20
20
30
18
ENDCHAR
STARTCHAR 01AB
ENCODING 427
SWIDTH 540 0
DWIDTH 9 0
BBX 6 16 1 -4
BITMAP
30
30
30
FC
30
30
30
30
30
30
10
1C
04
04
0C
18
ENDCHAR
STARTCHAR 01AC
ENCODING 428
SWIDTH 540 0
DWIDTH 9 0
BBX 7 13 1 0
BITMAP
7E
90
90
10
10
10
10
10
10
10
10
10
10
ENDCHAR
STARTCHAR 01AD
ENCODING 429
SWIDTH 540 0
DWIDTH 9 0
BBX 6 13 1 0
BITMAP
18
10
30
30
FC
30
30
30
30
30
30
10
1C
ENDCHAR
STARTCHAR 01AE
ENCODING 430
SWIDTH 540 0
DWIDTH 9 0
BBX 7 17 1 -4
BITMAP
FE
10
10
10
10
10
10
10
10
10
10
10
10
10
10
18
0C
ENDCHAR
STARTCHAR 01AF
ENCODING 431
SWIDTH 540 0
DWIDTH 9 0
BBX 8 15 1 0
BITMAP
03
01
86
84
84
84
84
84
84
84
84
84
C4
4C
78
ENDCHAR
STARTCHAR 01B0
ENCODING 432
SWIDTH 540 0
DWIDTH 9 0
BBX 8 11 1 0
BITMAP
03
01
86
84
84
84
84
84
C4
4C
78
ENDCHAR
STARTCHAR 01B1
ENCODING 433
SWIDTH 540 0
DWIDTH 9 0
BBX 6 13 1 0
BITMAP
EC
28
C4
84
84
84
84
84
84
84
C4
4C
78
ENDCHAR
STARTCHAR 01B2
ENCODING 434
SWIDTH 540 0
DWIDTH 9 0
BBX 6 13 1 0
BITMAP
98
8C
84
84
84
84
84
84
84
84
C4
4C
78
ENDCHAR
STARTCHAR 01B3
ENCODING 435
SWIDTH 540 0
DWIDTH 9 0
BBX 7 13 1 0
BITMAP
86
C4
4C
48
68
28
30
30
10
10
10
10
10
ENDCHAR
STARTCHAR 01B4
ENCODING 436
SWIDTH 540 0
DWIDTH 9 0
BBX 7 13 1 -4
BITMAP
86
C4
4C
4C
48
68
38
30
30
10
30
20
20
ENDCHAR
STARTCHAR 01B5
ENCODING 437
SWIDTH 540 0
DWIDTH 9 0
BBX 6 13 1 0
BITMAP
FC
04
0C
08
18
10
78
30
20
60
40
C0
FC
ENDCHAR
STARTCHAR 01B6
ENCODING 438
SWIDTH 540 0
DWIDTH 9 0
BBX 6 9 1 0
BITMAP
FC
04
08
18
78
20
40
C0
FC
ENDCHAR
STARTCHAR 01B7
ENCODING 439
SWIDTH 540 0
DWIDTH 9 0
BBX 7 13 1 0
BITMAP
FC
0C
18
10
20
78
0C
04
06
06
84
4C
78
ENDCHAR
STARTCHAR 01B8
ENCODING 440
SWIDTH 540 0
DWIDTH 9 0
BBX 6 13 1 0
BITMAP
7C
40
20
30
18
78
C0
80
80
80
C4
4C
78
ENDCHAR
STARTCHAR 01B9
ENCODING 441
SWIDTH 540 0
DWIDTH 9 0
BBX 6 13 1 -4
BITMAP
7C
40
20
30
18
78
C0
80
80
80
C4
4C
78
ENDCHAR
STARTCHAR 01BA
ENCODING 442
SWIDTH 540 0
DWIDTH 9 0
BBX 7 13 1 -4
BITMAP
FC
0C
18
30
78
04
06
04
78
C0
80
C0
7C
ENDCHAR
STARTCHAR 01BB
ENCODING 443
SWIDTH 540 0
DWIDTH 9 0
BBX 7 13 1 0
BITMAP
78
CC
84
04
04
04
FE
18
30
20
60
C0
FC
ENDCHAR
STARTCHAR 01BC
ENCODING 444
SWIDTH 540 0
DWIDTH 9 0
BBX 7 13 1 0
BITMAP
FC
40
40
40
40
78
0C
04
06
06
C4
CC
78
ENDCHAR
STARTCHAR 01BD
ENCODING 445
SWIDTH 540 0
DWIDTH 9 0
BBX 7 9 1 0
BITMAP
FC
40
40
40
78
04
06
C4
78
ENDCHAR
STARTCHAR 01BE
ENCODING 446
SWIDTH 540 0
DWIDTH 9 0
BBX 6 12 1 0
BITMAP
20
20
20
FC
20
10
08
04
04
04
CC
78
ENDCHAR
STARTCHAR 01BF
ENCODING 447
SWIDTH 540 0
DWIDTH 9 0
BBX 7 13 1 -4
BITMAP
B8
CC
C4
86
84
84
88
98
B0
E0
80
80
80
ENDCHAR
STARTCHAR 01C0
ENCODING 448
SWIDTH 540 0
DWIDTH 9 0
BBX 1 17 4 -2
BITMAP
80
80
80
80
80
80
80
80
80
80
80
80
80
80
80
80
80
ENDCHAR
STARTCHAR 01C1
ENCODING 449
SWIDTH 540 0
DWIDTH 9 0
BBX 4 17 2 -2
BITMAP
90
90
90
90
90
90
90
90
90
90
90
90
90
90
90
90
90
ENDCHAR
STARTCHAR 01C2
ENCODING 450
SWIDTH 540 0
DWIDTH 9 0
BBX 6 17 1 -3
BITMAP
10
10
10
10
10
10
FC
10
10
FC
10
10
10
10
10
10
10
ENDCHAR
STARTCHAR 01C3
ENCODING 451
SWIDTH 540 0
DWIDTH 9 0
BBX 2 13 3 0
BITMAP
40
40
40
40
40
40
40
40
00
00
00
C0
C0
ENDCHAR
STARTCHAR 01C4
ENCODING 452
SWIDTH 540 0
DWIDTH 9 0
BBX 8 17 0 0
BITMAP
05
05
02
00
E7
A1
91
91
92
92
92
92
96
94
94
A4
E7
ENDCHAR
STARTCHAR 01C5
ENCODING 453
SWIDTH 540 0
DWIDTH 9 0
BBX 8 14 0 0
BITMAP
05
E5
A2
90
90
97
91
91
92
92
92
94
A4
E7
ENDCHAR
STARTCHAR 01C6
ENCODING 454
SWIDTH 540 0
DWIDTH 9 0
BBX 8 14 0 0
BITMAP
05
15
12
12
10
57
B1
91
92
92
92
94
B4
57
ENDCHAR
STARTCHAR 01C7
ENCODING 455
SWIDTH 540 0
DWIDTH 9 0
BBX 7 13 1 0
BITMAP
82
82
82
82
82
82
82
82
82
82
92
8A
EC
ENDCHAR
STARTCHAR 01C8
ENCODING 456
SWIDTH 540 0
DWIDTH 9 0
BBX 7 17 1 -4
BITMAP
86
86
80
80
8E
82
82
82
82
82
82
82
E2
02
02
06
0C
ENDCHAR
STARTCHAR 01C9
ENCODING 457
SWIDTH 540 0
DWIDTH 9 0
BBX 8 17 0 -4
BITMAP
E3
23
20
20
27
21
21
21
21
21
21
21
31
01
01
03
06
ENDCHAR
STARTCHAR 01CA
ENCODING 458
SWIDTH 540 0
DWIDTH 9 0
BBX 8 13 0 0
BITMAP
91
D1
D1
D1
D1
D1
B1
B1
B1
B1
B9
B5
96
ENDCHAR
STARTCHAR 01CB
ENCODING 459
SWIDTH 540 0
DWIDTH 9 0
BBX 8 17 0 -4
BITMAP
93
D3
D0
D0
D7
D1
B1
B1
B1
B1
B1
B1
91
01
01
03
06
ENDCHAR
STARTCHAR 01CC
ENCODING 460
SWIDTH 540 0
DWIDTH 9 0
BBX 8 17 0 -4
BITMAP
03
03
00
00
A7
F1
91
91
91
91
91
91
91
01
01
03
06
ENDCHAR
STARTCHAR 01CD
ENCODING 461
SWIDTH 540 0
DWIDTH 9 0
BBX 7 17 1 0
BITMAP
48
6C
38
00
30
30
38
38
28
68
48
4C
4C
FC
C4
84
86
ENDCHAR
STARTCHAR 01CE
ENCODING 462
SWIDTH 540 0
DWIDTH 9 0
BBX 6 13 1 0
BITMAP
4C
68
30
00
78
CC
84
04
7C
C4
84
CC
74
ENDCHAR
STARTCHAR 01CF
ENCODING 463
SWIDTH 540 0
DWIDTH 9 0
BBX 6 17 1 0
BITMAP
48
6C
38
00
FC
10
10
10
10
10
10
10
10
10
10
10
FC
ENDCHAR
STARTCHAR 01D0
ENCODING 464
SWIDTH 540 0
DWIDTH 9 0
BBX 6 13 1 0
BITMAP
44
28
30
00
70
10
10
10
10
10
10
10
FC
ENDCHAR
STARTCHAR 01D1
ENCODING 465
SWIDTH 540 0
DWIDTH 9 0
BBX 7 17 1 0
BITMAP
48
6C
38
00
78
CC
84
86
86
86
86
86
86
86
84
CC
78
ENDCHAR
STARTCHAR 01D2
ENCODING 466
SWIDTH 540 0
DWIDTH 9 0
BBX 7 13 1 0
BITMAP
4C
68
30
00
78
CC
84
86
86
86
84
CC
78
ENDCHAR
STARTCHAR 01D3
ENCODING 467
SWIDTH 540 0
DWIDTH 9 0
BBX 6 17 1 0
BITMAP
48
6C
38
00
84
84
84
84
84
84
84
84
84
84
C4
4C
78
ENDCHAR
STARTCHAR 01D4
ENCODING 468
SWIDTH 540 0
DWIDTH 9 0
BBX 6 13 1 0
BITMAP
4C
68
30
00
84
84
84
84
84
84
C4
4C
78
ENDCHAR
STARTCHAR 01D5
ENCODING 469
SWIDTH 540 0
DWIDTH 9 0
BBX 6 19 1 0
BITMAP
7C
00
00
4C
EC
00
84
84
84
84
84
84
84
84
84
84
C4
4C
78
ENDCHAR
STARTCHAR 01D6
ENCODING 470
SWIDTH 540 0
DWIDTH 9 0
BBX 6 15 1 0
BITMAP
7C
00
00
EC
4C
00
84
84
84
84
84
84
C4
4C
78
ENDCHAR
STARTCHAR 01D7
ENCODING 471
SWIDTH 540 0
DWIDTH 9 0
BBX 6 20 1 0
BITMAP
08
10
30
00
4C
EC
00
84
84
84
84
84
84
84
84
84
84
C4
4C
78
ENDCHAR
STARTCHAR 01D8
ENCODING 472
SWIDTH 540 0
DWIDTH 9 0
BBX 6 16 1 0
BITMAP
18
30
10
00
EC
4C
00
84
84
84
84
84
84
C4
4C
78
ENDCHAR
STARTCHAR 01D9
ENCODING 473
SWIDTH 540 0
DWIDTH 9 0
BBX 6 20 1 0
BITMAP
4C
28
30
00
4C
EC
00
84
84
84
84
84
84
84
84
84
84
C4
4C
78
ENDCHAR
STARTCHAR 01DA
ENCODING 474
SWIDTH 540 0
DWIDTH 9 0
BBX 6 16 1 0
BITMAP
4C
38
30
00
EC
4C
00
84
84
84
84
84
84
C4
4C
78
ENDCHAR
STARTCHAR 01DB
ENCODING 475
SWIDTH 540 0
DWIDTH 9 0
BBX 6 20 1 0
BITMAP
60
30
10
00
4C
EC
00
84
84
84
84
84
84
84
84
84
84
C4
4C
78
ENDCHAR
STARTCHAR 01DC
ENCODING 476
SWIDTH 540 0
DWIDTH 9 0
BBX 6 16 1 0
BITMAP
60
30
10
00
EC
4C
00
84
84
84
84
84
84
C4
4C
78
ENDCHAR
STARTCHAR 01DD
ENCODING 477
SWIDTH 540 0
DWIDTH 9 0
BBX 7 9 1 0
BITMAP
78
CC
84
06
FE
86
84
CC
78
ENDCHAR
STARTCHAR 01DE
ENCODING 478
SWIDTH 540 0
DWIDTH 9 0
BBX 7 19 1 0
BITMAP
7C
00
00
4C
EC
00
30
30
38
38
28
68
48
4C
4C
FC
C4
84
86
ENDCHAR
STARTCHAR 01DF
ENCODING 479
SWIDTH 540 0
DWIDTH 9 0
BBX 6 15 1 0
BITMAP
7C
00
00
EC
4C
00
78
CC
84
04
7C
C4
84
CC
74
ENDCHAR
STARTCHAR 01E0
ENCODING 480
SWIDTH 540 0
DWIDTH 9 0
BBX 7 19 1 0
BITMAP
7C
00
00
30
30
00
30
30
38
38
28
68
48
4C
4C
FC
C4
84
86
ENDCHAR
STARTCHAR 01E1
ENCODING 481
SWIDTH 540 0
DWIDTH 9 0
BBX 6 15 1 0
BITMAP
7C
00
00
30
30
00
78
CC
84
04
7C
C4
84
CC
74
ENDCHAR
STARTCHAR 01E2
ENCODING 482
SWIDTH 540 0
DWIDTH 9 0
BBX 7 16 1 0
BITMAP
7C
7C
00
3E
30
30
30
70
50
5C
50
50
F0
90
90
9E
ENDCHAR
STARTCHAR 01E3
ENCODING 483
SWIDTH 540 0
DWIDTH 9 0
BBX 7 12 1 0
BITMAP
7C
00
00
7C
B6
92
12
7E
90
92
B6
FC
ENDCHAR
STARTCHAR 01E4
ENCODING 484
SWIDTH 540 0
DWIDTH 9 0
BBX 7 13 1 0
BITMAP
78
CC
84
80
80
80
9C
84
84
9E
84
CC
78
ENDCHAR
STARTCHAR 01E5
ENCODING 485
SWIDTH 540 0
DWIDTH 9 0
BBX 8 13 0 -4
BITMAP
3A
66
42
42
FF
42
42
66
3A
02
02
06
3C
ENDCHAR
STARTCHAR 01E6
ENCODING 486
SWIDTH 540 0
DWIDTH 9 0
BBX 6 17 1 0
BITMAP
48
6C
38
00
78
CC
84
80
80
80
9C
84
84
84
84
CC
78
ENDCHAR
STARTCHAR 01E7
ENCODING 487
SWIDTH 540 0
DWIDTH 9 0
BBX 6 17 1 -4
BITMAP
4C
68
30
00
74
CC
84
84
84
84
84
CC
74
04
04
0C
78
ENDCHAR
STARTCHAR 01E8
ENCODING 488
SWIDTH 540 0
DWIDTH 9 0
BBX 7 17 1 0
BITMAP
48
6C
38
00
C6
CC
C8
C8
D8
D0
F0
D0
D0
C8
C8
CC
C6
ENDCHAR
STARTCHAR 01E9
ENCODING 489
SWIDTH 540 0
DWIDTH 9 0
BBX 8 17 0 0
BITMAP
90
90
60
00
60
60
60
60
63
66
64
68
78
68
6C
66
63
ENDCHAR
STARTCHAR 01EA
ENCODING 490
SWIDTH 540 0
DWIDTH 9 0
BBX 7 17 1 -4
BITMAP
78
CC
84
86
86
86
86
86
86
86
84
CC
78
10
20
20
30
ENDCHAR
STARTCHAR 01EB
ENCODING 491
SWIDTH 540 0
DWIDTH 9 0
BBX 7 13 1 -4
BITMAP
78
CC
84
86
86
86
84
CC
78
10
20
20
30
ENDCHAR
STARTCHAR 01EC
ENCODING 492
SWIDTH 540 0
DWIDTH 9 0
BBX 7 20 1 -4
BITMAP
7C
7C
00
78
CC
84
86
86
86
86
86
86
86
84
CC
78
10
20
20
30
ENDCHAR
STARTCHAR 01ED
ENCODING 493
SWIDTH 540 0
DWIDTH 9 0
BBX 7 16 1 -4
BITMAP
7C
00
00
78
CC
84
86
86
86
84
CC
78
10
20
20
30
ENDCHAR
STARTCHAR 01EE
ENCODING 494
SWIDTH 540 0
DWIDTH 9 0
BBX 7 17 1 0
BITMAP
48
6C
38
00
FC
0C
18
10
20
78
0C
04
06
06
84
4C
78
ENDCHAR
STARTCHAR 01EF
ENCODING 495
SWIDTH 540 0
DWIDTH 9 0
BBX 7 17 1 -4
BITMAP
4C
68
30
00
FC
0C
18
10
20
78
0C
04
06
06
84
4C
78
ENDCHAR
STARTCHAR 01F0
ENCODING 496
SWIDTH 540 0
DWIDTH 9 0
BBX 7 17 1 -4
BITMAP
26
34
18
00
78
08
08
08
08
08
08
08
08
08
08
18
F0
ENDCHAR
STARTCHAR 01F1
ENCODING 497
SWIDTH 540 0
DWIDTH 9 0
BBX 8 13 0 0
BITMAP
E7
A1
91
91
92
92
92
92
96
94
94
A4
E7
ENDCHAR
STARTCHAR 01F2
ENCODING 498
SWIDTH 540 0
DWIDTH 9 0
BBX 8 13 0 0
BITMAP
E0
A0
90
90
97
91
91
92
92
92
94
A4
E7
ENDCHAR
STARTCHAR 01F3
ENCODING 499
SWIDTH 540 0
DWIDTH 9 0
BBX 8 13 0 0
BITMAP
10
10
10
10
57
B1
91
92
92
92
94
B4
57
ENDCHAR
STARTCHAR 01F4
ENCODING 500
SWIDTH 540 0
DWIDTH 9 0
BBX 6 17 1 0
BITMAP
08
18
30
00
78
CC
84
80
80
80
9C
84
84
84
84
CC
78
ENDCHAR
STARTCHAR 01F5
ENCODING 501
SWIDTH 540 0
DWIDTH 9 0
BBX 6 17 1 -4
BITMAP
08
18
30
00
74
CC
84
84
84
84
84
CC
74
04
04
0C
78
ENDCHAR
STARTCHAR 01F6
ENCODING 502
SWIDTH 540 0
DWIDTH 9 0
BBX 7 13 1 0
BITMAP
90
90
90
90
96
96
F6
96
96
96
96
96
9C
ENDCHAR
STARTCHAR 01F7
ENCODING 503
SWIDTH 540 0
DWIDTH 9 0
BBX 7 13 1 0
BITMAP
B8
CC
C4
86
84
84
88
98
B0
E0
80
80
80
ENDCHAR
STARTCHAR 01F8
ENCODING 504
SWIDTH 540 0
DWIDTH 9 0
BBX 6 17 1 0
BITMAP
20
60
10
00
C4
C4
E4
A4
A4
B4
94
94
94
8C
8C
8C
84
ENDCHAR
STARTCHAR 01F9
ENCODING 505
SWIDTH 540 0
DWIDTH 9 0
BBX 6 13 1 0
BITMAP
60
20
10
00
B8
CC
C4
84
84
84
84
84
84
ENDCHAR
STARTCHAR 01FA
ENCODING 506
SWIDTH 540 0
DWIDTH 9 0
BBX 7 20 1 0
BITMAP
08
10
30
30
38
38
10
30
30
38
38
28
68
48
4C
4C
FC
C4
84
86
ENDCHAR
STARTCHAR 01FB
ENCODING 507
SWIDTH 540 0
DWIDTH 9 0
BBX 6 16 1 0
BITMAP
18
30
10
30
28
38
00
78
CC
84
04
7C
C4
84
CC
74
ENDCHAR
STARTCHAR 01FC
ENCODING 508
SWIDTH 540 0
DWIDTH 9 0
BBX 7 17 1 0
BITMAP
08
18
30
00
3E
30
30
30
70
50
5C
50
50
F0
90
90
9E
ENDCHAR
STARTCHAR 01FD
ENCODING 509
SWIDTH 540 0
DWIDTH 9 0
BBX 7 13 1 0
BITMAP
08
18
30
00
7C
B6
92
12
7E
90
92
B6
FC
ENDCHAR
STARTCHAR 01FE
ENCODING 510
SWIDTH 540 0
DWIDTH 9 0
BBX 7 18 1 -1
BITMAP
08
18
30
06
7C
CC
8C
8E
9E
96
96
A6
A6
E6
C4
CC
F8
80
ENDCHAR
STARTCHAR 01FF
ENCODING 511
SWIDTH 540 0
DWIDTH 9 0
BBX 7 14 1 -1
BITMAP
08
18
30
06
7C
CC
8C
9E
96
A6
A4
CC
F8
80
ENDCHAR
STARTCHAR 0200
ENCODING 512
SWIDTH 540 0
DWIDTH 9 0
BBX 7 17 1 0
BITMAP
90
D0
6C
00
30
30
38
38
28
68
48
4C
4C
FC
C4
84
86
ENDCHAR
STARTCHAR 0201
ENCODING 513
SWIDTH 540 0
DWIDTH 9 0
BBX 6 13 1 0
BITMAP
90
D8
6C
00
78
CC
84
04
7C
C4
84
CC
74
ENDCHAR
STARTCHAR 0202
ENCODING 514
SWIDTH 540 0
DWIDTH 9 0
BBX 7 17 1 0
BITMAP
30
7C
44
00
30
30
38
38
28
68
48
4C
4C
FC
C4
84
86
ENDCHAR
STARTCHAR 0203
ENCODING 515
SWIDTH 540 0
DWIDTH 9 0
BBX 6 13 1 0
BITMAP
38
4C
44
00
78
CC
84
04
7C
C4
84
CC
74
ENDCHAR
STARTCHAR 0204
ENCODING 516
SWIDTH 540 0
DWIDTH 9 0
BBX 6 17 1 0
BITMAP
90
D0
6C
00
FC
C0
C0
C0
C0
C0
F8
C0
C0
C0
C0
C0
FC
ENDCHAR
STARTCHAR 0205
ENCODING 517
SWIDTH 540 0
DWIDTH 9 0
BBX 7 13 1 0
BITMAP
90
D8
6C
00
78
CC
84
86
FE
80
86
C4
78
ENDCHAR
STARTCHAR 0206
ENCODING 518
SWIDTH 540 0
DWIDTH 9 0
BBX 6 17 1 0
BITMAP
30
7C
44
00
FC
C0
C0
C0
C0
C0
F8
C0
C0
C0
C0
C0
FC
ENDCHAR
STARTCHAR 0207
ENCODING 519
SWIDTH 540 0
DWIDTH 9 0
BBX 7 13 1 0
BITMAP
38
4C
44
00
78
CC
84
86
FE
80
86
C4
78
ENDCHAR
STARTCHAR 0208
ENCODING 520
SWIDTH 540 0
DWIDTH 9 0
BBX 6 17 1 0
BITMAP
90
D0
6C
00
FC
10
10
10
10
10
10
10
10
10
10
10
FC
ENDCHAR
STARTCHAR 0209
ENCODING 521
SWIDTH 540 0
DWIDTH 9 0
BBX 6 13 1 0
BITMAP
90
D8
6C
00
70
10
10
10
10
10
10
10
FC
ENDCHAR
STARTCHAR 020A
ENCODING 522
SWIDTH 540 0
DWIDTH 9 0
BBX 6 17 1 0
BITMAP
30
7C
44
00
FC
10
10
10
10
10
10
10
10
10
10
10
FC
ENDCHAR
STARTCHAR 020B
ENCODING 523
SWIDTH 540 0
DWIDTH 9 0
BBX 6 13 1 0
BITMAP
38
4C
44
00
70
10
10
10
10
10
10
10
FC
ENDCHAR
STARTCHAR 020C
ENCODING 524
SWIDTH 540 0
DWIDTH 9 0
BBX 7 17 1 0
BITMAP
90
D0
6C
00
78
CC
84
86
86
86
86
86
86
86
84
CC
78
ENDCHAR
STARTCHAR 020D
ENCODING 525
SWIDTH 540 0
DWIDTH 9 0
BBX 7 13 1 0
BITMAP
90
D8
6C
00
78
CC
84
86
86
86
84
CC
78
ENDCHAR
STARTCHAR 020E
ENCODING 526
SWIDTH 540 0
DWIDTH 9 0
BBX 7 17 1 0
BITMAP
30
7C
44
00
78
CC
84
86
86
86
86
86
86
86
84
CC
78
ENDCHAR
STARTCHAR 020F
ENCODING 527
SWIDTH 540 0
DWIDTH 9 0
BBX 7 13 1 0
BITMAP
38
4C
44
00
78
CC
84
86
86
86
84
CC
78
ENDCHAR
STARTCHAR 0210
ENCODING 528
SWIDTH 540 0
DWIDTH 9 0
BBX 7 17 1 0
BITMAP
90
D0
6C
00
F8
8C
84
86
86
84
84
F8
90
88
8C
84
86
ENDCHAR
STARTCHAR 0211
ENCODING 529
SWIDTH 540 0
DWIDTH 9 0
BBX 7 13 1 0
BITMAP
90
D8
6C
00
5C
66
66
40
40
40
40
40
40
ENDCHAR
STARTCHAR 0212
ENCODING 530
SWIDTH 540 0
DWIDTH 9 0
BBX 7 17 1 0
BITMAP
30
7C
44
00
F8
8C
84
86
86
84
84
F8
90
88
8C
84
86
ENDCHAR
STARTCHAR 0213
ENCODING 531
SWIDTH 540 0
DWIDTH 9 0
BBX 6 13 2 0
BITMAP
70
98
88
00
B8
CC
CC
80
80
80
80
80
80
ENDCHAR
STARTCHAR 0214
ENCODING 532
SWIDTH 540 0
DWIDTH 9 0
BBX 6 17 1 0
BITMAP
90
D0
6C
00
84
84
84
84
84
84
84
84
84
84
C4
4C
78
ENDCHAR
STARTCHAR 0215
ENCODING 533
SWIDTH 540 0
DWIDTH 9 0
BBX 6 13 1 0
BITMAP
90
D8
6C
00
84
84
84
84
84
84
C4
4C
78
ENDCHAR
STARTCHAR 0216
ENCODING 534
SWIDTH 540 0
DWIDTH 9 0
BBX 6 17 1 0
BITMAP
30
7C
44
00
84
84
84
84
84
84
84
84
84
84
C4
4C
78
ENDCHAR
STARTCHAR 0217
ENCODING 535
SWIDTH 540 0
DWIDTH 9 0
BBX 6 13 1 0
BITMAP
38
4C
44
00
84
84
84
84
84
84
C4
4C
78
ENDCHAR
STARTCHAR 0218
ENCODING 536
SWIDTH 540 0
DWIDTH 9 0
BBX 7 17 1 -4
BITMAP
78
4C
84
80
C0
60
38
0C
04
06
84
CC
78
00
30
10
30
ENDCHAR
STARTCHAR 0219
ENCODING 537
SWIDTH 540 0
DWIDTH 9 0
BBX 6 13 1 -4
BITMAP
78
CC
C0
40
38
0C
04
C4
78
00
30
10
30
ENDCHAR
STARTCHAR 021A
ENCODING 538
SWIDTH 540 0
DWIDTH 9 0
BBX 7 17 1 -4
BITMAP
FE
10
10
10
10
10
10
10
10
10
10
10
10
00
30
10
30
ENDCHAR
STARTCHAR 021B
ENCODING 539
SWIDTH 540 0
DWIDTH 9 0
BBX 6 16 1 -4
BITMAP
30
30
30
FC
30
30
30
30
30
30
10
1C
00
18
08
10
ENDCHAR
STARTCHAR 021C
ENCODING 540
SWIDTH 540 0
DWIDTH 9 0
BBX 6 13 1 0
BITMAP
78
CC
84
04
04
0C
7C
44
04
04
0C
38
E0
ENDCHAR
STARTCHAR 021D
ENCODING 541
SWIDTH 540 0
DWIDTH 9 0
BBX 6 13 1 -4
BITMAP
78
CC
84
04
04
0C
3C
64
04
04
0C
38
E0
ENDCHAR
STARTCHAR 021E
ENCODING 542
SWIDTH 540 0
DWIDTH 9 0
BBX 6 17 1 0
BITMAP
48
6C
38
00
84
84
84
84
84
84
FC
84
84
84
84
84
84
ENDCHAR
STARTCHAR 021F
ENCODING 543
SWIDTH 540 0
DWIDTH 9 0
BBX 8 17 -1 0
BITMAP
48
D8
70
00
20
20
20
20
2E
33
31
21
21
21
21
21
21
ENDCHAR
STARTCHAR 0220
ENCODING 544
SWIDTH 540 0
DWIDTH 9 0
BBX 6 17 1 -4
BITMAP
B8
CC
C4
84
84
84
84
84
84
84
84
84
84
04
04
04
04
ENDCHAR
STARTCHAR 0221
ENCODING 545
SWIDTH 540 0
DWIDTH 9 0
BBX 8 14 1 -1
BITMAP
0C
0C
0C
0C
7C
CC
8C
8C
8C
8E
8F
DF
76
20
ENDCHAR
STARTCHAR 0222
ENCODING 546
SWIDTH 540 0
DWIDTH 9 0
BBX 7 13 1 0
BITMAP
08
64
C4
84
84
C4
78
CC
84
86
84
CC
78
ENDCHAR
STARTCHAR 0223
ENCODING 547
SWIDTH 540 0
DWIDTH 9 0
BBX 7 13 1 0
BITMAP
6C
C4
84
C4
7C
CC
84
86
86
86
84
CC
78
ENDCHAR
STARTCHAR 0224
ENCODING 548
SWIDTH 540 0
DWIDTH 9 0
BBX 6 16 1 -3
BITMAP
FC
04
0C
08
18
10
30
30
20
60
40
C0
F8
04
04
04
ENDCHAR
STARTCHAR 0225
ENCODING 549
SWIDTH 540 0
DWIDTH 9 0
BBX 6 12 1 -3
BITMAP
FC
04
08
18
10
20
40
C0
F8
04
04
04
ENDCHAR
STARTCHAR 0226
ENCODING 550
SWIDTH 540 0
DWIDTH 9 0
BBX 7 16 1 0
BITMAP
30
30
00
30
30
38
38
28
68
48
4C
4C
FC
C4
84
86
ENDCHAR
STARTCHAR 0227
ENCODING 551
SWIDTH 540 0
DWIDTH 9 0
BBX 6 12 1 0
BITMAP
30
30
00
78
CC
84
04
7C
C4
84
CC
74
ENDCHAR
STARTCHAR 0228
ENCODING 552
SWIDTH 540 0
DWIDTH 9 0
BBX 6 17 1 -4
BITMAP
FC
C0
C0
C0
C0
C0
F8
C0
C0
C0
C0
C0
FC
00
10
08
38
ENDCHAR
STARTCHAR 0229
ENCODING 553
SWIDTH 540 0
DWIDTH 9 0
BBX 7 13 1 -4
BITMAP
78
CC
84
86
FE
80
86
C4
78
00
10
08
38
ENDCHAR
STARTCHAR 022A
ENCODING 554
SWIDTH 540 0
DWIDTH 9 0
BBX 7 19 1 0
BITMAP
7C
00
00
4C
EC
00
78
CC
84
86
86
86
86
86
86
86
84
CC
78
ENDCHAR
STARTCHAR 022B
ENCODING 555
SWIDTH 540 0
DWIDTH 9 0
BBX 7 15 1 0
BITMAP
7C
00
00
EC
4C
00
78
CC
84
86
86
86
84
CC
78
ENDCHAR
STARTCHAR 022C
ENCODING 556
SWIDTH 540 0
DWIDTH 9 0
BBX 7 19 1 0
BITMAP
7C
00
00
64
DC
00
78
CC
84
86
86
86
86
86
86
86
84
CC
78
ENDCHAR
STARTCHAR 022D
ENCODING 557
SWIDTH 540 0
DWIDTH 9 0
BBX 7 15 1 0
BITMAP
7C
00
20
74
98
00
78
CC
84
86
86
86
84
CC
78
ENDCHAR
STARTCHAR 022E
ENCODING 558
SWIDTH 540 0
DWIDTH 9 0
BBX 7 16 1 0
BITMAP
30
30
00
78
CC
84
86
86
86
86
86
86
86
84
CC
78
ENDCHAR
STARTCHAR 022F
ENCODING 559
SWIDTH 540 0
DWIDTH 9 0
BBX 7 12 1 0
BITMAP
30
30
00
78
CC
84
86
86
86
84
CC
78
ENDCHAR
STARTCHAR 0230
ENCODING 560
SWIDTH 540 0
DWIDTH 9 0
BBX 7 19 1 0
BITMAP
7C
00
00
30
30
00
78
CC
84
86
86
86
86
86
86
86
84
CC
78
ENDCHAR
STARTCHAR 0231
ENCODING 561
SWIDTH 540 0
DWIDTH 9 0
BBX 7 15 1 0
BITMAP
7C
00
00
30
30
00
78
CC
84
86
86
86
84
CC
78
ENDCHAR
STARTCHAR 0232
ENCODING 562
SWIDTH 540 0
DWIDTH 9 0
BBX 7 16 1 0
BITMAP
7C
7C
00
86
C4
4C
48
68
38
30
30
10
10
10
10
10
ENDCHAR
STARTCHAR 0233
ENCODING 563
SWIDTH 540 0
DWIDTH 9 0
BBX 7 16 1 -4
BITMAP
7C
00
00
86
C4
44
4C
48
68
28
38
30
10
30
20
20
ENDCHAR
STARTCHAR 0234
ENCODING 564
SWIDTH 540 0
DWIDTH 9 0
BBX 7 13 1 0
BITMAP
F0
10
10
10
10
10
10
10
10
1C
32
52
DC
ENDCHAR
STARTCHAR 0235
ENCODING 565
SWIDTH 540 0
DWIDTH 9 0
BBX 8 10 1 -1
BITMAP
B8
C8
88
8C
8C
8C
8E
9D
B6
10
ENDCHAR
STARTCHAR 0236
ENCODING 566
SWIDTH 540 0
DWIDTH 9 0
BBX 8 12 0 0
BITMAP
18
18
18
7E
18
18
18
18
1E
3A
5B
CE
ENDCHAR
STARTCHAR 0237
ENCODING 567
SWIDTH 540 0
DWIDTH 9 0
BBX 5 13 1 -4
BITMAP
78
08
08
08
08
08
08
08
08
08
08
18
F0
ENDCHAR
STARTCHAR 0238
ENCODING 568
SWIDTH 540 0
DWIDTH 9 0
BBX 7 13 1 0
BITMAP
10
10
10
10
DC
B6
92
92
92
92
92
B6
FC
ENDCHAR
STARTCHAR 0239
ENCODING 569
SWIDTH 540 0
DWIDTH 9 0
BBX 7 13 1 -4
BITMAP
FC
B6
92
92
92
92
92
B6
DC
10
10
10
10
ENDCHAR
STARTCHAR 023A
ENCODING 570
SWIDTH 540 0
DWIDTH 9 0
BBX 7 15 1 -1
BITMAP
04
34
38
38
38
38
78
58
5C
6C
FC
E4
C4
C6
C0
ENDCHAR
STARTCHAR 023B
ENCODING 571
SWIDTH 540 0
DWIDTH 9 0
BBX 6 15 1 -1
BITMAP
04
7C
CC
8C
88
90
90
90
90
A0
A0
A4
CC
78
C0
ENDCHAR
STARTCHAR 023C
ENCODING 572
SWIDTH 540 0
DWIDTH 9 0
BBX 6 11 1 -1
BITMAP
04
7C
CC
8C
90
90
A0
A4
CC
78
C0
ENDCHAR
STARTCHAR 023D
ENCODING 573
SWIDTH 540 0
DWIDTH 9 0
BBX 8 13 0 0
BITMAP
20
20
20
20
20
20
F8
20
20
20
20
20
3F
ENDCHAR
STARTCHAR 023E
ENCODING 574
SWIDTH 540 0
DWIDTH 9 0
BBX 7 15 1 -1
BITMAP
04
FE
18
18
18
10
10
10
10
30
30
30
50
50
C0
ENDCHAR
STARTCHAR 023F
ENCODING 575
SWIDTH 540 0
DWIDTH 9 0
BBX 6 13 1 -4
BITMAP
78
CC
C0
40
38
0C
04
C4
F8
40
40
30
1C
ENDCHAR
STARTCHAR 0240
ENCODING 576
SWIDTH 540 0
DWIDTH 9 0
BBX 6 13 1 -4
BITMAP
FC
04
0C
08
10
30
20
60
40
C0
60
38
0C
ENDCHAR
STARTCHAR 0241
ENCODING 577
SWIDTH 540 0
DWIDTH 9 0
BBX 6 13 1 0
BITMAP
78
CC
84
04
04
04
08
18
10
10
10
10
10
ENDCHAR
STARTCHAR 0242
ENCODING 578
SWIDTH 540 0
DWIDTH 9 0
BBX 6 9 1 0
BITMAP
78
CC
84
04
0C
18
10
10
10
ENDCHAR
STARTCHAR 0243
ENCODING 579
SWIDTH 540 0
DWIDTH 9 0
BBX 8 13 0 0
BITMAP
7C
46
42
42
42
46
7C
46
43
F3
43
46
7C
ENDCHAR
STARTCHAR 0244
ENCODING 580
SWIDTH 540 0
DWIDTH 9 0
BBX 7 13 1 0
BITMAP
84
84
84
84
84
84
FE
84
84
84
C4
4C
78
ENDCHAR
STARTCHAR 0245
ENCODING 581
SWIDTH 540 0
DWIDTH 9 0
BBX 7 13 1 0
BITMAP
30
30
38
28
28
68
48
4C
44
C4
C4
84
86
ENDCHAR
STARTCHAR 0246
ENCODING 582
SWIDTH 540 0
DWIDTH 9 0
BBX 6 15 1 -1
BITMAP
04
FC
C8
C8
C8
D0
D0
F8
D0
E0
E0
E0
C0
FC
C0
ENDCHAR
STARTCHAR 0247
ENCODING 583
SWIDTH 540 0
DWIDTH 9 0
BBX 7 11 1 -1
BITMAP
04
7C
CC
8C
96
FE
A0
A6
C4
78
C0
ENDCHAR
STARTCHAR 0248
ENCODING 584
SWIDTH 540 0
DWIDTH 9 0
BBX 7 13 1 0
BITMAP
04
04
04
04
04
04
1E
04
04
04
84
CC
78
ENDCHAR
STARTCHAR 0249
ENCODING 585
SWIDTH 540 0
DWIDTH 9 0
BBX 6 16 1 -4
BITMAP
18
18
00
78
08
08
08
3C
08
08
08
08
08
08
18
F0
ENDCHAR
STARTCHAR 024A
ENCODING 586
SWIDTH 540 0
DWIDTH 9 0
BBX 8 17 1 -4
BITMAP
74
CC
84
84
84
84
84
84
84
84
84
CC
74
04
04
06
03
ENDCHAR
STARTCHAR 024B
ENCODING 587
SWIDTH 540 0
DWIDTH 9 0
BBX 8 13 1 -4
BITMAP
74
CC
84
84
84
84
84
CC
74
04
04
06
03
ENDCHAR
STARTCHAR 024C
ENCODING 588
SWIDTH 540 0
DWIDTH 9 0
BBX 8 13 0 0
BITMAP
7C
46
42
43
43
42
42
FC
48
44
46
42
43
ENDCHAR
STARTCHAR 024D
ENCODING 589
SWIDTH 540 0
DWIDTH 9 0
BBX 7 9 1 0
BITMAP
5C
66
66
40
F0
40
40
40
40
ENDCHAR
STARTCHAR 024E
ENCODING 590
SWIDTH 540 0
DWIDTH 9 0
BBX 7 13 1 0
BITMAP
86
C4
4C
FE
68
38
30
30
10
10
10
10
10
ENDCHAR
STARTCHAR 024F
ENCODING 591
SWIDTH 540 0
DWIDTH 9 0
BBX 7 13 1 -4
BITMAP
86
C4
44
4C
FE
68
28
38
30
10
30
20
20
ENDCHAR
STARTCHAR 0250
ENCODING 592
SWIDTH 540 0
DWIDTH 9 0
BBX 7 9 1 0
BITMAP
BC
C4
86
84
FC
80
84
C4
78
ENDCHAR
STARTCHAR 0251
ENCODING 593
SWIDTH 540 0
DWIDTH 9 0
BBX 6 9 1 0
BITMAP
74
CC
84
84
84
84
84
CC
74
ENDCHAR
STARTCHAR 0252
ENCODING 594
SWIDTH 540 0
DWIDTH 9 0
BBX 7 9 1 0
BITMAP
B8
CC
C4
86
86
86
C4
CC
B8
ENDCHAR
STARTCHAR 0253
ENCODING 595
SWIDTH 540 0
DWIDTH 9 0
BBX 7 13 1 0
BITMAP
60
C0
80
80
B8
CC
C4
86
86
86
C4
CC
B8
ENDCHAR
STARTCHAR 0254
ENCODING 596
SWIDTH 540 0
DWIDTH 9 0
BBX 7 9 1 0
BITMAP
78
CC
84
06
06
06
84
CC
78
ENDCHAR
STARTCHAR 0255
ENCODING 597
SWIDTH 540 0
DWIDTH 9 0
BBX 7 9 0 0
BITMAP
3C
66
42
40
40
5E
72
62
FE
ENDCHAR
STARTCHAR 0256
ENCODING 598
SWIDTH 540 0
DWIDTH 9 0
BBX 8 17 1 -4
BITMAP
04
04
04
04
74
CC
84
84
84
84
84
CC
74
04
04
06
03
ENDCHAR
STARTCHAR 0257
ENCODING 599
SWIDTH 540 0
DWIDTH 9 0
BBX 8 13 1 0
BITMAP
03
06
04
04
74
CC
84
84
84
84
84
CC
74
ENDCHAR
STARTCHAR 0258
ENCODING 600
SWIDTH 540 0
DWIDTH 9 0
BBX 7 9 1 0
BITMAP
78
CC
84
86
FE
06
84
CC
78
ENDCHAR
STARTCHAR 0259
ENCODING 601
SWIDTH 540 0
DWIDTH 9 0
BBX 7 9 1 0
BITMAP
78
CC
84
06
FE
86
84
CC
78
ENDCHAR
STARTCHAR 025A
ENCODING 602
SWIDTH 540 0
DWIDTH 9 0
BBX 8 9 1 0
BITMAP
70
D8
88
0E
FA
8A
89
D8
70
ENDCHAR
STARTCHAR 025B
ENCODING 603
SWIDTH 540 0
DWIDTH 9 0
BBX 7 9 1 0
BITMAP
78
CC
84
C0
70
C0
80
C6
7C
ENDCHAR
STARTCHAR 025C
ENCODING 604
SWIDTH 540 0
DWIDTH 9 0
BBX 7 9 1 0
BITMAP
78
C4
C4
04
38
04
06
C4
7C
ENDCHAR
STARTCHAR 025D
ENCODING 605
SWIDTH 540 0
DWIDTH 9 0
BBX 8 9 1 0
BITMAP
76
DA
8A
0B
30
08
08
C8
70
ENDCHAR
STARTCHAR 025E
ENCODING 606
SWIDTH 540 0
DWIDTH 9 0
BBX 7 9 1 0
BITMAP
78
C4
84
84
98
84
86
C4
7C
ENDCHAR
STARTCHAR 025F
ENCODING 607
SWIDTH 540 0
DWIDTH 9 0
BBX 6 13 1 -4
BITMAP
78
08
08
08
3C
08
08
08
08
08
08
18
F0
ENDCHAR
STARTCHAR 0260
ENCODING 608
SWIDTH 540 0
DWIDTH 9 0
BBX 8 17 1 -4
BITMAP
03
06
06
04
74
CC
84
84
84
84
84
CC
74
04
04
0C
78
ENDCHAR
STARTCHAR 0261
ENCODING 609
SWIDTH 540 0
DWIDTH 9 0
BBX 6 13 1 -4
BITMAP
74
CC
84
84
84
84
84
CC
74
04
04
0C
78
ENDCHAR
STARTCHAR 0262
ENCODING 610
SWIDTH 540 0
DWIDTH 9 0
BBX 6 9 1 0
BITMAP
78
CC
84
80
9C
84
84
CC
78
ENDCHAR
STARTCHAR 0263
ENCODING 611
SWIDTH 540 0
DWIDTH 9 0
BBX 7 13 1 -4
BITMAP
86
44
48
68
38
30
10
30
30
38
28
28
30
ENDCHAR
STARTCHAR 0264
ENCODING 612
SWIDTH 540 0
DWIDTH 9 0
BBX 7 9 1 0
BITMAP
CE
38
30
38
28
48
48
68
38
ENDCHAR
STARTCHAR 0265
ENCODING 613
SWIDTH 540 0
DWIDTH 9 0
BBX 6 13 1 -4
BITMAP
84
84
84
84
84
84
C4
CC
74
04
04
04
04
ENDCHAR
STARTCHAR 0266
ENCODING 614
SWIDTH 540 0
DWIDTH 9 0
BBX 6 13 1 0
BITMAP
60
C0
80
80
B8
CC
C4
84
84
84
84
84
84
ENDCHAR
STARTCHAR 0267
ENCODING 615
SWIDTH 540 0
DWIDTH 9 0
BBX 6 17 1 -4
BITMAP
60
C0
80
80
B8
CC
C4
84
84
84
84
84
84
04
04
0C
18
ENDCHAR
STARTCHAR 0268
ENCODING 616
SWIDTH 540 0
DWIDTH 9 0
BBX 6 12 1 0
BITMAP
30
30
00
70
10
10
10
7C
10
10
10
FC
ENDCHAR
STARTCHAR 0269
ENCODING 617
SWIDTH 540 0
DWIDTH 9 0
BBX 6 9 1 0
BITMAP
F0
10
10
10
10
10
10
10
0C
ENDCHAR
STARTCHAR 026A
ENCODING 618
SWIDTH 540 0
DWIDTH 9 0
BBX 4 9 2 0
BITMAP
F0
20
20
20
20
20
20
20
F0
ENDCHAR
STARTCHAR 026B
ENCODING 619
SWIDTH 540 0
DWIDTH 9 0
BBX 6 13 1 0
BITMAP
F0
10
10
10
10
38
7C
58
10
10
10
10
0C
ENDCHAR
STARTCHAR 026C
ENCODING 620
SWIDTH 540 0
DWIDTH 9 0
BBX 6 13 1 0
BITMAP
F0
10
10
10
10
70
D0
38
10
10
10
10
0C
ENDCHAR
STARTCHAR 026D
ENCODING 621
SWIDTH 540 0
DWIDTH 9 0
BBX 6 17 1 -4
BITMAP
F0
10
10
10
10
10
10
10
10
10
10
10
10
10
10
18
0C
ENDCHAR
STARTCHAR 026E
ENCODING 622
SWIDTH 540 0
DWIDTH 9 0
BBX 8 17 0 -4
BITMAP
C0
40
40
40
7E
46
44
4C
48
4C
46
42
03
03
42
66
3C
ENDCHAR
STARTCHAR 026F
ENCODING 623
SWIDTH 540 0
DWIDTH 9 0
BBX 7 9 1 0
BITMAP
96
96
96
96
96
96
96
B6
EC
ENDCHAR
STARTCHAR 0270
ENCODING 624
SWIDTH 540 0
DWIDTH 9 0
BBX 7 13 1 -4
BITMAP
96
96
96
96
96
96
96
B6
DE
06
06
06
06
ENDCHAR
STARTCHAR 0271
ENCODING 625
SWIDTH 540 0
DWIDTH 9 0
BBX 7 13 1 -4
BITMAP
EC
96
96
96
96
96
96
96
96
06
06
04
18
ENDCHAR
STARTCHAR 0272
ENCODING 626
SWIDTH 540 0
DWIDTH 9 0
BBX 8 13 -1 -4
BITMAP
2E
33
31
21
21
21
21
21
21
20
20
60
C0
ENDCHAR
STARTCHAR 0273
ENCODING 627
SWIDTH 540 0
DWIDTH 9 0
BBX 8 13 1 -4
BITMAP
B8
CC
C4
84
84
84
84
84
84
04
04
06
03
ENDCHAR
STARTCHAR 0274
ENCODING 628
SWIDTH 540 0
DWIDTH 9 0
BBX 6 9 1 0
BITMAP
C4
C4
A4
A4
94
94
8C
8C
84
ENDCHAR
STARTCHAR 0275
ENCODING 629
SWIDTH 540 0
DWIDTH 9 0
BBX 7 9 1 0
BITMAP
78
CC
84
86
FE
86
84
CC
78
ENDCHAR
STARTCHAR 0276
ENCODING 630
SWIDTH 540 0
DWIDTH 9 0
BBX 7 9 1 0
BITMAP
7E
D0
90
90
9C
90
90
D0
7E
ENDCHAR
STARTCHAR 0277
ENCODING 631
SWIDTH 540 0
DWIDTH 9 0
BBX 7 9 1 0
BITMAP
78
4C
84
96
92
92
96
B4
6C
ENDCHAR
STARTCHAR 0278
ENCODING 632
SWIDTH 540 0
DWIDTH 9 0
BBX 7 17 1 -4
BITMAP
10
10
10
10
7C
D4
96
92
92
92
96
D4
7C
10
10
10
10
ENDCHAR
STARTCHAR 0279
ENCODING 633
SWIDTH 540 0
DWIDTH 9 0
BBX 5 9 1 0
BITMAP
08
08
08
08
08
08
88
98
68
ENDCHAR
STARTCHAR 027A
ENCODING 634
SWIDTH 540 0
DWIDTH 9 0
BBX 5 13 1 0
BITMAP
08
08
08
08
08
08
08
08
08
08
88
98
68
ENDCHAR
STARTCHAR 027B
ENCODING 635
SWIDTH 540 0
DWIDTH 9 0
BBX 7 13 1 -4
BITMAP
08
08
08
08
08
08
88
98
68
08
08
0C
06
ENDCHAR
STARTCHAR 027C
ENCODING 636
SWIDTH 540 0
DWIDTH 9 0
BBX 6 13 2 -4
BITMAP
B8
CC
CC
80
80
80
80
80
80
80
80
80
80
ENDCHAR
STARTCHAR 027D
ENCODING 637
SWIDTH 540 0
DWIDTH 9 0
BBX 6 13 2 -4
BITMAP
B8
CC
CC
80
80
80
80
80
80
80
80
C0
60
ENDCHAR
STARTCHAR 027E
ENCODING 638
SWIDTH 540 0
DWIDTH 9 0
BBX 6 9 2 0
BITMAP
78
4C
C0
80
80
80
80
80
80
ENDCHAR
STARTCHAR 027F
ENCODING 639
SWIDTH 540 0
DWIDTH 9 0
BBX 3 13 2 -4
BITMAP
C0
60
20
20
20
20
20
20
20
20
20
20
20
ENDCHAR
STARTCHAR 0280
ENCODING 640
SWIDTH 540 0
DWIDTH 9 0
BBX 7 9 1 0
BITMAP
FC
84
86
84
FC
98
88
8C
86
ENDCHAR
STARTCHAR 0281
ENCODING 641
SWIDTH 540 0
DWIDTH 9 0
BBX 7 9 1 0
BITMAP
86
8C
88
98
FC
84
86
84
FC
ENDCHAR
STARTCHAR 0282
ENCODING 642
SWIDTH 540 0
DWIDTH 9 0
BBX 6 13 1 -4
BITMAP
78
C4
C0
40
38
0C
84
C4
B8
80
80
C0
60
ENDCHAR
STARTCHAR 0283
ENCODING 643
SWIDTH 540 0
DWIDTH 9 0
BBX 6 17 1 -4
BITMAP
0C
18
10
10
10
10
10
10
10
10
10
10
10
10
30
20
E0
ENDCHAR
STARTCHAR 0284
ENCODING 644
SWIDTH 540 0
DWIDTH 9 0
BBX 6 17 1 -4
BITMAP
0C
18
10
10
30
10
10
10
7C
10
10
10
10
10
10
30
E0
ENDCHAR
STARTCHAR 0285
ENCODING 645
SWIDTH 540 0
DWIDTH 9 0
BBX 6 13 1 -4
BITMAP
E0
20
30
10
10
10
10
10
10
10
10
18
0C
ENDCHAR
STARTCHAR 0286
ENCODING 646
SWIDTH 540 0
DWIDTH 9 0
BBX 7 17 1 -4
BITMAP
0C
18
10
30
30
30
30
30
30
30
30
30
F0
B8
BC
A6
E2
ENDCHAR
STARTCHAR 0287
ENCODING 647
SWIDTH 540 0
DWIDTH 9 0
BBX 6 12 1 -3
BITMAP
E0
30
10
10
10
10
10
10
FC
10
10
10
ENDCHAR
STARTCHAR 0288
ENCODING 648
SWIDTH 540 0
DWIDTH 9 0
BBX 6 16 1 -4
BITMAP
30
30
30
FC
30
30
30
30
30
30
30
30
30
30
18
0C
ENDCHAR
STARTCHAR 0289
ENCODING 649
SWIDTH 540 0
DWIDTH 9 0
BBX 7 9 1 0
BITMAP
84
84
84
84
FE
84
C4
4C
78
ENDCHAR
STARTCHAR 028A
ENCODING 650
SWIDTH 540 0
DWIDTH 9 0
BBX 6 9 1 0
BITMAP
EC
68
C4
84
84
84
C4
4C
78
ENDCHAR
STARTCHAR 028B
ENCODING 651
SWIDTH 540 0
DWIDTH 9 0
BBX 6 9 1 0
BITMAP
98
8C
84
84
84
84
C4
4C
78
ENDCHAR
STARTCHAR 028C
ENCODING 652
SWIDTH 540 0
DWIDTH 9 0
BBX 7 9 1 0
BITMAP
30
30
28
68
48
4C
44
C4
86
ENDCHAR
STARTCHAR 028D
ENCODING 653
SWIDTH 540 0
DWIDTH 9 0
BBX 7 9 1 0
BITMAP
4C
4C
6C
AC
AC
B4
B6
B2
92
ENDCHAR
STARTCHAR 028E
ENCODING 654
SWIDTH 540 0
DWIDTH 9 0
BBX 7 13 1 0
BITMAP
18
18
10
10
30
30
28
68
48
4C
44
C4
86
ENDCHAR
STARTCHAR 028F
ENCODING 655
SWIDTH 540 0
DWIDTH 9 0
BBX 7 9 1 0
BITMAP
C6
4C
68
38
30
10
10
10
10
ENDCHAR
STARTCHAR 0290
ENCODING 656
SWIDTH 540 0
DWIDTH 9 0
BBX 8 13 1 -4
BITMAP
FC
04
08
18
10
20
40
C0
FC
04
04
02
03
ENDCHAR
STARTCHAR 0291
ENCODING 657
SWIDTH 540 0
DWIDTH 9 0
BBX 7 11 1 -2
BITMAP
FC
04
08
18
10
20
4E
D2
FE
20
20
ENDCHAR
STARTCHAR 0292
ENCODING 658
SWIDTH 540 0
DWIDTH 9 0
BBX 7 13 1 -4
BITMAP
FC
0C
18
10
20
78
0C
04
06
06
84
4C
78
ENDCHAR
STARTCHAR 0293
ENCODING 659
SWIDTH 540 0
DWIDTH 9 0
BBX 8 13 1 -4
BITMAP
FC
0C
18
10
20
78
0C
04
06
76
8C
CE
7B
ENDCHAR
STARTCHAR 0294
ENCODING 660
SWIDTH 540 0
DWIDTH 9 0
BBX 6 13 1 0
BITMAP
78
CC
84
04
04
04
08
18
10
10
10
10
10
ENDCHAR
STARTCHAR 0295
ENCODING 661
SWIDTH 540 0
DWIDTH 9 0
BBX 6 13 1 0
BITMAP
78
4C
C4
80
C0
C0
60
20
30
10
10
10
10
ENDCHAR
STARTCHAR 0296
ENCODING 662
SWIDTH 540 0
DWIDTH 9 0
BBX 6 13 1 0
BITMAP
10
10
10
10
10
18
08
04
04
04
84
CC
78
ENDCHAR
STARTCHAR 0297
ENCODING 663
SWIDTH 540 0
DWIDTH 9 0
BBX 6 13 1 -4
BITMAP
78
CC
84
80
80
80
80
80
80
80
84
CC
78
ENDCHAR
STARTCHAR 0298
ENCODING 664
SWIDTH 540 0
DWIDTH 9 0
BBX 7 13 1 0
BITMAP
78
CC
84
86
86
86
B6
96
86
86
84
CC
78
ENDCHAR
STARTCHAR 0299
ENCODING 665
SWIDTH 540 0
DWIDTH 9 0
BBX 7 9 1 0
BITMAP
F8
8C
84
84
F8
84
86
86
FC
ENDCHAR
STARTCHAR 029A
ENCODING 666
SWIDTH 540 0
DWIDTH 9 0
BBX 7 9 1 0
BITMAP
78
CC
84
C6
76
C6
84
CC
78
ENDCHAR
STARTCHAR 029B
ENCODING 667
SWIDTH 540 0
DWIDTH 9 0
BBX 8 13 1 0
BITMAP
03
02
04
04
7C
CC
84
80
9C
84
84
CC
78
ENDCHAR
STARTCHAR 029C
ENCODING 668
SWIDTH 540 0
DWIDTH 9 0
BBX 6 9 1 0
BITMAP
84
84
84
84
FC
84
84
84
84
ENDCHAR
STARTCHAR 029D
ENCODING 669
SWIDTH 540 0
DWIDTH 9 0
BBX 6 16 2 -4
BITMAP
30
30
00
F0
10
10
10
10
10
10
10
F0
98
98
BC
E4
ENDCHAR
STARTCHAR 029E
ENCODING 670
SWIDTH 540 0
DWIDTH 9 0
BBX 6 13 1 -4
BITMAP
C4
44
24
34
1C
34
24
44
C4
04
04
04
04
ENDCHAR
STARTCHAR 029F
ENCODING 671
SWIDTH 540 0
DWIDTH 9 0
BBX 6 9 2 0
BITMAP
80
80
80
80
80
80
80
80
FC
ENDCHAR
STARTCHAR 02A0
ENCODING 672
SWIDTH 540 0
DWIDTH 9 0
BBX 8 17 1 -4
BITMAP
03
06
06
04
74
CC
84
84
84
84
84
CC
74
04
04
04
04
ENDCHAR
STARTCHAR 02A1
ENCODING 673
SWIDTH 540 0
DWIDTH 9 0
BBX 6 13 1 0
BITMAP
78
CC
84
04
04
0C
08
18
10
78
10
10
10
ENDCHAR
STARTCHAR 02A2
ENCODING 674
SWIDTH 540 0
DWIDTH 9 0
BBX 6 13 1 0
BITMAP
78
4C
C4
80
C0
40
60
20
30
78
10
10
10
ENDCHAR
STARTCHAR 02A3
ENCODING 675
SWIDTH 540 0
DWIDTH 9 0
BBX 7 13 1 0
BITMAP
20
20
20
20
FE
A2
A4
A4
A8
A8
A8
B0
FE
ENDCHAR
STARTCHAR 02A4
ENCODING 676
SWIDTH 540 0
DWIDTH 9 0
BBX 7 17 1 -4
BITMAP
20
20
20
20
FC
A4
A4
A4
A8
AC
A4
A2
E2
02
12
14
0C
ENDCHAR
STARTCHAR 02A5
ENCODING 677
SWIDTH 540 0
DWIDTH 9 0
BBX 7 15 1 -2
BITMAP
20
20
20
20
FE
A2
A4
A4
A8
A8
AE
B6
FE
08
08
ENDCHAR
STARTCHAR 02A6
ENCODING 678
SWIDTH 540 0
DWIDTH 9 0
BBX 7 12 1 0
BITMAP
40
40
40
EC
54
52
58
4C
44
42
42
3C
ENDCHAR
STARTCHAR 02A7
ENCODING 679
SWIDTH 540 0
DWIDTH 9 0
BBX 7 17 1 -4
BITMAP
06
44
4C
48
F8
48
48
48
48
48
48
48
28
08
08
08
30
ENDCHAR
STARTCHAR 02A8
ENCODING 680
SWIDTH 540 0
DWIDTH 9 0
BBX 7 12 1 0
BITMAP
40
40
40
EC
54
52
50
50
5C
52
72
2C
ENDCHAR
STARTCHAR 02A9
ENCODING 681
SWIDTH 540 0
DWIDTH 9 0
BBX 7 17 1 -4
BITMAP
20
40
40
40
F4
5C
52
52
52
52
52
52
52
02
02
04
0C
ENDCHAR
STARTCHAR 02AA
ENCODING 682
SWIDTH 540 0
DWIDTH 9 0
BBX 8 13 0 0
BITMAP
C0
40
40
40
46
4A
49
4C
46
42
41
21
3E
ENDCHAR
STARTCHAR 02AB
ENCODING 683
SWIDTH 540 0
DWIDTH 9 0
BBX 8 13 0 0
BITMAP
C0
40
40
40
4F
41
42
42
44
44
44
28
3F
ENDCHAR
STARTCHAR 02AC
ENCODING 684
SWIDTH 540 0
DWIDTH 9 0
BBX 7 13 1 0
BITMAP
92
B6
B4
AC
6C
4C
00
92
B6
B4
AC
6C
4C
ENDCHAR
STARTCHAR 02AD
ENCODING 685
SWIDTH 540 0
DWIDTH 9 0
BBX 6 10 1 1
BITMAP
FC
84
84
84
00
00
FC
84
84
84
ENDCHAR
STARTCHAR 02AE
ENCODING 686
SWIDTH 540 0
DWIDTH 9 0
BBX 8 13 -1 -4
BITMAP
C1
61
21
21
21
21
31
33
1D
01
01
01
01
ENDCHAR
STARTCHAR 02AF
ENCODING 687
SWIDTH 540 0
DWIDTH 9 0
BBX 10 13 -1 -4
BITMAP
C100
6100
2100
2100
2100
2100
3100
3300
1D00
0100
0100
0180
00C0
ENDCHAR
STARTCHAR 02B0
ENCODING 688
SWIDTH 540 0
DWIDTH 9 0
BBX 5 9 2 6
BITMAP
80
80
80
F0
98
98
98
98
98
ENDCHAR
STARTCHAR 02B1
ENCODING 689
SWIDTH 540 0
DWIDTH 9 0
BBX 5 9 2 6
BITMAP
40
80
80
F0
98
98
98
98
98
ENDCHAR
STARTCHAR 02B2
ENCODING 690
SWIDTH 540 0
DWIDTH 9 0
BBX 4 12 2 3
BITMAP
30
30
00
70
30
30
30
30
30
30
30
E0
ENDCHAR
STARTCHAR 02B3
ENCODING 691
SWIDTH 540 0
DWIDTH 9 0
BBX 4 6 3 6
BITMAP
E0
90
80
80
80
80
ENDCHAR
STARTCHAR 02B4
ENCODING 692
SWIDTH 540 0
DWIDTH 9 0
BBX 4 6 2 6
BITMAP
10
10
10
10
B0
D0
ENDCHAR
STARTCHAR 02B5
ENCODING 693
SWIDTH 540 0
DWIDTH 9 0
BBX 5 9 2 3
BITMAP
10
10
10
10
B0
D0
10
10
08
ENDCHAR
STARTCHAR 02B6
ENCODING 694
SWIDTH 540 0
DWIDTH 9 0
BBX 5 6 2 6
BITMAP
98
B0
F0
98
98
F0
ENDCHAR
STARTCHAR 02B7
ENCODING 695
SWIDTH 540 0
DWIDTH 9 0
BBX 5 6 2 6
BITMAP
A8
A8
E8
D0
D0
50
ENDCHAR
STARTCHAR 02B8
ENCODING 696
SWIDTH 540 0
DWIDTH 9 0
BBX 5 9 2 3
BITMAP
98
90
D0
50
60
60
20
60
40
ENDCHAR
STARTCHAR 02B9
ENCODING 697
SWIDTH 540 0
DWIDTH 9 0
BBX 3 6 3 8
BITMAP
60
60
40
C0
C0
80
ENDCHAR
STARTCHAR 02BA
ENCODING 698
SWIDTH 540 0
DWIDTH 9 0
BBX 6 6 1 8
BITMAP
24
64
6C
48
48
D8
ENDCHAR
STARTCHAR 02BB
ENCODING 699
SWIDTH 540 0
DWIDTH 9 0
BBX 3 6 3 7
BITMAP
60
40
80
C0
E0
C0
ENDCHAR
STARTCHAR 02BC
ENCODING 700
SWIDTH 540 0
DWIDTH 9 0
BBX 3 7 3 7
BITMAP
C0
E0
C0
40
40
80
80
ENDCHAR
STARTCHAR 02BD
ENCODING 701
SWIDTH 540 0
DWIDTH 9 0
BBX 3 7 3 7
BITMAP
C0
E0
C0
80
40
60
40
ENDCHAR
STARTCHAR 02BE
ENCODING 702
SWIDTH 540 0
DWIDTH 9 0
BBX 3 6 3 8
BITMAP
C0
40
20
20
60
C0
ENDCHAR
STARTCHAR 02BF
ENCODING 703
SWIDTH 540 0
DWIDTH 9 0
BBX 3 6 3 8
BITMAP
60
C0
80
80
80
60
ENDCHAR
STARTCHAR 02C0
ENCODING 704
SWIDTH 540 0
DWIDTH 9 0
BBX 5 6 2 6
BITMAP
70
98
18
30
20
20
ENDCHAR
STARTCHAR 02C1
ENCODING 705
SWIDTH 540 0
DWIDTH 9 0
BBX 5 6 2 6
BITMAP
70
98
80
40
20
20
ENDCHAR
STARTCHAR 02C2
ENCODING 706
SWIDTH 540 0
DWIDTH 9 0
BBX 3 3 3 10
BITMAP
60
80
60
ENDCHAR
STARTCHAR 02C3
ENCODING 707
SWIDTH 540 0
DWIDTH 9 0
BBX 4 3 2 10
BITMAP
C0
30
E0
ENDCHAR
STARTCHAR 02C4
ENCODING 708
SWIDTH 540 0
DWIDTH 9 0
BBX 4 3 2 10
BITMAP
60
50
90
ENDCHAR
STARTCHAR 02C5
ENCODING 709
SWIDTH 540 0
DWIDTH 9 0
BBX 4 3 2 10
BITMAP
90
50
60
ENDCHAR
STARTCHAR 02C6
ENCODING 710
SWIDTH 540 0
DWIDTH 9 0
BBX 5 3 2 10
BITMAP
60
D0
98
ENDCHAR
STARTCHAR 02C7
ENCODING 711
SWIDTH 540 0
DWIDTH 9 0
BBX 5 3 2 10
BITMAP
98
D0
60
ENDCHAR
STARTCHAR 02C8
ENCODING 712
SWIDTH 540 0
DWIDTH 9 0
BBX 1 6 4 8
BITMAP
80
80
80
80
80
80
ENDCHAR
STARTCHAR 02C9
ENCODING 713
SWIDTH 540 0
DWIDTH 9 0
BBX 5 1 2 11
BITMAP
F8
ENDCHAR
STARTCHAR 02CA
ENCODING 714
SWIDTH 540 0
DWIDTH 9 0
BBX 3 3 3 10
BITMAP
20
60
C0
ENDCHAR
STARTCHAR 02CB
ENCODING 715
SWIDTH 540 0
DWIDTH 9 0
BBX 3 3 2 10
BITMAP
C0
40
20
ENDCHAR
STARTCHAR 02CC
ENCODING 716
SWIDTH 540 0
DWIDTH 9 0
BBX 1 6 4 -4
BITMAP
80
80
80
80
80
80
ENDCHAR
STARTCHAR 02CD
ENCODING 717
SWIDTH 540 0
DWIDTH 9 0
BBX 5 1 2 -3
BITMAP
F8
ENDCHAR
STARTCHAR 02CE
ENCODING 718
SWIDTH 540 0
DWIDTH 9 0
BBX 3 3 3 -4
BITMAP
C0
40
20
ENDCHAR
STARTCHAR 02CF
ENCODING 719
SWIDTH 540 0
DWIDTH 9 0
BBX 3 3 2 -4
BITMAP
20
60
C0
ENDCHAR
STARTCHAR 02D0
ENCODING 720
SWIDTH 540 0
DWIDTH 9 0
BBX 3 9 3 0
BITMAP
E0
C0
40
00
00
00
40
C0
E0
ENDCHAR
STARTCHAR 02D1
ENCODING 721
SWIDTH 540 0
DWIDTH 9 0
BBX 3 3 3 6
BITMAP
E0
C0
40
ENDCHAR
STARTCHAR 02D2
ENCODING 722
SWIDTH 540 0
DWIDTH 9 0
BBX 1 3 4 3
BITMAP
80
80
80
ENDCHAR
STARTCHAR 02D3
ENCODING 723
SWIDTH 540 0
DWIDTH 9 0
BBX 2 3 3 3
BITMAP
40
80
C0
ENDCHAR
STARTCHAR 02D4
ENCODING 724
SWIDTH 540 0
DWIDTH 9 0
BBX 3 4 3 3
BITMAP
40
40
40
E0
ENDCHAR
STARTCHAR 02D5
ENCODING 725
SWIDTH 540 0
DWIDTH 9 0
BBX 3 4 3 2
BITMAP
E0
40
40
40
ENDCHAR
STARTCHAR 02D6
ENCODING 726
SWIDTH 540 0
DWIDTH 9 0
BBX 3 3 3 3
BITMAP
40
E0
40
ENDCHAR
STARTCHAR 02D7
ENCODING 727
SWIDTH 540 0
DWIDTH 9 0
BBX 3 1 3 4
BITMAP
E0
ENDCHAR
STARTCHAR 02D8
ENCODING 728
SWIDTH 540 0
DWIDTH 9 0
BBX 5 2 2 10
BITMAP
98
F0
ENDCHAR
STARTCHAR 02D9
ENCODING 729
SWIDTH 540 0
DWIDTH 9 0
BBX 2 2 3 10
BITMAP
C0
C0
ENDCHAR
STARTCHAR 02DA
ENCODING 730
SWIDTH 540 0
DWIDTH 9 0
BBX 3 3 3 10
BITMAP
C0
A0
E0
ENDCHAR
STARTCHAR 02DB
ENCODING 731
SWIDTH 540 0
DWIDTH 9 0
BBX 2 4 3 -4
BITMAP
40
80
80
C0
ENDCHAR
STARTCHAR 02DC
ENCODING 732
SWIDTH 540 0
DWIDTH 9 0
BBX 6 3 1 10
BITMAP
20
74
98
ENDCHAR
STARTCHAR 02DD
ENCODING 733
SWIDTH 540 0
DWIDTH 9 0
BBX 6 3 2 10
BITMAP
2C
48
90
ENDCHAR
STARTCHAR 02DE
ENCODING 734
SWIDTH 540 0
DWIDTH 9 0
BBX 10 6 -2 1
BITMAP
0C00
1C00
6400
8400
0640
0380
ENDCHAR
STARTCHAR 02DF
ENCODING 735
SWIDTH 540 0
DWIDTH 9 0
BBX 4 3 2 10
BITMAP
D0
60
D0
ENDCHAR
STARTCHAR 02E0
ENCODING 736
SWIDTH 540 0
DWIDTH 9 0
BBX 5 9 2 3
BITMAP
98
D0
70
60
20
60
60
60
60
ENDCHAR
STARTCHAR 02E1
ENCODING 737
SWIDTH 540 0
DWIDTH 9 0
BBX 4 9 2 6
BITMAP
E0
20
20
20
20
20
20
20
30
ENDCHAR
STARTCHAR 02E2
ENCODING 738
SWIDTH 540 0
DWIDTH 9 0
BBX 5 6 2 6
BITMAP
F0
98
C0
30
98
F0
ENDCHAR
STARTCHAR 02E3
ENCODING 739
SWIDTH 540 0
DWIDTH 9 0
BBX 5 6 2 6
BITMAP
98
50
60
60
50
98
ENDCHAR
STARTCHAR 02E4
ENCODING 740
SWIDTH 540 0
DWIDTH 9 0
BBX 5 9 2 6
BITMAP
70
98
80
80
C0
60
20
20
20
ENDCHAR
STARTCHAR 02E5
ENCODING 741
SWIDTH 540 0
DWIDTH 9 0
BBX 5 13 2 0
BITMAP
F8
08
08
08
08
08
08
08
08
08
08
08
08
ENDCHAR
STARTCHAR 02E6
ENCODING 742
SWIDTH 540 0
DWIDTH 9 0
BBX 5 13 2 0
BITMAP
08
08
08
F8
08
08
08
08
08
08
08
08
08
ENDCHAR
STARTCHAR 02E7
ENCODING 743
SWIDTH 540 0
DWIDTH 9 0
BBX 5 13 2 0
BITMAP
08
08
08
08
08
08
F8
08
08
08
08
08
08
ENDCHAR
STARTCHAR 02E8
ENCODING 744
SWIDTH 540 0
DWIDTH 9 0
BBX 5 13 2 0
BITMAP
08
08
08
08
08
08
08
08
08
F8
08
08
08
ENDCHAR
STARTCHAR 02E9
ENCODING 745
SWIDTH 540 0
DWIDTH 9 0
BBX 5 12 2 0
BITMAP
08
08
08
08
08
08
08
08
08
08
08
F8
ENDCHAR
STARTCHAR 02EA
ENCODING 746
SWIDTH 540 0
DWIDTH 9 0
BBX 5 6 2 0
BITMAP
80
80
80
80
80
F8
ENDCHAR
STARTCHAR 02EB
ENCODING 747
SWIDTH 540 0
DWIDTH 9 0
BBX 5 6 2 0
BITMAP
80
80
F8
80
80
80
ENDCHAR
STARTCHAR 02EC
ENCODING 748
SWIDTH 540 0
DWIDTH 9 0
BBX 5 3 2 -4
BITMAP
98
D0
60
ENDCHAR
STARTCHAR 02ED
ENCODING 749
SWIDTH 540 0
DWIDTH 9 0
BBX 6 3 1 9
BITMAP
FC
00
FC
ENDCHAR
STARTCHAR 02EE
ENCODING 750
SWIDTH 540 0
DWIDTH 9 0
BBX 6 7 1 7
BITMAP
CC
EC
EC
44
44
88
88
ENDCHAR
STARTCHAR 02EF
ENCODING 751
SWIDTH 540 0
DWIDTH 9 0
BBX 4 3 2 -4
BITMAP
90
50
60
ENDCHAR
STARTCHAR 02F0
ENCODING 752
SWIDTH 540 0
DWIDTH 9 0
BBX 4 3 2 -4
BITMAP
60
50
90
ENDCHAR
STARTCHAR 02F1
ENCODING 753
SWIDTH 540 0
DWIDTH 9 0
BBX 3 3 3 -4
BITMAP
60
80
60
ENDCHAR
STARTCHAR 02F2
ENCODING 754
SWIDTH 540 0
DWIDTH 9 0
BBX 4 3 2 -4
BITMAP
C0
30
E0
ENDCHAR
STARTCHAR 02F3
ENCODING 755
SWIDTH 540 0
DWIDTH 9 0
BBX 3 3 3 -4
BITMAP
C0
A0
E0
ENDCHAR
STARTCHAR 02F4
ENCODING 756
SWIDTH 540 0
DWIDTH 9 0
BBX 3 3 2 4
BITMAP
C0
60
20
ENDCHAR
STARTCHAR 02F5
ENCODING 757
SWIDTH 540 0
DWIDTH 9 0
BBX 6 3 1 4
BITMAP
90
48
2C
ENDCHAR
STARTCHAR 02F6
ENCODING 758
SWIDTH 540 0
DWIDTH 9 0
BBX 6 3 2 4
BITMAP
6C
D8
90
ENDCHAR
STARTCHAR 02F7
ENCODING 759
SWIDTH 540 0
DWIDTH 9 0
BBX 6 3 1 -4
BITMAP
20
74
98
ENDCHAR
STARTCHAR 02F8
ENCODING 760
SWIDTH 540 0
DWIDTH 9 0
BBX 2 8 3 4
BITMAP
C0
C0
00
00
00
00
C0
C0
ENDCHAR
STARTCHAR 02F9
ENCODING 761
SWIDTH 540 0
DWIDTH 9 0
BBX 5 5 2 8
BITMAP
F8
80
80
80
80
ENDCHAR
STARTCHAR 02FA
ENCODING 762
SWIDTH 540 0
DWIDTH 9 0
BBX 5 5 2 8
BITMAP
F8
08
08
08
08
ENDCHAR
STARTCHAR 02FB
ENCODING 763
SWIDTH 540 0
DWIDTH 9 0
BBX 5 5 2 0
BITMAP
80
80
80
80
F8
ENDCHAR
STARTCHAR 02FC
ENCODING 764
SWIDTH 540 0
DWIDTH 9 0
BBX 5 5 2 0
BITMAP
08
08
08
08
F8
ENDCHAR
STARTCHAR 02FD
ENCODING 765
SWIDTH 540 0
DWIDTH 9 0
BBX 7 3 1 -4
BITMAP
82
82
FE
ENDCHAR
STARTCHAR 02FE
ENCODING 766
SWIDTH 540 0
DWIDTH 9 0
BBX 6 3 1 -4
BITMAP
80
80
FC
ENDCHAR
STARTCHAR 02FF
ENCODING 767
SWIDTH 540 0
DWIDTH 9 0
BBX 6 3 1 -4
BITMAP
60
FC
60
ENDCHAR
STARTCHAR 0300
ENCODING 768
SWIDTH 0 0
DWIDTH 0 0
BBX 3 3 -6 10
BITMAP
80
C0
60
ENDCHAR
STARTCHAR 0301
ENCODING 769
SWIDTH 0 0
DWIDTH 0 0
BBX 3 3 -5 10
BITMAP
60
40
80
ENDCHAR
STARTCHAR 0302
ENCODING 770
SWIDTH 0 0
DWIDTH 0 0
BBX 5 3 -7 10
BITMAP
30
58
C8
ENDCHAR
STARTCHAR 0303
ENCODING 771
SWIDTH 0 0
DWIDTH 0 0
BBX 6 3 -7 10
BITMAP
40
EC
98
ENDCHAR
STARTCHAR 0304
ENCODING 772
SWIDTH 0 0
DWIDTH 0 0
BBX 5 1 -7 11
BITMAP
F8
ENDCHAR
STARTCHAR 0305
ENCODING 773
SWIDTH 0 0
DWIDTH 0 0
BBX 9 1 -9 11
BITMAP
FF80
ENDCHAR
STARTCHAR 0306
ENCODING 774
SWIDTH 0 0
DWIDTH 0 0
BBX 5 2 -7 10
BITMAP
C8
78
ENDCHAR
STARTCHAR 0307
ENCODING 775
SWIDTH 0 0
DWIDTH 0 0
BBX 2 2 -5 10
BITMAP
C0
C0
ENDCHAR
STARTCHAR 0308
ENCODING 776
SWIDTH 0 0
DWIDTH 0 0
BBX 6 2 -7 10
BITMAP
DC
C8
ENDCHAR
STARTCHAR 0309
ENCODING 777
SWIDTH 0 0
DWIDTH 0 0
BBX 3 3 -5 10
BITMAP
C0
20
C0
ENDCHAR
STARTCHAR 030A
ENCODING 778
SWIDTH 0 0
DWIDTH 0 0
BBX 3 3 -6 10
BITMAP
60
A0
E0
ENDCHAR
STARTCHAR 030B
ENCODING 779
SWIDTH 0 0
DWIDTH 0 0
BBX 6 3 -7 10
BITMAP
24
6C
D8
ENDCHAR
STARTCHAR 030C
ENCODING 780
SWIDTH 0 0
DWIDTH 0 0
BBX 5 3 -7 10
BITMAP
C8
58
30
ENDCHAR
STARTCHAR 030D
ENCODING 781
SWIDTH 0 0
DWIDTH 0 0
BBX 1 2 -5 10
BITMAP
80
80
ENDCHAR
STARTCHAR 030E
ENCODING 782
SWIDTH 0 0
DWIDTH 0 0
BBX 4 2 -6 10
BITMAP
B0
B0
ENDCHAR
STARTCHAR 030F
ENCODING 783
SWIDTH 0 0
DWIDTH 0 0
BBX 6 3 -8 10
BITMAP
D0
48
24
ENDCHAR
STARTCHAR 0310
ENCODING 784
SWIDTH 0 0
DWIDTH 0 0
BBX 4 2 -6 10
BITMAP
F0
F0
ENDCHAR
STARTCHAR 0311
ENCODING 785
SWIDTH 0 0
DWIDTH 0 0
BBX 5 3 -7 10
BITMAP
70
C8
88
ENDCHAR
STARTCHAR 0312
ENCODING 786
SWIDTH 0 0
DWIDTH 0 0
BBX 2 3 -5 10
BITMAP
C0
80
C0
ENDCHAR
STARTCHAR 0313
ENCODING 787
SWIDTH 0 0
DWIDTH 0 0
BBX 2 3 -5 10
BITMAP
C0
C0
80
ENDCHAR
STARTCHAR 0314
ENCODING 788
SWIDTH 0 0
DWIDTH 0 0
BBX 2 3 -5 10
BITMAP
C0
80
C0
ENDCHAR
STARTCHAR 0315
ENCODING 789
SWIDTH 0 0
DWIDTH 0 0
BBX 2 3 -1 10
BITMAP
C0
C0
80
ENDCHAR
STARTCHAR 0316
ENCODING 790
SWIDTH 0 0
DWIDTH 0 0
BBX 3 3 -5 -4
BITMAP
80
C0
60
ENDCHAR
STARTCHAR 0317
ENCODING 791
SWIDTH 0 0
DWIDTH 0 0
BBX 3 3 -6 -4
BITMAP
60
40
80
ENDCHAR
STARTCHAR 0318
ENCODING 792
SWIDTH 0 0
DWIDTH 0 0
BBX 3 2 -6 -4
BITMAP
E0
20
ENDCHAR
STARTCHAR 0319
ENCODING 793
SWIDTH 0 0
DWIDTH 0 0
BBX 3 2 -6 -4
BITMAP
E0
80
ENDCHAR
STARTCHAR 031A
ENCODING 794
SWIDTH 0 0
DWIDTH 0 0
BBX 4 3 -3 10
BITMAP
F0
10
10
ENDCHAR
STARTCHAR 031B
ENCODING 795
SWIDTH 0 0
DWIDTH 0 0
BBX 3 3 -1 8
BITMAP
60
20
C0
ENDCHAR
STARTCHAR 031C
ENCODING 796
SWIDTH 0 0
DWIDTH 0 0
BBX 1 3 -5 -4
BITMAP
80
80
80
ENDCHAR
STARTCHAR 031D
ENCODING 797
SWIDTH 0 0
DWIDTH 0 0
BBX 3 3 -6 -4
BITMAP
40
40
E0
ENDCHAR
STARTCHAR 031E
ENCODING 798
SWIDTH 0 0
DWIDTH 0 0
BBX 3 3 -6 -4
BITMAP
E0
40
40
ENDCHAR
STARTCHAR 031F
ENCODING 799
SWIDTH 0 0
DWIDTH 0 0
BBX 3 2 -6 -4
BITMAP
E0
40
ENDCHAR
STARTCHAR 0320
ENCODING 800
SWIDTH 0 0
DWIDTH 0 0
BBX 3 1 -6 -3
BITMAP
E0
ENDCHAR
STARTCHAR 0321
ENCODING 801
SWIDTH 0 0
DWIDTH 0 0
BBX 4 4 -4 -3
BITMAP
10
10
30
E0
ENDCHAR
STARTCHAR 0322
ENCODING 802
SWIDTH 0 0
DWIDTH 0 0
BBX 3 4 -1 -3
BITMAP
80
80
C0
60
ENDCHAR
STARTCHAR 0323
ENCODING 803
SWIDTH 0 0
DWIDTH 0 0
BBX 2 2 -5 -4
BITMAP
C0
C0
ENDCHAR
STARTCHAR 0324
ENCODING 804
SWIDTH 0 0
DWIDTH 0 0
BBX 6 2 -7 -4
BITMAP
DC
C8
ENDCHAR
STARTCHAR 0325
ENCODING 805
SWIDTH 0 0
DWIDTH 0 0
BBX 3 3 -6 -4
BITMAP
60
A0
E0
ENDCHAR
STARTCHAR 0326
ENCODING 806
SWIDTH 0 0
DWIDTH 0 0
BBX 2 3 -5 -4
BITMAP
C0
C0
80
ENDCHAR
STARTCHAR 0327
ENCODING 807
SWIDTH 0 0
DWIDTH 0 0
BBX 4 3 -6 -4
BITMAP
40
30
E0
ENDCHAR
STARTCHAR 0328
ENCODING 808
SWIDTH 0 0
DWIDTH 0 0
BBX 3 4 -6 -4
BITMAP
60
C0
80
60
ENDCHAR
STARTCHAR 0329
ENCODING 809
SWIDTH 0 0
DWIDTH 0 0
BBX 1 2 -5 -4
BITMAP
80
80
ENDCHAR
STARTCHAR 032A
ENCODING 810
SWIDTH 0 0
DWIDTH 0 0
BBX 5 3 -7 -4
BITMAP
F8
C8
C8
ENDCHAR
STARTCHAR 032B
ENCODING 811
SWIDTH 0 0
DWIDTH 0 0
BBX 6 2 -7 -4
BITMAP
AC
F8
ENDCHAR
STARTCHAR 032C
ENCODING 812
SWIDTH 0 0
DWIDTH 0 0
BBX 5 3 -7 -4
BITMAP
C8
58
30
ENDCHAR
STARTCHAR 032D
ENCODING 813
SWIDTH 0 0
DWIDTH 0 0
BBX 5 3 -7 -4
BITMAP
30
58
C8
ENDCHAR
STARTCHAR 032E
ENCODING 814
SWIDTH 0 0
DWIDTH 0 0
BBX 5 2 -7 -4
BITMAP
C8
78
ENDCHAR
STARTCHAR 032F
ENCODING 815
SWIDTH 0 0
DWIDTH 0 0
BBX 5 3 -7 -4
BITMAP
70
C8
88
ENDCHAR
STARTCHAR 0330
ENCODING 816
SWIDTH 0 0
DWIDTH 0 0
BBX 6 3 -7 -4
BITMAP
40
EC
98
ENDCHAR
STARTCHAR 0331
ENCODING 817
SWIDTH 0 0
DWIDTH 0 0
BBX 5 1 -7 -3
BITMAP
F8
ENDCHAR
STARTCHAR 0332
ENCODING 818
SWIDTH 0 0
DWIDTH 0 0
BBX 9 1 -9 -3
BITMAP
FF80
ENDCHAR
STARTCHAR 0333
ENCODING 819
SWIDTH 0 0
DWIDTH 0 0
BBX 9 2 -9 -4
BITMAP
FF80
FF80
ENDCHAR
STARTCHAR 0334
ENCODING 820
SWIDTH 0 0
DWIDTH 0 0
BBX 5 3 -7 3
BITMAP
40
68
98
ENDCHAR
STARTCHAR 0335
ENCODING 821
SWIDTH 0 0
DWIDTH 0 0
BBX 4 1 -6 4
BITMAP
F0
ENDCHAR
STARTCHAR 0336
ENCODING 822
SWIDTH 0 0
DWIDTH 0 0
BBX 9 1 -9 4
BITMAP
FF80
ENDCHAR
STARTCHAR 0337
ENCODING 823
SWIDTH 0 0
DWIDTH 0 0
BBX 6 11 -7 -1
BITMAP
0C
08
08
10
10
20
20
40
40
40
80
ENDCHAR
STARTCHAR 0338
ENCODING 824
SWIDTH 0 0
DWIDTH 0 0
BBX 6 15 -7 -3
BITMAP
0C
08
08
08
10
10
10
20
20
20
40
40
40
80
80
ENDCHAR
STARTCHAR 0339
ENCODING 825
SWIDTH 0 0
DWIDTH 0 0
BBX 2 3 -5 -4
BITMAP
80
40
C0
ENDCHAR
STARTCHAR 033A
ENCODING 826
SWIDTH 0 0
DWIDTH 0 0
BBX 5 3 -7 -4
BITMAP
C8
C8
F8
ENDCHAR
STARTCHAR 033B
ENCODING 827
SWIDTH 0 0
DWIDTH 0 0
BBX 3 2 -6 -4
BITMAP
E0
E0
ENDCHAR
STARTCHAR 033C
ENCODING 828
SWIDTH 0 0
DWIDTH 0 0
BBX 6 3 -7 -4
BITMAP
78
A8
A4
ENDCHAR
STARTCHAR 033D
ENCODING 829
SWIDTH 0 0
DWIDTH 0 0
BBX 4 3 -6 10
BITMAP
B0
60
B0
ENDCHAR
STARTCHAR 033E
ENCODING 830
SWIDTH 0 0
DWIDTH 0 0
BBX 2 2 -5 10
BITMAP
C0
C0
ENDCHAR
STARTCHAR 033F
ENCODING 831
SWIDTH 0 0
DWIDTH 0 0
BBX 9 2 -9 10
BITMAP
FF80
FF80
ENDCHAR
STARTCHAR 0340
ENCODING 832
SWIDTH 0 0
DWIDTH 0 0
BBX 3 3 -6 10
BITMAP
80
C0
60
ENDCHAR
STARTCHAR 0341
ENCODING 833
SWIDTH 0 0
DWIDTH 0 0
BBX 3 3 -5 10
BITMAP
60
40
80
ENDCHAR
STARTCHAR 0342
ENCODING 834
SWIDTH 0 0
DWIDTH 0 0
BBX 5 3 -7 10
BITMAP
70
C8
88
ENDCHAR
STARTCHAR 0343
ENCODING 835
SWIDTH 0 0
DWIDTH 0 0
BBX 2 3 -5 10
BITMAP
C0
C0
80
ENDCHAR
STARTCHAR 0344
ENCODING 836
SWIDTH 0 0
DWIDTH 0 0
BBX 6 3 -7 10
BITMAP
B8
AC
20
ENDCHAR
STARTCHAR 0345
ENCODING 837
SWIDTH 0 0
DWIDTH 0 0
BBX 1 2 -5 -4
BITMAP
80
80
ENDCHAR
STARTCHAR 0346
ENCODING 838
SWIDTH 0 0
DWIDTH 0 0
BBX 5 3 -7 10
BITMAP
F8
C8
C8
ENDCHAR
STARTCHAR 0347
ENCODING 839
SWIDTH 0 0
DWIDTH 0 0
BBX 3 2 -6 -4
BITMAP
E0
E0
ENDCHAR
STARTCHAR 0348
ENCODING 840
SWIDTH 0 0
DWIDTH 0 0
BBX 4 2 -6 -4
BITMAP
B0
B0
ENDCHAR
STARTCHAR 0349
ENCODING 841
SWIDTH 0 0
DWIDTH 0 0
BBX 3 3 -6 -4
BITMAP
E0
20
20
ENDCHAR
STARTCHAR 034A
ENCODING 842
SWIDTH 0 0
DWIDTH 0 0
BBX 6 4 -7 9
BITMAP
30
64
B8
20
ENDCHAR
STARTCHAR 034B
ENCODING 843
SWIDTH 0 0
DWIDTH 0 0
BBX 6 4 -7 10
BITMAP
20
64
B8
20
ENDCHAR
STARTCHAR 034C
ENCODING 844
SWIDTH 0 0
DWIDTH 0 0
BBX 6 4 -7 9
BITMAP
64
B8
6C
98
ENDCHAR
STARTCHAR 034D
ENCODING 845
SWIDTH 0 0
DWIDTH 0 0
BBX 6 3 -7 -4
BITMAP
58
FC
58
ENDCHAR
STARTCHAR 034E
ENCODING 846
SWIDTH 0 0
DWIDTH 0 0
BBX 3 3 -6 -4
BITMAP
40
E0
40
ENDCHAR
STARTCHAR 034F
ENCODING 847
SWIDTH 0 0
DWIDTH 0 0
BBX 0 0 0 0
BITMAP
ENDCHAR
STARTCHAR 0350
ENCODING 848
SWIDTH 0 0
DWIDTH 0 0
BBX 3 3 -6 10
BITMAP
C0
20
C0
ENDCHAR
STARTCHAR 0351
ENCODING 849
SWIDTH 0 0
DWIDTH 0 0
BBX 1 3 -5 10
BITMAP
80
80
80
ENDCHAR
STARTCHAR 0352
ENCODING 850
SWIDTH 0 0
DWIDTH 0 0
BBX 4 3 -6 10
BITMAP
E0
B0
F0
ENDCHAR
STARTCHAR 0353
ENCODING 851
SWIDTH 0 0
DWIDTH 0 0
BBX 4 3 -6 -4
BITMAP
B0
60
B0
ENDCHAR
STARTCHAR 0354
ENCODING 852
SWIDTH 0 0
DWIDTH 0 0
BBX 4 3 -6 -4
BITMAP
30
C0
70
ENDCHAR
STARTCHAR 0355
ENCODING 853
SWIDTH 0 0
DWIDTH 0 0
BBX 3 3 -6 -4
BITMAP
C0
20
C0
ENDCHAR
STARTCHAR 0356
ENCODING 854
SWIDTH 0 0
DWIDTH 0 0
BBX 8 3 -8 -4
BITMAP
CC
3A
CB
ENDCHAR
STARTCHAR 0357
ENCODING 855
SWIDTH 0 0
DWIDTH 0 0
BBX 2 3 -5 10
BITMAP
80
40
C0
ENDCHAR
STARTCHAR 0358
ENCODING 856
SWIDTH 0 0
DWIDTH 0 0
BBX 2 2 0 10
BITMAP
80
C0
ENDCHAR
STARTCHAR 0359
ENCODING 857
SWIDTH 0 0
DWIDTH 0 0
BBX 3 3 -6 -4
BITMAP
40
E0
60
ENDCHAR
STARTCHAR 035A
ENCODING 858
SWIDTH 0 0
DWIDTH 0 0
BBX 6 3 -7 -4
BITMAP
F8
A4
F8
ENDCHAR
STARTCHAR 035B
ENCODING 859
SWIDTH 0 0
DWIDTH 0 0
BBX 3 3 -6 10
BITMAP
80
E0
20
ENDCHAR
STARTCHAR 035C
ENCODING 860
SWIDTH 0 0
DWIDTH 0 0
BBX 14 3 -7 -9
BITMAP
C00C
7038
1FE0
ENDCHAR
STARTCHAR 035D
ENCODING 861
SWIDTH 0 0
DWIDTH 0 0
BBX 14 3 -7 14
BITMAP
C00C
7038
1FE0
ENDCHAR
STARTCHAR 035E
ENCODING 862
SWIDTH 0 0
DWIDTH 0 0
BBX 12 1 -6 15
BITMAP
FFF0
ENDCHAR
STARTCHAR 035F
ENCODING 863
SWIDTH 0 0
DWIDTH 0 0
BBX 12 1 -6 -8
BITMAP
FFF0
ENDCHAR
STARTCHAR 0360
ENCODING 864
SWIDTH 0 0
DWIDTH 0 0
BBX 14 3 -7 14
BITMAP
3C08
631C
C1F0
ENDCHAR
STARTCHAR 0361
ENCODING 865
SWIDTH 0 0
DWIDTH 0 0
BBX 14 3 -7 14
BITMAP
0FC0
3870
C00C
ENDCHAR
STARTCHAR 0362
ENCODING 866
SWIDTH 0 0
DWIDTH 0 0
BBX 13 5 -6 -10
BITMAP
0020
0030
FFF8
0030
0020
ENDCHAR
STARTCHAR 0363
ENCODING 867
SWIDTH 0 0
DWIDTH 0 0
BBX 3 4 -6 10
BITMAP
60
E0
A0
60
ENDCHAR
STARTCHAR 0364
ENCODING 868
SWIDTH 0 0
DWIDTH 0 0
BBX 3 4 -6 10
BITMAP
60
A0
E0
60
ENDCHAR
STARTCHAR 0365
ENCODING 869
SWIDTH 0 0
DWIDTH 0 0
BBX 2 5 -5 10
BITMAP
80
80
80
80
C0
ENDCHAR
STARTCHAR 0366
ENCODING 870
SWIDTH 0 0
DWIDTH 0 0
BBX 3 4 -6 10
BITMAP
60
A0
A0
60
ENDCHAR
STARTCHAR 0367
ENCODING 871
SWIDTH 0 0
DWIDTH 0 0
BBX 3 3 -6 10
BITMAP
A0
A0
60
ENDCHAR
STARTCHAR 0368
ENCODING 872
SWIDTH 0 0
DWIDTH 0 0
BBX 3 4 -6 10
BITMAP
60
A0
80
60
ENDCHAR
STARTCHAR 0369
ENCODING 873
SWIDTH 0 0
DWIDTH 0 0
BBX 3 5 -6 10
BITMAP
20
60
A0
A0
60
ENDCHAR
STARTCHAR 036A
ENCODING 874
SWIDTH 0 0
DWIDTH 0 0
BBX 3 5 -6 10
BITMAP
80
E0
A0
A0
A0
ENDCHAR
STARTCHAR 036B
ENCODING 875
SWIDTH 0 0
DWIDTH 0 0
BBX 3 4 -6 10
BITMAP
E0
E0
E0
E0
ENDCHAR
STARTCHAR 036C
ENCODING 876
SWIDTH 0 0
DWIDTH 0 0
BBX 2 4 -5 10
BITMAP
C0
80
80
80
ENDCHAR
STARTCHAR 036D
ENCODING 877
SWIDTH 0 0
DWIDTH 0 0
BBX 3 4 -6 10
BITMAP
E0
40
40
60
ENDCHAR
STARTCHAR 036E
ENCODING 878
SWIDTH 0 0
DWIDTH 0 0
BBX 3 4 -6 10
BITMAP
A0
A0
60
40
ENDCHAR
STARTCHAR 036F
ENCODING 879
SWIDTH 0 0
DWIDTH 0 0
BBX 3 4 -6 10
BITMAP
E0
40
40
E0
ENDCHAR
STARTCHAR 0370
ENCODING 880
SWIDTH 540 0
DWIDTH 9 0
BBX 5 13 2 0
BITMAP
80
80
80
80
80
80
F8
80
80
80
80
80
80
ENDCHAR
STARTCHAR 0371
ENCODING 881
SWIDTH 540 0
DWIDTH 9 0
BBX 5 9 2 0
BITMAP
80
80
80
80
F8
80
80
80
80
ENDCHAR
STARTCHAR 0372
ENCODING 882
SWIDTH 540 0
DWIDTH 9 0
BBX 7 13 1 0
BITMAP
FE
96
96
96
96
96
96
10
10
10
10
10
10
ENDCHAR
STARTCHAR 0373
ENCODING 883
SWIDTH 540 0
DWIDTH 9 0
BBX 7 13 1 -4
BITMAP
FE
96
96
96
96
96
96
10
10
10
10
10
10
ENDCHAR
STARTCHAR 0374
ENCODING 884
SWIDTH 540 0
DWIDTH 9 0
BBX 3 6 3 8
BITMAP
60
60
40
C0
C0
80
ENDCHAR
STARTCHAR 0375
ENCODING 885
SWIDTH 540 0
DWIDTH 9 0
BBX 3 6 3 -3
BITMAP
60
40
40
C0
80
80
ENDCHAR
STARTCHAR 0376
ENCODING 886
SWIDTH 540 0
DWIDTH 9 0
BBX 6 13 1 0
BITMAP
84
8C
8C
8C
9C
94
94
B4
A4
A4
E4
C4
C4
ENDCHAR
STARTCHAR 0377
ENCODING 887
SWIDTH 540 0
DWIDTH 9 0
BBX 6 9 1 0
BITMAP
84
8C
8C
94
94
A4
A4
C4
C4
ENDCHAR
STARTCHAR 037A
ENCODING 890
SWIDTH 540 0
DWIDTH 9 0
BBX 1 2 4 -4
BITMAP
80
80
ENDCHAR
STARTCHAR 037B
ENCODING 891
SWIDTH 540 0
DWIDTH 9 0
BBX 7 9 1 0
BITMAP
78
CC
84
06
06
06
84
CC
78
ENDCHAR
STARTCHAR 037C
ENCODING 892
SWIDTH 540 0
DWIDTH 9 0
BBX 6 9 1 0
BITMAP
78
CC
84
80
B0
90
84
CC
78
ENDCHAR
STARTCHAR 037D
ENCODING 893
SWIDTH 540 0
DWIDTH 9 0
BBX 7 9 1 0
BITMAP
78
CC
84
06
36
16
84
CC
78
ENDCHAR
STARTCHAR 037E
ENCODING 894
SWIDTH 540 0
DWIDTH 9 0
BBX 3 13 3 -4
BITMAP
C0
E0
C0
00
00
00
C0
E0
E0
40
40
80
80
ENDCHAR
STARTCHAR 037F
ENCODING 895
SWIDTH 540 0
DWIDTH 9 0
BBX 6 13 1 0
BITMAP
04
04
04
04
04
04
04
04
04
04
84
CC
78
ENDCHAR
STARTCHAR 0384
ENCODING 900
SWIDTH 540 0
DWIDTH 9 0
BBX 1 3 4 10
BITMAP
80
80
80
ENDCHAR
STARTCHAR 0385
ENCODING 901
SWIDTH 540 0
DWIDTH 9 0
BBX 6 3 1 10
BITMAP
54
D4
10
ENDCHAR
STARTCHAR 0386
ENCODING 902
SWIDTH 540 0
DWIDTH 9 0
BBX 7 14 1 0
BITMAP
80
B0
B0
38
38
28
68
48
4C
4C
FC
C4
84
86
ENDCHAR
STARTCHAR 0387
ENCODING 903
SWIDTH 540 0
DWIDTH 9 0
BBX 3 3 3 4
BITMAP
C0
E0
C0
ENDCHAR
STARTCHAR 0388
ENCODING 904
SWIDTH 540 0
DWIDTH 9 0
BBX 8 14 -1 0
BITMAP
40
FF
F0
30
30
30
30
3E
30
30
30
30
30
3F
ENDCHAR
STARTCHAR 0389
ENCODING 905
SWIDTH 540 0
DWIDTH 9 0
BBX 8 14 -1 0
BITMAP
40
E1
E1
21
21
21
21
3F
21
21
21
21
21
21
ENDCHAR
STARTCHAR 038A
ENCODING 906
SWIDTH 540 0
DWIDTH 9 0
BBX 8 14 -1 0
BITMAP
40
FF
C4
04
04
04
04
04
04
04
04
04
04
3F
ENDCHAR
STARTCHAR 038C
ENCODING 908
SWIDTH 540 0
DWIDTH 9 0
BBX 9 14 -1 0
BITMAP
4000
DE00
F300
2100
2180
2180
2180
2180
2180
2180
2180
2100
3300
1E00
ENDCHAR
STARTCHAR 038E
ENCODING 910
SWIDTH 540 0
DWIDTH 9 0
BBX 9 14 -1 0
BITMAP
C000
E180
B100
1300
1200
1A00
0E00
0C00
0C00
0400
0400
0400
0400
0400
ENDCHAR
STARTCHAR 038F
ENCODING 911
SWIDTH 540 0
DWIDTH 9 0
BBX 8 14 -1 0
BITMAP
40
DE
D3
31
21
21
21
21
21
21
21
31
0A
3B
ENDCHAR
STARTCHAR 0390
ENCODING 912
SWIDTH 540 0
DWIDTH 9 0
BBX 6 13 1 0
BITMAP
54
D4
10
00
F0
10
10
10
10
10
10
10
0C
ENDCHAR
STARTCHAR 0391
ENCODING 913
SWIDTH 540 0
DWIDTH 9 0
BBX 7 13 1 0
BITMAP
30
30
38
38
28
68
48
4C
4C
FC
C4
84
86
ENDCHAR
STARTCHAR 0392
ENCODING 914
SWIDTH 540 0
DWIDTH 9 0
BBX 7 13 1 0
BITMAP
F8
8C
84
84
84
8C
F8
8C
86
86
86
8C
F8
ENDCHAR
STARTCHAR 0393
ENCODING 915
SWIDTH 540 0
DWIDTH 9 0
BBX 6 13 2 0
BITMAP
FC
80
80
80
80
80
80
80
80
80
80
80
80
ENDCHAR
STARTCHAR 0394
ENCODING 916
SWIDTH 540 0
DWIDTH 9 0
BBX 7 13 1 0
BITMAP
30
30
38
28
28
68
48
4C
4C
C4
C4
84
FE
ENDCHAR
STARTCHAR 0395
ENCODING 917
SWIDTH 540 0
DWIDTH 9 0
BBX 6 13 1 0
BITMAP
FC
C0
C0
C0
C0
C0
F8
C0
C0
C0
C0
C0
FC
ENDCHAR
STARTCHAR 0396
ENCODING 918
SWIDTH 540 0
DWIDTH 9 0
BBX 6 13 1 0
BITMAP
FC
04
0C
08
18
10
30
30
20
60
40
C0
FC
ENDCHAR
STARTCHAR 0397
ENCODING 919
SWIDTH 540 0
DWIDTH 9 0
BBX 6 13 1 0
BITMAP
84
84
84
84
84
84
FC
84
84
84
84
84
84
ENDCHAR
STARTCHAR 0398
ENCODING 920
SWIDTH 540 0
DWIDTH 9 0
BBX 7 13 1 0
BITMAP
78
CC
84
86
86
86
BE
86
86
86
84
CC
78
ENDCHAR
STARTCHAR 0399
ENCODING 921
SWIDTH 540 0
DWIDTH 9 0
BBX 6 13 1 0
BITMAP
FC
10
10
10
10
10
10
10
10
10
10
10
FC
ENDCHAR
STARTCHAR 039A
ENCODING 922
SWIDTH 540 0
DWIDTH 9 0
BBX 7 13 1 0
BITMAP
C6
CC
C8
C8
D8
D0
F0
D0
D0
C8
C8
CC
C6
ENDCHAR
STARTCHAR 039B
ENCODING 923
SWIDTH 540 0
DWIDTH 9 0
BBX 7 13 1 0
BITMAP
30
30
38
28
28
68
48
4C
44
C4
C4
84
86
ENDCHAR
STARTCHAR 039C
ENCODING 924
SWIDTH 540 0
DWIDTH 9 0
BBX 7 13 1 0
BITMAP
C6
C6
CE
CE
AE
AE
B6
B6
96
86
86
86
86
ENDCHAR
STARTCHAR 039D
ENCODING 925
SWIDTH 540 0
DWIDTH 9 0
BBX 6 13 1 0
BITMAP
C4
C4
E4
A4
A4
B4
94
94
94
8C
8C
8C
84
ENDCHAR
STARTCHAR 039E
ENCODING 926
SWIDTH 540 0
DWIDTH 9 0
BBX 7 13 1 0
BITMAP
FE
00
00
00
00
00
7C
00
00
00
00
00
FE
ENDCHAR
STARTCHAR 039F
ENCODING 927
SWIDTH 540 0
DWIDTH 9 0
BBX 7 13 1 0
BITMAP
78
CC
84
86
86
86
86
86
86
86
84
CC
78
ENDCHAR
STARTCHAR 03A0
ENCODING 928
SWIDTH 540 0
DWIDTH 9 0
BBX 6 13 1 0
BITMAP
FC
84
84
84
84
84
84
84
84
84
84
84
84
ENDCHAR
STARTCHAR 03A1
ENCODING 929
SWIDTH 540 0
DWIDTH 9 0
BBX 7 13 1 0
BITMAP
F8
CC
C6
C6
C6
C6
C4
F8
C0
C0
C0
C0
C0
ENDCHAR
STARTCHAR 03A3
ENCODING 931
SWIDTH 540 0
DWIDTH 9 0
BBX 6 13 1 0
BITMAP
FC
C0
40
60
20
20
10
30
20
60
40
C0
FC
ENDCHAR
STARTCHAR 03A4
ENCODING 932
SWIDTH 540 0
DWIDTH 9 0
BBX 7 13 1 0
BITMAP
FE
10
10
10
10
10
10
10
10
10
10
10
10
ENDCHAR
STARTCHAR 03A5
ENCODING 933
SWIDTH 540 0
DWIDTH 9 0
BBX 7 13 1 0
BITMAP
86
C4
4C
48
68
38
30
30
10
10
10
10
10
ENDCHAR
STARTCHAR 03A6
ENCODING 934
SWIDTH 540 0
DWIDTH 9 0
BBX 7 13 1 0
BITMAP
10
10
7C
96
96
92
92
92
92
96
7C
10
10
ENDCHAR
STARTCHAR 03A7
ENCODING 935
SWIDTH 540 0
DWIDTH 9 0
BBX 7 13 1 0
BITMAP
86
C4
4C
68
38
30
10
30
38
68
4C
C4
86
ENDCHAR
STARTCHAR 03A8
ENCODING 936
SWIDTH 540 0
DWIDTH 9 0
BBX 7 13 1 0
BITMAP
96
96
96
96
96
96
96
D4
7C
10
10
10
10
ENDCHAR
STARTCHAR 03A9
ENCODING 937
SWIDTH 540 0
DWIDTH 9 0
BBX 6 13 1 0
BITMAP
78
4C
C4
84
84
84
84
84
84
84
C4
28
EC
ENDCHAR
STARTCHAR 03AA
ENCODING 938
SWIDTH 540 0
DWIDTH 9 0
BBX 6 16 1 0
BITMAP
4C
EC
00
FC
10
10
10
10
10
10
10
10
10
10
10
FC
ENDCHAR
STARTCHAR 03AB
ENCODING 939
SWIDTH 540 0
DWIDTH 9 0
BBX 7 16 1 0
BITMAP
4C
EC
00
86
C4
4C
48
68
38
30
30
10
10
10
10
10
ENDCHAR
STARTCHAR 03AC
ENCODING 940
SWIDTH 540 0
DWIDTH 9 0
BBX 6 13 1 0
BITMAP
10
10
10
00
74
CC
84
84
84
84
84
CC
74
ENDCHAR
STARTCHAR 03AD
ENCODING 941
SWIDTH 540 0
DWIDTH 9 0
BBX 7 13 1 0
BITMAP
10
10
10
00
78
CC
84
C0
70
C0
80
C6
7C
ENDCHAR
STARTCHAR 03AE
ENCODING 942
SWIDTH 540 0
DWIDTH 9 0
BBX 6 17 1 -4
BITMAP
10
10
10
00
B8
CC
C4
84
84
84
84
84
84
04
04
04
04
ENDCHAR
STARTCHAR 03AF
ENCODING 943
SWIDTH 540 0
DWIDTH 9 0
BBX 6 13 1 0
BITMAP
10
10
10
00
F0
10
10
10
10
10
10
10
0C
ENDCHAR
STARTCHAR 03B0
ENCODING 944
SWIDTH 540 0
DWIDTH 9 0
BBX 6 13 1 0
BITMAP
54
D4
10
00
84
84
84
84
84
84
C4
4C
78
ENDCHAR
STARTCHAR 03B1
ENCODING 945
SWIDTH 540 0
DWIDTH 9 0
BBX 6 9 1 0
BITMAP
74
CC
84
84
84
84
84
CC
74
ENDCHAR
STARTCHAR 03B2
ENCODING 946
SWIDTH 540 0
DWIDTH 9 0
BBX 7 17 1 -4
BITMAP
78
4C
C4
84
84
8C
98
8C
84
86
84
CC
B8
80
80
80
80
ENDCHAR
STARTCHAR 03B3
ENCODING 947
SWIDTH 540 0
DWIDTH 9 0
BBX 7 13 1 -4
BITMAP
86
C4
44
4C
48
68
38
30
30
10
10
10
10
ENDCHAR
STARTCHAR 03B4
ENCODING 948
SWIDTH 540 0
DWIDTH 9 0
BBX 7 13 1 0
BITMAP
FC
C0
60
30
18
7C
CC
84
86
86
84
CC
78
ENDCHAR
STARTCHAR 03B5
ENCODING 949
SWIDTH 540 0
DWIDTH 9 0
BBX 7 9 1 0
BITMAP
78
CC
84
C0
70
C0
80
C6
7C
ENDCHAR
STARTCHAR 03B6
ENCODING 950
SWIDTH 540 0
DWIDTH 9 0
BBX 6 17 1 -4
BITMAP
FC
0C
18
30
20
40
40
C0
80
80
C0
40
3C
04
04
04
18
ENDCHAR
STARTCHAR 03B7
ENCODING 951
SWIDTH 540 0
DWIDTH 9 0
BBX 6 13 1 -4
BITMAP
B8
CC
C4
84
84
84
84
84
84
04
04
04
04
ENDCHAR
STARTCHAR 03B8
ENCODING 952
SWIDTH 540 0
DWIDTH 9 0
BBX 7 13 1 0
BITMAP
78
CC
84
86
86
86
FE
86
86
86
84
CC
78
ENDCHAR
STARTCHAR 03B9
ENCODING 953
SWIDTH 540 0
DWIDTH 9 0
BBX 6 9 1 0
BITMAP
F0
10
10
10
10
10
10
10
0C
ENDCHAR
STARTCHAR 03BA
ENCODING 954
SWIDTH 540 0
DWIDTH 9 0
BBX 7 9 1 0
BITMAP
C6
CC
C8
D0
F0
D0
D8
CC
C6
ENDCHAR
STARTCHAR 03BB
ENCODING 955
SWIDTH 540 0
DWIDTH 9 0
BBX 7 13 1 0
BITMAP
20
20
30
10
30
38
28
68
48
4C
44
C4
86
ENDCHAR
STARTCHAR 03BC
ENCODING 956
SWIDTH 540 0
DWIDTH 9 0
BBX 6 13 1 -4
BITMAP
84
84
84
84
84
84
C4
CC
F4
80
80
80
80
ENDCHAR
STARTCHAR 03BD
ENCODING 957
SWIDTH 540 0
DWIDTH 9 0
BBX 7 9 1 0
BITMAP
86
C4
44
4C
48
68
28
30
30
ENDCHAR
STARTCHAR 03BE
ENCODING 958
SWIDTH 540 0
DWIDTH 9 0
BBX 6 17 1 -4
BITMAP
78
4C
C4
80
C0
40
38
40
80
80
80
C0
7C
04
04
04
18
ENDCHAR
STARTCHAR 03BF
ENCODING 959
SWIDTH 540 0
DWIDTH 9 0
BBX 7 9 1 0
BITMAP
78
CC
84
86
86
86
84
CC
78
ENDCHAR
STARTCHAR 03C0
ENCODING 960
SWIDTH 540 0
DWIDTH 9 0
BBX 7 9 1 0
BITMAP
FE
4C
4C
4C
4C
4C
4C
4C
44
ENDCHAR
STARTCHAR 03C1
ENCODING 961
SWIDTH 540 0
DWIDTH 9 0
BBX 7 13 1 -4
BITMAP
78
4C
C4
86
86
86
C4
CC
B8
80
80
80
80
ENDCHAR
STARTCHAR 03C2
ENCODING 962
SWIDTH 540 0
DWIDTH 9 0
BBX 6 13 1 -4
BITMAP
78
CC
84
80
80
80
80
C0
78
0C
04
04
18
ENDCHAR
STARTCHAR 03C3
ENCODING 963
SWIDTH 540 0
DWIDTH 9 0
BBX 7 9 1 0
BITMAP
7E
CC
84
84
84
84
84
CC
78
ENDCHAR
STARTCHAR 03C4
ENCODING 964
SWIDTH 540 0
DWIDTH 9 0
BBX 6 9 1 0
BITMAP
FC
20
20
20
20
20
30
30
1C
ENDCHAR
STARTCHAR 03C5
ENCODING 965
SWIDTH 540 0
DWIDTH 9 0
BBX 6 9 1 0
BITMAP
84
84
84
84
84
84
C4
4C
78
ENDCHAR
STARTCHAR 03C6
ENCODING 966
SWIDTH 540 0
DWIDTH 9 0
BBX 7 13 1 -4
BITMAP
DC
96
92
92
92
92
96
D4
7C
10
10
10
10
ENDCHAR
STARTCHAR 03C7
ENCODING 967
SWIDTH 540 0
DWIDTH 9 0
BBX 7 13 1 -4
BITMAP
86
C4
4C
68
38
30
10
30
38
68
4C
C4
86
ENDCHAR
STARTCHAR 03C8
ENCODING 968
SWIDTH 540 0
DWIDTH 9 0
BBX 7 13 1 -4
BITMAP
96
96
96
96
96
96
96
D4
7C
10
10
10
10
ENDCHAR
STARTCHAR 03C9
ENCODING 969
SWIDTH 540 0
DWIDTH 9 0
BBX 7 9 1 0
BITMAP
C4
84
86
92
92
92
B6
B4
6C
ENDCHAR
STARTCHAR 03CA
ENCODING 970
SWIDTH 540 0
DWIDTH 9 0
BBX 6 12 1 0
BITMAP
EC
4C
00
F0
10
10
10
10
10
10
10
0C
ENDCHAR
STARTCHAR 03CB
ENCODING 971
SWIDTH 540 0
DWIDTH 9 0
BBX 6 12 1 0
BITMAP
EC
4C
00
84
84
84
84
84
84
C4
4C
78
ENDCHAR
STARTCHAR 03CC
ENCODING 972
SWIDTH 540 0
DWIDTH 9 0
BBX 7 13 1 0
BITMAP
10
10
10
00
78
CC
84
86
86
86
84
CC
78
ENDCHAR
STARTCHAR 03CD
ENCODING 973
SWIDTH 540 0
DWIDTH 9 0
BBX 6 13 1 0
BITMAP
10
10
10
00
84
84
84
84
84
84
C4
4C
78
ENDCHAR
STARTCHAR 03CE
ENCODING 974
SWIDTH 540 0
DWIDTH 9 0
BBX 7 13 1 0
BITMAP
10
10
10
00
C4
84
86
92
92
92
B6
B4
6C
ENDCHAR
STARTCHAR 03CF
ENCODING 975
SWIDTH 540 0
DWIDTH 9 0
BBX 7 16 1 -3
BITMAP
C6
CC
C8
C8
D8
D0
F0
D0
D0
C8
C8
CC
C6
0C
18
30
ENDCHAR
STARTCHAR 03D0
ENCODING 976
SWIDTH 540 0
DWIDTH 9 0
BBX 7 13 1 0
BITMAP
78
CC
84
84
84
8C
98
8C
86
86
86
CC
78
ENDCHAR
STARTCHAR 03D1
ENCODING 977
SWIDTH 540 0
DWIDTH 9 0
BBX 7 13 1 0
BITMAP
1C
24
66
66
26
36
0E
86
86
86
84
CC
78
ENDCHAR
STARTCHAR 03D2
ENCODING 978
SWIDTH 540 0
DWIDTH 9 0
BBX 8 13 0 0
BITMAP
C3
62
26
24
34
14
18
18
08
08
08
08
08
ENDCHAR
STARTCHAR 03D3
ENCODING 979
SWIDTH 540 0
DWIDTH 9 0
BBX 10 14 -2 0
BITMAP
4000
70C0
9880
0980
0900
0D00
0500
0600
0600
0200
0200
0200
0200
0200
ENDCHAR
STARTCHAR 03D4
ENCODING 980
SWIDTH 540 0
DWIDTH 9 0
BBX 8 16 0 0
BITMAP
26
76
00
C3
62
26
24
34
14
18
18
08
08
08
08
08
ENDCHAR
STARTCHAR 03D5
ENCODING 981
SWIDTH 540 0
DWIDTH 9 0
BBX 7 17 1 -4
BITMAP
10
10
10
10
7C
D4
96
92
92
92
96
D4
7C
10
10
10
10
ENDCHAR
STARTCHAR 03D6
ENCODING 982
SWIDTH 540 0
DWIDTH 9 0
BBX 7 9 1 0
BITMAP
FE
84
86
96
92
92
B6
B4
6C
ENDCHAR
STARTCHAR 03D7
ENCODING 983
SWIDTH 540 0
DWIDTH 9 0
BBX 7 13 1 -4
BITMAP
86
44
4C
5C
5C
68
68
CC
86
06
06
04
08
ENDCHAR
STARTCHAR 03D8
ENCODING 984
SWIDTH 540 0
DWIDTH 9 0
BBX 7 13 1 0
BITMAP
78
CC
84
86
86
86
86
86
86
C4
7C
10
10
ENDCHAR
STARTCHAR 03D9
ENCODING 985
SWIDTH 540 0
DWIDTH 9 0
BBX 7 13 1 -4
BITMAP
78
CC
84
86
86
86
86
C4
7C
10
10
10
10
ENDCHAR
STARTCHAR 03DA
ENCODING 986
SWIDTH 540 0
DWIDTH 9 0
BBX 6 13 1 0
BITMAP
78
CC
84
80
80
80
80
80
80
C0
70
10
10
ENDCHAR
STARTCHAR 03DB
ENCODING 987
SWIDTH 540 0
DWIDTH 9 0
BBX 6 14 1 -4
BITMAP
04
7C
C0
80
80
80
80
80
C0
78
0C
04
04
18
ENDCHAR
STARTCHAR 03DC
ENCODING 988
SWIDTH 540 0
DWIDTH 9 0
BBX 6 13 2 0
BITMAP
FC
80
80
80
80
80
F0
80
80
80
80
80
80
ENDCHAR
STARTCHAR 03DD
ENCODING 989
SWIDTH 540 0
DWIDTH 9 0
BBX 6 13 2 -4
BITMAP
FC
80
80
80
F0
80
80
80
80
80
80
80
80
ENDCHAR
STARTCHAR 03DE
ENCODING 990
SWIDTH 540 0
DWIDTH 9 0
BBX 7 13 1 0
BITMAP
60
40
40
40
C0
C0
FE
04
04
04
0C
08
08
ENDCHAR
STARTCHAR 03DF
ENCODING 991
SWIDTH 540 0
DWIDTH 9 0
BBX 6 13 1 0
BITMAP
80
80
80
80
80
8C
BC
E4
84
04
04
04
04
ENDCHAR
STARTCHAR 03E0
ENCODING 992
SWIDTH 540 0
DWIDTH 9 0
BBX 6 13 1 0
BITMAP
10
30
30
38
28
28
48
48
5C
54
54
94
B4
ENDCHAR
STARTCHAR 03E1
ENCODING 993
SWIDTH 540 0
DWIDTH 9 0
BBX 7 13 1 -4
BITMAP
80
60
30
18
F8
4C
04
0C
3E
26
06
04
04
ENDCHAR
STARTCHAR 03F0
ENCODING 1008
SWIDTH 540 0
DWIDTH 9 0
BBX 7 9 1 0
BITMAP
86
44
4C
5C
5C
68
68
CC
86
ENDCHAR
STARTCHAR 03F1
ENCODING 1009
SWIDTH 540 0
DWIDTH 9 0
BBX 7 13 1 -4
BITMAP
78
4C
C4
86
86
86
C4
CC
B8
80
C0
40
7C
ENDCHAR
STARTCHAR 03F2
ENCODING 1010
SWIDTH 540 0
DWIDTH 9 0
BBX 6 9 1 0
BITMAP
78
CC
84
80
80
80
84
CC
78
ENDCHAR
STARTCHAR 03F3
ENCODING 1011
SWIDTH 540 0
DWIDTH 9 0
BBX 5 16 1 -4
BITMAP
18
18
00
78
08
08
08
08
08
08
08
08
08
08
18
F0
ENDCHAR
STARTCHAR 03F4
ENCODING 1012
SWIDTH 540 0
DWIDTH 9 0
BBX 7 13 1 0
BITMAP
78
CC
84
86
86
86
FE
86
86
86
84
CC
78
ENDCHAR
STARTCHAR 03F5
ENCODING 1013
SWIDTH 540 0
DWIDTH 9 0
BBX 6 9 1 0
BITMAP
3C
60
C0
80
F8
80
C0
60
3C
ENDCHAR
STARTCHAR 03F6
ENCODING 1014
SWIDTH 540 0
DWIDTH 9 0
BBX 7 9 1 0
BITMAP
F8
0C
04
04
7E
04
04
0C
F8
ENDCHAR
STARTCHAR 03F7
ENCODING 1015
SWIDTH 540 0
DWIDTH 9 0
BBX 7 13 1 0
BITMAP
C0
C0
F0
CC
C4
C4
C6
C4
C4
CC
F8
C0
C0
ENDCHAR
STARTCHAR 03F8
ENCODING 1016
SWIDTH 540 0
DWIDTH 9 0
BBX 7 17 1 -4
BITMAP
80
80
80
80
B8
CC
C4
86
86
86
C4
CC
B8
80
80
80
80
ENDCHAR
STARTCHAR 03F9
ENCODING 1017
SWIDTH 540 0
DWIDTH 9 0
BBX 6 13 1 0
BITMAP
78
CC
84
80
80
80
80
80
80
80
84
CC
78
ENDCHAR
STARTCHAR 03FA
ENCODING 1018
SWIDTH 540 0
DWIDTH 9 0
BBX 7 13 1 0
BITMAP
C6
CE
CE
AE
B6
96
86
86
86
86
86
86
86
ENDCHAR
STARTCHAR 03FB
ENCODING 1019
SWIDTH 540 0
DWIDTH 9 0
BBX 7 13 1 -4
BITMAP
C6
CE
AE
B6
86
86
86
86
86
80
80
80
80
ENDCHAR
STARTCHAR 03FC
ENCODING 1020
SWIDTH 540 0
DWIDTH 9 0
BBX 8 13 0 -4
BITMAP
3C
26
62
43
43
43
62
66
5C
40
40
F0
40
ENDCHAR
STARTCHAR 03FD
ENCODING 1021
SWIDTH 540 0
DWIDTH 9 0
BBX 7 13 1 0
BITMAP
78
CC
84
06
06
06
06
06
06
06
84
CC
78
ENDCHAR
STARTCHAR 03FE
ENCODING 1022
SWIDTH 540 0
DWIDTH 9 0
BBX 6 13 1 0
BITMAP
78
CC
84
80
80
80
B0
90
80
80
84
CC
78
ENDCHAR
STARTCHAR 03FF
ENCODING 1023
SWIDTH 540 0
DWIDTH 9 0
BBX 7 13 1 0
BITMAP
78
CC
84
06
06
06
36
16
06
06
84
CC
78
ENDCHAR
STARTCHAR 0400
ENCODING 1024
SWIDTH 540 0
DWIDTH 9 0
BBX 6 17 1 0
BITMAP
20
60
10
00
FC
C0
C0
C0
C0
C0
F8
C0
C0
C0
C0
C0
FC
ENDCHAR
STARTCHAR 0401
ENCODING 1025
SWIDTH 540 0
DWIDTH 9 0
BBX 6 16 1 0
BITMAP
4C
EC
00
FC
C0
C0
C0
C0
C0
F8
C0
C0
C0
C0
C0
FC
ENDCHAR
STARTCHAR 0402
ENCODING 1026
SWIDTH 540 0
DWIDTH 9 0
BBX 8 13 0 0
BITMAP
F8
20
20
20
2E
32
32
23
23
23
23
22
24
ENDCHAR
STARTCHAR 0403
ENCODING 1027
SWIDTH 540 0
DWIDTH 9 0
BBX 6 17 2 0
BITMAP
10
30
60
00
FC
80
80
80
80
80
80
80
80
80
80
80
80
ENDCHAR
STARTCHAR 0404
ENCODING 1028
SWIDTH 540 0
DWIDTH 9 0
BBX 6 13 1 0
BITMAP
78
CC
84
80
80
80
F0
80
80
80
84
CC
78
ENDCHAR
STARTCHAR 0405
ENCODING 1029
SWIDTH 540 0
DWIDTH 9 0
BBX 7 13 1 0
BITMAP
78
4C
84
80
C0
60
38
0C
04
06
84
CC
78
ENDCHAR
STARTCHAR 0406
ENCODING 1030
SWIDTH 540 0
DWIDTH 9 0
BBX 6 13 1 0
BITMAP
FC
10
10
10
10
10
10
10
10
10
10
10
FC
ENDCHAR
STARTCHAR 0407
ENCODING 1031
SWIDTH 540 0
DWIDTH 9 0
BBX 6 16 1 0
BITMAP
4C
EC
00
FC
10
10
10
10
10
10
10
10
10
10
10
FC
ENDCHAR
STARTCHAR 0408
ENCODING 1032
SWIDTH 540 0
DWIDTH 9 0
BBX 6 13 1 0
BITMAP
04
04
04
04
04
04
04
04
04
04
84
CC
78
ENDCHAR
STARTCHAR 0409
ENCODING 1033
SWIDTH 540 0
DWIDTH 9 0
BBX 8 13 0 0
BITMAP
78
48
48
48
48
48
4E
4B
49
49
49
4B
8E
ENDCHAR
STARTCHAR 040A
ENCODING 1034
SWIDTH 540 0
DWIDTH 9 0
BBX 7 13 1 0
BITMAP
90
90
90
90
90
90
FC
96
92
92
92
96
9C
ENDCHAR
STARTCHAR 040B
ENCODING 1035
SWIDTH 540 0
DWIDTH 9 0
BBX 8 13 0 0
BITMAP
F8
20
20
20
2E
32
32
23
23
23
23
23
23
ENDCHAR
STARTCHAR 040C
ENCODING 1036
SWIDTH 540 0
DWIDTH 9 0
BBX 7 17 1 0
BITMAP
08
18
30
00
C6
CC
C8
C8
D8
D0
F0
D0
D0
C8
C8
CC
C6
ENDCHAR
STARTCHAR 040D
ENCODING 1037
SWIDTH 540 0
DWIDTH 9 0
BBX 6 17 1 0
BITMAP
20
60
10
00
84
8C
8C
8C
9C
94
94
B4
A4
A4
E4
C4
C4
ENDCHAR
STARTCHAR 040E
ENCODING 1038
SWIDTH 540 0
DWIDTH 9 0
BBX 7 16 1 0
BITMAP
44
7C
10
86
C4
44
4C
48
68
28
38
30
10
30
20
20
ENDCHAR
STARTCHAR 040F
ENCODING 1039
SWIDTH 540 0
DWIDTH 9 0
BBX 6 15 1 -2
BITMAP
84
84
84
84
84
84
84
84
84
84
84
84
FC
10
10
ENDCHAR
STARTCHAR 0410
ENCODING 1040
SWIDTH 540 0
DWIDTH 9 0
BBX 7 13 1 0
BITMAP
30
30
38
38
28
68
48
4C
4C
FC
C4
84
86
ENDCHAR
STARTCHAR 0411
ENCODING 1041
SWIDTH 540 0
DWIDTH 9 0
BBX 7 13 1 0
BITMAP
FC
80
80
80
80
80
F8
8C
84
86
84
8C
F8
ENDCHAR
STARTCHAR 0412
ENCODING 1042
SWIDTH 540 0
DWIDTH 9 0
BBX 7 13 1 0
BITMAP
F8
8C
84
84
84
8C
F8
8C
86
86
86
8C
F8
ENDCHAR
STARTCHAR 0413
ENCODING 1043
SWIDTH 540 0
DWIDTH 9 0
BBX 6 13 2 0
BITMAP
FC
80
80
80
80
80
80
80
80
80
80
80
80
ENDCHAR
STARTCHAR 0414
ENCODING 1044
SWIDTH 540 0
DWIDTH 9 0
BBX 7 16 1 -3
BITMAP
7C
44
44
44
44
44
44
44
44
44
C4
84
FE
82
82
82
ENDCHAR
STARTCHAR 0415
ENCODING 1045
SWIDTH 540 0
DWIDTH 9 0
BBX 6 13 1 0
BITMAP
FC
C0
C0
C0
C0
C0
F8
C0
C0
C0
C0
C0
FC
ENDCHAR
STARTCHAR 0416
ENCODING 1046
SWIDTH 540 0
DWIDTH 9 0
BBX 8 13 0 0
BITMAP
C9
4B
4A
6A
2A
2E
3C
2E
2A
6A
4A
4B
C9
ENDCHAR
STARTCHAR 0417
ENCODING 1047
SWIDTH 540 0
DWIDTH 9 0
BBX 7 13 1 0
BITMAP
78
4C
C4
04
04
04
38
0C
06
06
86
CC
78
ENDCHAR
STARTCHAR 0418
ENCODING 1048
SWIDTH 540 0
DWIDTH 9 0
BBX 6 13 1 0
BITMAP
84
8C
8C
8C
9C
94
94
B4
A4
A4
E4
C4
C4
ENDCHAR
STARTCHAR 0419
ENCODING 1049
SWIDTH 540 0
DWIDTH 9 0
BBX 6 16 1 0
BITMAP
44
7C
10
84
8C
8C
8C
9C
94
94
B4
A4
A4
E4
C4
C4
ENDCHAR
STARTCHAR 041A
ENCODING 1050
SWIDTH 540 0
DWIDTH 9 0
BBX 7 13 1 0
BITMAP
C6
CC
C8
C8
D8
D0
F0
D0
D0
C8
C8
CC
C6
ENDCHAR
STARTCHAR 041B
ENCODING 1051
SWIDTH 540 0
DWIDTH 9 0
BBX 7 13 0 0
BITMAP
3E
22
22
22
22
22
22
22
22
22
62
42
C2
ENDCHAR
STARTCHAR 041C
ENCODING 1052
SWIDTH 540 0
DWIDTH 9 0
BBX 7 13 1 0
BITMAP
C6
C6
CE
CE
AE
AE
B6
B6
96
86
86
86
86
ENDCHAR
STARTCHAR 041D
ENCODING 1053
SWIDTH 540 0
DWIDTH 9 0
BBX 6 13 1 0
BITMAP
84
84
84
84
84
84
FC
84
84
84
84
84
84
ENDCHAR
STARTCHAR 041E
ENCODING 1054
SWIDTH 540 0
DWIDTH 9 0
BBX 7 13 1 0
BITMAP
78
CC
84
86
86
86
86
86
86
86
84
CC
78
ENDCHAR
STARTCHAR 041F
ENCODING 1055
SWIDTH 540 0
DWIDTH 9 0
BBX 6 13 1 0
BITMAP
FC
84
84
84
84
84
84
84
84
84
84
84
84
ENDCHAR
STARTCHAR 0420
ENCODING 1056
SWIDTH 540 0
DWIDTH 9 0
BBX 7 13 1 0
BITMAP
F8
CC
C6
C6
C6
C6
C4
F8
C0
C0
C0
C0
C0
ENDCHAR
STARTCHAR 0421
ENCODING 1057
SWIDTH 540 0
DWIDTH 9 0
BBX 6 13 1 0
BITMAP
78
CC
84
80
80
80
80
80
80
80
84
CC
78
ENDCHAR
STARTCHAR 0422
ENCODING 1058
SWIDTH 540 0
DWIDTH 9 0
BBX 7 13 1 0
BITMAP
FE
10
10
10
10
10
10
10
10
10
10
10
10
ENDCHAR
STARTCHAR 0423
ENCODING 1059
SWIDTH 540 0
DWIDTH 9 0
BBX 7 13 1 0
BITMAP
86
C4
44
4C
48
68
28
38
30
10
30
20
20
ENDCHAR
STARTCHAR 0424
ENCODING 1060
SWIDTH 540 0
DWIDTH 9 0
BBX 7 13 1 0
BITMAP
10
10
7C
D4
96
92
92
92
92
96
7C
10
10
ENDCHAR
STARTCHAR 0425
ENCODING 1061
SWIDTH 540 0
DWIDTH 9 0
BBX 7 13 1 0
BITMAP
86
C4
4C
68
38
30
10
30
38
68
4C
C4
86
ENDCHAR
STARTCHAR 0426
ENCODING 1062
SWIDTH 540 0
DWIDTH 9 0
BBX 7 16 1 -3
BITMAP
84
84
84
84
84
84
84
84
84
84
84
84
FE
02
02
02
ENDCHAR
STARTCHAR 0427
ENCODING 1063
SWIDTH 540 0
DWIDTH 9 0
BBX 6 13 1 0
BITMAP
84
84
84
84
84
84
84
C4
7C
04
04
04
04
ENDCHAR
STARTCHAR 0428
ENCODING 1064
SWIDTH 540 0
DWIDTH 9 0
BBX 7 13 1 0
BITMAP
96
96
96
96
96
96
96
96
96
96
96
96
FE
ENDCHAR
STARTCHAR 0429
ENCODING 1065
SWIDTH 540 0
DWIDTH 9 0
BBX 7 16 1 -3
BITMAP
96
96
96
96
96
96
96
96
96
96
96
96
FE
02
02
02
ENDCHAR
STARTCHAR 042A
ENCODING 1066
SWIDTH 540 0
DWIDTH 9 0
BBX 8 13 0 0
BITMAP
E0
20
20
20
20
20
3C
22
22
23
22
22
3C
ENDCHAR
STARTCHAR 042B
ENCODING 1067
SWIDTH 540 0
DWIDTH 9 0
BBX 7 13 1 0
BITMAP
86
86
86
86
86
86
E6
96
96
96
96
96
E6
ENDCHAR
STARTCHAR 042C
ENCODING 1068
SWIDTH 540 0
DWIDTH 9 0
BBX 7 13 1 0
BITMAP
80
80
80
80
80
80
F8
8C
84
86
84
8C
F8
ENDCHAR
STARTCHAR 042D
ENCODING 1069
SWIDTH 540 0
DWIDTH 9 0
BBX 7 13 1 0
BITMAP
78
CC
84
06
06
06
3E
06
06
06
84
CC
78
ENDCHAR
STARTCHAR 042E
ENCODING 1070
SWIDTH 540 0
DWIDTH 9 0
BBX 7 13 1 0
BITMAP
9C
B6
A6
A6
A6
A6
E6
A6
A6
A6
A6
B6
9C
ENDCHAR
STARTCHAR 042F
ENCODING 1071
SWIDTH 540 0
DWIDTH 9 0
BBX 6 13 1 0
BITMAP
7C
44
C4
84
84
84
C4
7C
24
24
44
C4
84
ENDCHAR
STARTCHAR 0430
ENCODING 1072
SWIDTH 540 0
DWIDTH 9 0
BBX 6 9 1 0
BITMAP
78
CC
84
04
7C
C4
84
CC
74
ENDCHAR
STARTCHAR 0431
ENCODING 1073
SWIDTH 540 0
DWIDTH 9 0
BBX 7 13 1 0
BITMAP
04
7C
40
80
B8
CC
84
86
86
86
84
CC
78
ENDCHAR
STARTCHAR 0432
ENCODING 1074
SWIDTH 540 0
DWIDTH 9 0
BBX 7 9 1 0
BITMAP
F8
8C
84
84
F8
84
86
86
FC
ENDCHAR
STARTCHAR 0433
ENCODING 1075
SWIDTH 540 0
DWIDTH 9 0
BBX 6 9 2 0
BITMAP
FC
80
80
80
80
80
80
80
80
ENDCHAR
STARTCHAR 0434
ENCODING 1076
SWIDTH 540 0
DWIDTH 9 0
BBX 7 12 1 -3
BITMAP
7C
44
44
44
44
44
44
C4
FE
82
82
82
ENDCHAR
STARTCHAR 0435
ENCODING 1077
SWIDTH 540 0
DWIDTH 9 0
BBX 7 9 1 0
BITMAP
78
CC
84
86
FE
80
86
C4
78
ENDCHAR
STARTCHAR 0436
ENCODING 1078
SWIDTH 540 0
DWIDTH 9 0
BBX 8 9 0 0
BITMAP
C9
4B
6A
2A
3E
2A
6A
4B
C9
ENDCHAR
STARTCHAR 0437
ENCODING 1079
SWIDTH 540 0
DWIDTH 9 0
BBX 7 9 1 0
BITMAP
78
C4
C4
04
38
04
06
C4
7C
ENDCHAR
STARTCHAR 0438
ENCODING 1080
SWIDTH 540 0
DWIDTH 9 0
BBX 6 9 1 0
BITMAP
84
8C
8C
94
94
A4
A4
C4
C4
ENDCHAR
STARTCHAR 0439
ENCODING 1081
SWIDTH 540 0
DWIDTH 9 0
BBX 6 12 1 0
BITMAP
4C
78
00
84
8C
8C
94
94
A4
A4
C4
C4
ENDCHAR
STARTCHAR 043A
ENCODING 1082
SWIDTH 540 0
DWIDTH 9 0
BBX 7 9 1 0
BITMAP
C6
CC
C8
D0
F0
D0
D8
CC
C6
ENDCHAR
STARTCHAR 043B
ENCODING 1083
SWIDTH 540 0
DWIDTH 9 0
BBX 7 9 0 0
BITMAP
3E
22
22
22
22
22
62
62
C2
ENDCHAR
STARTCHAR 043C
ENCODING 1084
SWIDTH 540 0
DWIDTH 9 0
BBX 7 9 1 0
BITMAP
C6
CE
CE
AE
B6
B6
86
86
86
ENDCHAR
STARTCHAR 043D
ENCODING 1085
SWIDTH 540 0
DWIDTH 9 0
BBX 6 9 1 0
BITMAP
84
84
84
84
FC
84
84
84
84
ENDCHAR
STARTCHAR 043E
ENCODING 1086
SWIDTH 540 0
DWIDTH 9 0
BBX 7 9 1 0
BITMAP
78
CC
84
86
86
86
84
CC
78
ENDCHAR
STARTCHAR 043F
ENCODING 1087
SWIDTH 540 0
DWIDTH 9 0
BBX 6 9 1 0
BITMAP
FC
84
84
84
84
84
84
84
84
ENDCHAR
STARTCHAR 0440
ENCODING 1088
SWIDTH 540 0
DWIDTH 9 0
BBX 7 13 1 -4
BITMAP
B8
CC
C4
86
86
86
C4
CC
B8
80
80
80
80
ENDCHAR
STARTCHAR 0441
ENCODING 1089
SWIDTH 540 0
DWIDTH 9 0
BBX 6 9 1 0
BITMAP
78
CC
84
80
80
80
84
CC
78
ENDCHAR
STARTCHAR 0442
ENCODING 1090
SWIDTH 540 0
DWIDTH 9 0
BBX 7 9 1 0
BITMAP
FE
10
10
10
10
10
10
10
10
ENDCHAR
STARTCHAR 0443
ENCODING 1091
SWIDTH 540 0
DWIDTH 9 0
BBX 7 13 1 -4
BITMAP
86
C4
44
4C
48
68
28
38
30
10
30
20
20
ENDCHAR
STARTCHAR 0444
ENCODING 1092
SWIDTH 540 0
DWIDTH 9 0
BBX 7 17 1 -4
BITMAP
10
10
10
10
7C
D4
96
92
92
92
96
D4
7C
10
10
10
10
ENDCHAR
STARTCHAR 0445
ENCODING 1093
SWIDTH 540 0
DWIDTH 9 0
BBX 7 9 1 0
BITMAP
C6
4C
68
38
10
38
68
4C
C6
ENDCHAR
STARTCHAR 0446
ENCODING 1094
SWIDTH 540 0
DWIDTH 9 0
BBX 7 12 1 -3
BITMAP
84
84
84
84
84
84
84
84
FE
02
02
02
ENDCHAR
STARTCHAR 0447
ENCODING 1095
SWIDTH 540 0
DWIDTH 9 0
BBX 6 9 1 0
BITMAP
84
84
84
84
C4
7C
04
04
04
ENDCHAR
STARTCHAR 0448
ENCODING 1096
SWIDTH 540 0
DWIDTH 9 0
BBX 7 9 1 0
BITMAP
96
96
96
96
96
96
96
96
FE
ENDCHAR
STARTCHAR 0449
ENCODING 1097
SWIDTH 540 0
DWIDTH 9 0
BBX 7 12 1 -3
BITMAP
96
96
96
96
96
96
96
96
FE
02
02
02
ENDCHAR
STARTCHAR 044A
ENCODING 1098
SWIDTH 540 0
DWIDTH 9 0
BBX 8 9 0 0
BITMAP
E0
20
20
20
3E
22
23
22
3E
ENDCHAR
STARTCHAR 044B
ENCODING 1099
SWIDTH 540 0
DWIDTH 9 0
BBX 7 9 1 0
BITMAP
86
86
86
86
F6
96
96
96
F6
ENDCHAR
STARTCHAR 044C
ENCODING 1100
SWIDTH 540 0
DWIDTH 9 0
BBX 7 9 1 0
BITMAP
80
80
80
80
FC
84
86
84
FC
ENDCHAR
STARTCHAR 044D
ENCODING 1101
SWIDTH 540 0
DWIDTH 9 0
BBX 7 9 1 0
BITMAP
78
CC
84
06
3E
06
84
CC
78
ENDCHAR
STARTCHAR 044E
ENCODING 1102
SWIDTH 540 0
DWIDTH 9 0
BBX 7 9 1 0
BITMAP
9C
B6
A6
A6
E6
A6
A6
B6
9C
ENDCHAR
STARTCHAR 044F
ENCODING 1103
SWIDTH 540 0
DWIDTH 9 0
BBX 6 9 1 0
BITMAP
7C
C4
84
C4
7C
24
64
44
C4
ENDCHAR
STARTCHAR 0450
ENCODING 1104
SWIDTH 540 0
DWIDTH 9 0
BBX 7 13 1 0
BITMAP
60
20
10
00
78
CC
84
86
FE
80
86
C4
78
ENDCHAR
STARTCHAR 0451
ENCODING 1105
SWIDTH 540 0
DWIDTH 9 0
BBX 7 12 1 0
BITMAP
EC
4C
00
78
CC
84
86
FE
80
86
C4
78
ENDCHAR
STARTCHAR 0452
ENCODING 1106
SWIDTH 540 0
DWIDTH 9 0
BBX 7 17 0 -4
BITMAP
40
40
F0
40
5C
66
62
42
42
42
42
42
42
02
02
06
0C
ENDCHAR
STARTCHAR 0453
ENCODING 1107
SWIDTH 540 0
DWIDTH 9 0
BBX 6 13 2 0
BITMAP
10
30
60
00
FC
80
80
80
80
80
80
80
80
ENDCHAR
STARTCHAR 0454
ENCODING 1108
SWIDTH 540 0
DWIDTH 9 0
BBX 6 9 1 0
BITMAP
78
CC
84
80
F0
80
84
CC
78
ENDCHAR
STARTCHAR 0455
ENCODING 1109
SWIDTH 540 0
DWIDTH 9 0
BBX 6 9 1 0
BITMAP
78
CC
C0
40
38
0C
04
C4
78
ENDCHAR
STARTCHAR 0456
ENCODING 1110
SWIDTH 540 0
DWIDTH 9 0
BBX 6 12 1 0
BITMAP
30
30
00
70
10
10
10
10
10
10
10
FC
ENDCHAR
STARTCHAR 0457
ENCODING 1111
SWIDTH 540 0
DWIDTH 9 0
BBX 6 12 1 0
BITMAP
EC
4C
00
70
10
10
10
10
10
10
10
FC
ENDCHAR
STARTCHAR 0458
ENCODING 1112
SWIDTH 540 0
DWIDTH 9 0
BBX 5 16 1 -4
BITMAP
18
18
00
78
08
08
08
08
08
08
08
08
08
08
18
F0
ENDCHAR
STARTCHAR 0459
ENCODING 1113
SWIDTH 540 0
DWIDTH 9 0
BBX 8 9 0 0
BITMAP
78
48
48
48
4E
4B
49
4B
CE
ENDCHAR
STARTCHAR 045A
ENCODING 1114
SWIDTH 540 0
DWIDTH 9 0
BBX 7 9 1 0
BITMAP
90
90
90
90
FC
96
92
96
9C
ENDCHAR
STARTCHAR 045B
ENCODING 1115
SWIDTH 540 0
DWIDTH 9 0
BBX 7 13 0 0
BITMAP
40
40
F0
40
5C
66
62
42
42
42
42
42
42
ENDCHAR
STARTCHAR 045C
ENCODING 1116
SWIDTH 540 0
DWIDTH 9 0
BBX 7 13 1 0
BITMAP
08
18
30
00
C6
CC
C8
D0
F0
D0
D8
CC
C6
ENDCHAR
STARTCHAR 045D
ENCODING 1117
SWIDTH 540 0
DWIDTH 9 0
BBX 6 13 1 0
BITMAP
60
20
10
00
84
8C
8C
94
94
A4
A4
C4
C4
ENDCHAR
STARTCHAR 045E
ENCODING 1118
SWIDTH 540 0
DWIDTH 9 0
BBX 7 16 1 -4
BITMAP
4C
78
00
86
C4
44
4C
48
68
28
38
30
10
30
20
20
ENDCHAR
STARTCHAR 045F
ENCODING 1119
SWIDTH 540 0
DWIDTH 9 0
BBX 6 11 1 -2
BITMAP
84
84
84
84
84
84
84
84
FC
10
10
ENDCHAR
STARTCHAR 0460
ENCODING 1120
SWIDTH 540 0
DWIDTH 9 0
BBX 7 13 1 0
BITMAP
B6
B6
96
B4
B4
B4
B4
F4
74
74
6C
6C
48
ENDCHAR
STARTCHAR 0461
ENCODING 1121
SWIDTH 540 0
DWIDTH 9 0
BBX 7 9 1 0
BITMAP
B6
96
B4
B4
B4
F4
74
6C
48
ENDCHAR
STARTCHAR 0462
ENCODING 1122
SWIDTH 540 0
DWIDTH 9 0
BBX 8 13 0 0
BITMAP
30
30
30
FC
30
30
3E
32
33
33
33
32
3E
ENDCHAR
STARTCHAR 0463
ENCODING 1123
SWIDTH 540 0
DWIDTH 9 0
BBX 8 13 0 0
BITMAP
30
30
30
30
FC
30
30
30
3E
33
33
33
3E
ENDCHAR
STARTCHAR 0464
ENCODING 1124
SWIDTH 540 0
DWIDTH 9 0
BBX 7 13 1 0
BITMAP
9C
B4
A6
A0
A0
A0
F8
A0
A0
A0
A6
B4
9C
ENDCHAR
STARTCHAR 0465
ENCODING 1125
SWIDTH 540 0
DWIDTH 9 0
BBX 7 9 1 0
BITMAP
9C
B4
A6
A0
F8
A0
A6
B4
9C
ENDCHAR
STARTCHAR 0466
ENCODING 1126
SWIDTH 540 0
DWIDTH 9 0
BBX 7 13 1 0
BITMAP
30
30
38
28
28
68
48
7C
54
D4
94
96
92
ENDCHAR
STARTCHAR 0467
ENCODING 1127
SWIDTH 540 0
DWIDTH 9 0
BBX 7 9 1 0
BITMAP
30
30
28
68
48
7C
D4
94
96
ENDCHAR
STARTCHAR 0468
ENCODING 1128
SWIDTH 540 0
DWIDTH 9 0
BBX 7 13 1 0
BITMAP
88
98
98
9C
94
94
94
FC
AC
AE
AA
AA
AA
ENDCHAR
STARTCHAR 0469
ENCODING 1129
SWIDTH 540 0
DWIDTH 9 0
BBX 7 9 1 0
BITMAP
88
98
9C
94
94
FC
AE
AA
AA
ENDCHAR
STARTCHAR 046A
ENCODING 1130
SWIDTH 540 0
DWIDTH 9 0
BBX 7 13 1 0
BITMAP
FE
84
44
48
68
38
7C
54
D4
94
94
96
92
ENDCHAR
STARTCHAR 046B
ENCODING 1131
SWIDTH 540 0
DWIDTH 9 0
BBX 7 9 1 0
BITMAP
FE
44
48
28
7C
54
94
96
92
ENDCHAR
STARTCHAR 046C
ENCODING 1132
SWIDTH 540 0
DWIDTH 9 0
BBX 7 13 1 0
BITMAP
FE
A2
A4
B4
94
9C
FC
AC
AE
AA
AA
AA
EA
ENDCHAR
STARTCHAR 046D
ENCODING 1133
SWIDTH 540 0
DWIDTH 9 0
BBX 7 9 1 0
BITMAP
FE
A2
94
94
FC
AC
AA
AA
EA
ENDCHAR
STARTCHAR 046E
ENCODING 1134
SWIDTH 540 0
DWIDTH 9 0
BBX 7 21 1 -4
BITMAP
48
6C
38
00
78
4C
C4
04
04
04
38
0C
06
06
06
0C
78
C0
80
C0
60
ENDCHAR
STARTCHAR 046F
ENCODING 1135
SWIDTH 540 0
DWIDTH 9 0
BBX 7 17 1 -4
BITMAP
4C
68
30
00
78
C4
C4
04
38
04
06
06
7C
C0
80
C0
60
ENDCHAR
STARTCHAR 0470
ENCODING 1136
SWIDTH 540 0
DWIDTH 9 0
BBX 7 13 1 0
BITMAP
96
96
96
96
96
96
96
D4
7C
10
10
10
10
ENDCHAR
STARTCHAR 0471
ENCODING 1137
SWIDTH 540 0
DWIDTH 9 0
BBX 7 13 1 -4
BITMAP
96
96
96
96
96
96
96
D4
7C
10
10
10
10
ENDCHAR
STARTCHAR 0472
ENCODING 1138
SWIDTH 540 0
DWIDTH 9 0
BBX 7 13 1 0
BITMAP
78
CC
84
86
86
E6
96
9E
86
86
84
CC
78
ENDCHAR
STARTCHAR 0473
ENCODING 1139
SWIDTH 540 0
DWIDTH 9 0
BBX 7 9 1 0
BITMAP
78
CC
84
E6
9E
86
84
CC
78
ENDCHAR
STARTCHAR 0474
ENCODING 1140
SWIDTH 540 0
DWIDTH 9 0
BBX 7 13 1 0
BITMAP
86
84
CC
CC
48
48
48
68
28
28
28
30
30
ENDCHAR
STARTCHAR 0475
ENCODING 1141
SWIDTH 540 0
DWIDTH 9 0
BBX 7 9 1 0
BITMAP
86
C4
4C
4C
48
68
28
38
30
ENDCHAR
STARTCHAR 0476
ENCODING 1142
SWIDTH 540 0
DWIDTH 9 0
BBX 7 17 1 0
BITMAP
90
D0
6C
00
86
84
CC
CC
48
48
48
68
28
28
28
30
30
ENDCHAR
STARTCHAR 0477
ENCODING 1143
SWIDTH 540 0
DWIDTH 9 0
BBX 7 13 1 0
BITMAP
90
D8
6C
00
86
C4
4C
4C
48
68
28
38
30
ENDCHAR
STARTCHAR 0478
ENCODING 1144
SWIDTH 540 0
DWIDTH 9 0
BBX 8 17 0 -4
BITMAP
60
90
90
90
95
95
95
95
95
95
96
92
62
02
02
02
06
ENDCHAR
STARTCHAR 0479
ENCODING 1145
SWIDTH 540 0
DWIDTH 9 0
BBX 8 13 0 -4
BITMAP
65
95
95
95
95
95
96
92
62
02
02
02
06
ENDCHAR
STARTCHAR 047A
ENCODING 1146
SWIDTH 540 0
DWIDTH 9 0
BBX 7 15 1 -1
BITMAP
30
7C
B4
86
82
82
82
82
82
82
82
86
B4
7C
30
ENDCHAR
STARTCHAR 047B
ENCODING 1147
SWIDTH 540 0
DWIDTH 9 0
BBX 7 11 1 -1
BITMAP
30
7C
B4
86
82
82
82
86
B4
7C
30
ENDCHAR
STARTCHAR 047C
ENCODING 1148
SWIDTH 540 0
DWIDTH 9 0
BBX 7 18 1 0
BITMAP
30
7E
72
10
30
4C
86
82
82
82
82
82
82
82
92
92
B6
EC
ENDCHAR
STARTCHAR 047D
ENCODING 1149
SWIDTH 540 0
DWIDTH 9 0
BBX 7 14 1 0
BITMAP
38
56
30
10
30
4C
86
82
82
82
82
92
B6
EC
ENDCHAR
STARTCHAR 047E
ENCODING 1150
SWIDTH 540 0
DWIDTH 9 0
BBX 7 17 1 0
BITMAP
FC
FC
94
00
B6
B6
96
B4
B4
B4
B4
F4
74
74
6C
6C
48
ENDCHAR
STARTCHAR 047F
ENCODING 1151
SWIDTH 540 0
DWIDTH 9 0
BBX 7 13 1 0
BITMAP
FC
94
94
00
B6
96
B4
B4
B4
F4
74
6C
48
ENDCHAR
STARTCHAR 0480
ENCODING 1152
SWIDTH 540 0
DWIDTH 9 0
BBX 6 17 1 -4
BITMAP
78
CC
84
80
80
80
80
80
80
80
80
C8
78
18
18
18
18
ENDCHAR
STARTCHAR 0481
ENCODING 1153
SWIDTH 540 0
DWIDTH 9 0
BBX 6 13 1 -4
BITMAP
78
CC
84
80
80
80
80
C8
78
18
18
18
18
ENDCHAR
STARTCHAR 0482
ENCODING 1154
SWIDTH 540 0
DWIDTH 9 0
BBX 7 11 1 -3
BITMAP
04
04
68
18
1E
92
E0
30
48
C0
40
ENDCHAR
STARTCHAR 0483
ENCODING 1155
SWIDTH 0 0
DWIDTH 0 0
BBX 5 3 -7 10
BITMAP
08
F8
C0
ENDCHAR
STARTCHAR 0484
ENCODING 1156
SWIDTH 0 0
DWIDTH 0 0
BBX 6 2 -8 10
BITMAP
3C
C4
ENDCHAR
STARTCHAR 0485
ENCODING 1157
SWIDTH 0 0
DWIDTH 0 0
BBX 2 3 -5 10
BITMAP
C0
80
C0
ENDCHAR
STARTCHAR 0486
ENCODING 1158
SWIDTH 0 0
DWIDTH 0 0
BBX 2 3 -5 10
BITMAP
C0
C0
80
ENDCHAR
STARTCHAR 0487
ENCODING 1159
SWIDTH 0 0
DWIDTH 0 0
BBX 6 2 -7 10
BITMAP
70
CC
ENDCHAR
STARTCHAR 048A
ENCODING 1162
SWIDTH 540 0
DWIDTH 9 0
BBX 8 20 1 -3
BITMAP
44
4C
78
00
84
8C
8C
8C
9C
94
94
B4
A4
A4
E4
C4
C7
02
02
06
ENDCHAR
STARTCHAR 048B
ENCODING 1163
SWIDTH 540 0
DWIDTH 9 0
BBX 8 16 1 -3
BITMAP
44
4C
78
00
84
8C
8C
94
94
A4
A4
C4
C7
02
02
06
ENDCHAR
STARTCHAR 048C
ENCODING 1164
SWIDTH 540 0
DWIDTH 9 0
BBX 8 13 0 0
BITMAP
40
40
F0
40
40
40
7C
46
42
43
42
46
7C
ENDCHAR
STARTCHAR 048D
ENCODING 1165
SWIDTH 540 0
DWIDTH 9 0
BBX 8 9 0 0
BITMAP
40
F0
40
40
7E
42
43
42
7E
ENDCHAR
STARTCHAR 048E
ENCODING 1166
SWIDTH 540 0
DWIDTH 9 0
BBX 7 13 1 0
BITMAP
F8
CC
C6
C6
D6
D6
DC
F8
CC
C4
C0
C0
C0
ENDCHAR
STARTCHAR 048F
ENCODING 1167
SWIDTH 540 0
DWIDTH 9 0
BBX 7 13 1 -4
BITMAP
B8
CC
C4
86
86
86
D4
DC
B8
8C
84
80
80
ENDCHAR
STARTCHAR 0490
ENCODING 1168
SWIDTH 540 0
DWIDTH 9 0
BBX 6 15 2 0
BITMAP
0C
0C
FC
80
80
80
80
80
80
80
80
80
80
80
80
ENDCHAR
STARTCHAR 0491
ENCODING 1169
SWIDTH 540 0
DWIDTH 9 0
BBX 6 12 2 0
BITMAP
0C
0C
0C
FC
80
80
80
80
80
80
80
80
ENDCHAR
STARTCHAR 0492
ENCODING 1170
SWIDTH 540 0
DWIDTH 9 0
BBX 8 13 0 0
BITMAP
3F
20
20
20
20
20
F8
20
20
20
20
20
20
ENDCHAR
STARTCHAR 0493
ENCODING 1171
SWIDTH 540 0
DWIDTH 9 0
BBX 8 9 0 0
BITMAP
3F
20
20
20
F8
20
20
20
20
ENDCHAR
STARTCHAR 0494
ENCODING 1172
SWIDTH 540 0
DWIDTH 9 0
BBX 6 17 2 -4
BITMAP
FC
80
80
80
80
80
B0
D8
88
88
88
88
88
08
08
18
30
ENDCHAR
STARTCHAR 0495
ENCODING 1173
SWIDTH 540 0
DWIDTH 9 0
BBX 6 13 2 -4
BITMAP
FC
80
80
80
B8
C8
88
88
88
08
08
18
30
ENDCHAR
STARTCHAR 0496
ENCODING 1174
SWIDTH 540 0
DWIDTH 9 0
BBX 9 16 0 -3
BITMAP
C900
4B00
4A00
6A00
2A00
2E00
3C00
2E00
2A00
6A00
4A00
4B00
C980
0080
0080
0080
ENDCHAR
STARTCHAR 0497
ENCODING 1175
SWIDTH 540 0
DWIDTH 9 0
BBX 9 12 0 -3
BITMAP
C900
4B00
6A00
2A00
3E00
2A00
6A00
4A00
C980
0080
0080
0080
ENDCHAR
STARTCHAR 0498
ENCODING 1176
SWIDTH 540 0
DWIDTH 9 0
BBX 7 15 1 -2
BITMAP
78
4C
C4
04
04
04
38
0C
06
06
86
CC
78
10
10
ENDCHAR
STARTCHAR 0499
ENCODING 1177
SWIDTH 540 0
DWIDTH 9 0
BBX 7 12 1 -3
BITMAP
78
C4
C4
04
38
04
06
C4
7C
10
10
10
ENDCHAR
STARTCHAR 049A
ENCODING 1178
SWIDTH 540 0
DWIDTH 9 0
BBX 7 16 1 -3
BITMAP
C6
CC
C8
C8
D8
D0
F0
D0
D0
C8
C8
CC
C6
02
02
02
ENDCHAR
STARTCHAR 049B
ENCODING 1179
SWIDTH 540 0
DWIDTH 9 0
BBX 7 11 1 -2
BITMAP
C6
CC
C8
D0
F0
D0
D8
CC
C6
02
02
ENDCHAR
STARTCHAR 049C
ENCODING 1180
SWIDTH 540 0
DWIDTH 9 0
BBX 7 13 1 0
BITMAP
C6
C4
C4
CC
E8
E8
F8
E8
E8
E8
C4
C4
C6
ENDCHAR
STARTCHAR 049D
ENCODING 1181
SWIDTH 540 0
DWIDTH 9 0
BBX 7 9 1 0
BITMAP
C6
C4
EC
E8
F8
E8
E8
C4
C6
ENDCHAR
STARTCHAR 049E
ENCODING 1182
SWIDTH 540 0
DWIDTH 9 0
BBX 8 13 0 0
BITMAP
63
66
F4
64
6C
68
78
68
68
64
64
66
63
ENDCHAR
STARTCHAR 049F
ENCODING 1183
SWIDTH 540 0
DWIDTH 9 0
BBX 8 13 0 0
BITMAP
60
60
F0
60
63
66
64
68
78
68
6C
66
63
ENDCHAR
STARTCHAR 04A0
ENCODING 1184
SWIDTH 540 0
DWIDTH 9 0
BBX 8 13 0 0
BITMAP
F3
32
36
34
34
3C
38
3C
34
34
36
32
33
ENDCHAR
STARTCHAR 04A1
ENCODING 1185
SWIDTH 540 0
DWIDTH 9 0
BBX 8 9 0 0
BITMAP
F3
36
34
3C
38
3C
34
36
33
ENDCHAR
STARTCHAR 04A2
ENCODING 1186
SWIDTH 540 0
DWIDTH 9 0
BBX 7 16 1 -3
BITMAP
84
84
84
84
84
84
FC
84
84
84
84
84
86
02
02
02
ENDCHAR
STARTCHAR 04A3
ENCODING 1187
SWIDTH 540 0
DWIDTH 9 0
BBX 7 12 1 -3
BITMAP
84
84
84
84
FC
84
84
84
86
02
02
02
ENDCHAR
STARTCHAR 04A4
ENCODING 1188
SWIDTH 540 0
DWIDTH 9 0
BBX 7 13 1 0
BITMAP
8E
88
88
88
88
88
F8
88
88
88
88
88
88
ENDCHAR
STARTCHAR 04A5
ENCODING 1189
SWIDTH 540 0
DWIDTH 9 0
BBX 7 9 1 0
BITMAP
8E
88
88
88
F8
88
88
88
88
ENDCHAR
STARTCHAR 04A6
ENCODING 1190
SWIDTH 540 0
DWIDTH 9 0
BBX 7 17 1 -4
BITMAP
F0
90
90
90
94
9C
96
96
96
96
96
96
96
06
06
04
0C
ENDCHAR
STARTCHAR 04A7
ENCODING 1191
SWIDTH 540 0
DWIDTH 9 0
BBX 7 13 1 -4
BITMAP
F0
90
90
9C
94
96
96
96
96
06
06
04
0C
ENDCHAR
STARTCHAR 04A8
ENCODING 1192
SWIDTH 540 0
DWIDTH 9 0
BBX 7 13 1 0
BITMAP
60
C0
80
8C
94
96
92
92
92
96
9C
CC
7E
ENDCHAR
STARTCHAR 04A9
ENCODING 1193
SWIDTH 540 0
DWIDTH 9 0
BBX 7 9 1 0
BITMAP
60
C0
9C
96
92
92
96
DC
7E
ENDCHAR
STARTCHAR 04AA
ENCODING 1194
SWIDTH 540 0
DWIDTH 9 0
BBX 6 15 1 -2
BITMAP
78
CC
84
80
80
80
80
80
80
84
C4
7C
10
10
10
ENDCHAR
STARTCHAR 04AB
ENCODING 1195
SWIDTH 540 0
DWIDTH 9 0
BBX 6 12 1 -3
BITMAP
78
CC
84
80
80
80
84
C4
78
10
10
10
ENDCHAR
STARTCHAR 04AC
ENCODING 1196
SWIDTH 540 0
DWIDTH 9 0
BBX 7 16 1 -3
BITMAP
FE
10
10
10
10
10
10
10
10
10
10
10
18
08
08
08
ENDCHAR
STARTCHAR 04AD
ENCODING 1197
SWIDTH 540 0
DWIDTH 9 0
BBX 7 12 1 -3
BITMAP
FE
10
10
10
10
10
10
10
18
08
08
08
ENDCHAR
STARTCHAR 04AE
ENCODING 1198
SWIDTH 540 0
DWIDTH 9 0
BBX 7 13 1 0
BITMAP
86
C4
4C
48
68
38
30
30
10
10
10
10
10
ENDCHAR
STARTCHAR 04AF
ENCODING 1199
SWIDTH 540 0
DWIDTH 9 0
BBX 7 13 1 -4
BITMAP
86
C4
44
4C
48
68
38
30
30
10
10
10
10
ENDCHAR
STARTCHAR 04B0
ENCODING 1200
SWIDTH 540 0
DWIDTH 9 0
BBX 7 13 1 0
BITMAP
86
C4
4C
48
68
38
30
78
78
10
10
10
10
ENDCHAR
STARTCHAR 04B1
ENCODING 1201
SWIDTH 540 0
DWIDTH 9 0
BBX 7 13 1 -4
BITMAP
86
C4
44
4C
48
68
38
30
78
78
10
10
10
ENDCHAR
STARTCHAR 04B2
ENCODING 1202
SWIDTH 540 0
DWIDTH 9 0
BBX 7 16 1 -3
BITMAP
86
C4
4C
68
38
30
10
30
38
68
4C
C4
86
02
02
02
ENDCHAR
STARTCHAR 04B3
ENCODING 1203
SWIDTH 540 0
DWIDTH 9 0
BBX 7 11 1 -2
BITMAP
C6
4C
68
38
10
38
68
4C
C6
02
02
ENDCHAR
STARTCHAR 04B4
ENCODING 1204
SWIDTH 540 0
DWIDTH 9 0
BBX 8 16 0 -3
BITMAP
FB
23
23
23
23
23
23
23
23
23
23
23
3F
01
01
01
ENDCHAR
STARTCHAR 04B5
ENCODING 1205
SWIDTH 540 0
DWIDTH 9 0
BBX 8 12 0 -3
BITMAP
FB
23
23
23
23
23
23
23
3F
01
01
01
ENDCHAR
STARTCHAR 04B6
ENCODING 1206
SWIDTH 540 0
DWIDTH 9 0
BBX 7 16 1 -3
BITMAP
84
84
84
84
84
84
84
C4
7C
04
04
04
06
02
02
02
ENDCHAR
STARTCHAR 04B7
ENCODING 1207
SWIDTH 540 0
DWIDTH 9 0
BBX 7 12 1 -3
BITMAP
84
84
84
84
C4
7C
04
04
06
02
02
02
ENDCHAR
STARTCHAR 04B8
ENCODING 1208
SWIDTH 540 0
DWIDTH 9 0
BBX 6 13 1 0
BITMAP
84
84
84
84
84
84
94
D4
7C
14
14
04
04
ENDCHAR
STARTCHAR 04B9
ENCODING 1209
SWIDTH 540 0
DWIDTH 9 0
BBX 6 9 1 0
BITMAP
84
84
84
94
D4
7C
14
14
04
ENDCHAR
STARTCHAR 04BA
ENCODING 1210
SWIDTH 540 0
DWIDTH 9 0
BBX 6 13 1 0
BITMAP
80
80
80
80
80
F8
CC
84
84
84
84
84
84
ENDCHAR
STARTCHAR 04BB
ENCODING 1211
SWIDTH 540 0
DWIDTH 9 0
BBX 6 13 1 0
BITMAP
80
80
80
80
B8
CC
C4
84
84
84
84
84
84
ENDCHAR
STARTCHAR 04BC
ENCODING 1212
SWIDTH 540 0
DWIDTH 9 0
BBX 7 13 1 0
BITMAP
1C
36
26
26
A6
A6
FE
20
20
20
26
34
1C
ENDCHAR
STARTCHAR 04BD
ENCODING 1213
SWIDTH 540 0
DWIDTH 9 0
BBX 7 9 1 0
BITMAP
1C
36
A6
A6
FE
20
26
34
1C
ENDCHAR
STARTCHAR 04BE
ENCODING 1214
SWIDTH 540 0
DWIDTH 9 0
BBX 7 16 1 -3
BITMAP
1C
36
26
26
A6
A6
FE
20
20
20
26
34
1C
08
08
08
ENDCHAR
STARTCHAR 04BF
ENCODING 1215
SWIDTH 540 0
DWIDTH 9 0
BBX 7 12 1 -3
BITMAP
1C
36
A6
A6
FE
20
20
36
1C
08
08
08
ENDCHAR
STARTCHAR 04C0
ENCODING 1216
SWIDTH 540 0
DWIDTH 9 0
BBX 6 13 1 0
BITMAP
FC
10
10
10
10
10
10
10
10
10
10
10
FC
ENDCHAR
STARTCHAR 04C1
ENCODING 1217
SWIDTH 540 0
DWIDTH 9 0
BBX 8 16 0 0
BITMAP
22
3E
08
C9
4B
4A
6A
2A
2E
3C
2E
2A
6A
4A
4B
C9
ENDCHAR
STARTCHAR 04C2
ENCODING 1218
SWIDTH 540 0
DWIDTH 9 0
BBX 8 12 0 0
BITMAP
26
3C
00
C9
4B
6A
2A
3E
2A
6A
4B
C9
ENDCHAR
STARTCHAR 04C3
ENCODING 1219
SWIDTH 540 0
DWIDTH 9 0
BBX 7 17 1 -4
BITMAP
C6
CC
C8
C8
D8
D0
F8
CC
C4
C4
C4
C4
C4
04
04
0C
18
ENDCHAR
STARTCHAR 04C4
ENCODING 1220
SWIDTH 540 0
DWIDTH 9 0
BBX 7 13 1 -4
BITMAP
C6
CC
C8
D0
F8
CC
C4
C4
C4
04
04
0C
18
ENDCHAR
STARTCHAR 04C5
ENCODING 1221
SWIDTH 540 0
DWIDTH 9 0
BBX 9 16 0 -3
BITMAP
3E00
2200
2200
2200
2200
2200
2200
2200
2200
2200
6200
4280
C300
0100
0100
0300
ENDCHAR
STARTCHAR 04C6
ENCODING 1222
SWIDTH 540 0
DWIDTH 9 0
BBX 9 12 0 -3
BITMAP
3E00
2200
2200
2200
2200
2200
6200
6280
C300
0100
0100
0300
ENDCHAR
STARTCHAR 04C7
ENCODING 1223
SWIDTH 540 0
DWIDTH 9 0
BBX 6 17 1 -4
BITMAP
84
84
84
84
84
84
FC
84
84
84
84
84
84
04
04
0C
18
ENDCHAR
STARTCHAR 04C8
ENCODING 1224
SWIDTH 540 0
DWIDTH 9 0
BBX 6 13 1 -4
BITMAP
84
84
84
84
FC
84
84
84
84
04
04
0C
18
ENDCHAR
STARTCHAR 04C9
ENCODING 1225
SWIDTH 540 0
DWIDTH 9 0
BBX 8 16 1 -3
BITMAP
84
84
84
84
84
84
FC
84
84
84
84
84
87
02
02
06
ENDCHAR
STARTCHAR 04CA
ENCODING 1226
SWIDTH 540 0
DWIDTH 9 0
BBX 8 12 1 -3
BITMAP
84
84
84
84
FC
84
84
84
87
02
02
06
ENDCHAR
STARTCHAR 04CB
ENCODING 1227
SWIDTH 540 0
DWIDTH 9 0
BBX 6 16 1 -3
BITMAP
84
84
84
84
84
84
84
C4
7C
04
04
04
0C
08
08
08
ENDCHAR
STARTCHAR 04CC
ENCODING 1228
SWIDTH 540 0
DWIDTH 9 0
BBX 6 12 1 -3
BITMAP
84
84
84
84
C4
7C
04
04
0C
08
08
08
ENDCHAR
STARTCHAR 04CD
ENCODING 1229
SWIDTH 540 0
DWIDTH 9 0
BBX 8 16 1 -3
BITMAP
C6
C6
CE
CE
AE
AE
B6
B6
96
86
86
86
87
02
02
06
ENDCHAR
STARTCHAR 04CE
ENCODING 1230
SWIDTH 540 0
DWIDTH 9 0
BBX 8 12 1 -3
BITMAP
C6
CE
CE
AE
B6
B6
86
86
87
02
02
06
ENDCHAR
STARTCHAR 04CF
ENCODING 1231
SWIDTH 540 0
DWIDTH 9 0
BBX 6 13 1 0
BITMAP
F0
10
10
10
10
10
10
10
10
10
10
10
0C
ENDCHAR
STARTCHAR 04D0
ENCODING 1232
SWIDTH 540 0
DWIDTH 9 0
BBX 7 16 1 0
BITMAP
44
7C
10
30
30
38
38
28
68
48
4C
4C
FC
C4
84
86
ENDCHAR
STARTCHAR 04D1
ENCODING 1233
SWIDTH 540 0
DWIDTH 9 0
BBX 6 12 1 0
BITMAP
4C
78
00
78
CC
84
04
7C
C4
84
CC
74
ENDCHAR
STARTCHAR 04D2
ENCODING 1234
SWIDTH 540 0
DWIDTH 9 0
BBX 7 16 1 0
BITMAP
4C
EC
00
30
30
38
38
28
68
48
4C
4C
FC
C4
84
86
ENDCHAR
STARTCHAR 04D3
ENCODING 1235
SWIDTH 540 0
DWIDTH 9 0
BBX 6 12 1 0
BITMAP
EC
4C
00
78
CC
84
04
7C
C4
84
CC
74
ENDCHAR
STARTCHAR 04D4
ENCODING 1236
SWIDTH 540 0
DWIDTH 9 0
BBX 7 13 1 0
BITMAP
3E
30
30
30
70
50
5C
50
50
F0
90
90
9E
ENDCHAR
STARTCHAR 04D5
ENCODING 1237
SWIDTH 540 0
DWIDTH 9 0
BBX 7 9 1 0
BITMAP
7C
B6
92
12
7E
90
92
B6
FC
ENDCHAR
STARTCHAR 04D6
ENCODING 1238
SWIDTH 540 0
DWIDTH 9 0
BBX 6 16 1 0
BITMAP
44
7C
10
FC
C0
C0
C0
C0
C0
F8
C0
C0
C0
C0
C0
FC
ENDCHAR
STARTCHAR 04D7
ENCODING 1239
SWIDTH 540 0
DWIDTH 9 0
BBX 7 12 1 0
BITMAP
4C
78
00
78
CC
84
86
FE
80
86
C4
78
ENDCHAR
STARTCHAR 04D8
ENCODING 1240
SWIDTH 540 0
DWIDTH 9 0
BBX 7 13 1 0
BITMAP
78
CC
84
06
06
06
FE
86
86
86
84
CC
78
ENDCHAR
STARTCHAR 04D9
ENCODING 1241
SWIDTH 540 0
DWIDTH 9 0
BBX 7 9 1 0
BITMAP
78
CC
84
06
FE
86
84
CC
78
ENDCHAR
STARTCHAR 04DA
ENCODING 1242
SWIDTH 540 0
DWIDTH 9 0
BBX 7 16 1 0
BITMAP
4C
EC
00
78
CC
84
06
06
06
FE
86
86
86
84
CC
78
ENDCHAR
STARTCHAR 04DB
ENCODING 1243
SWIDTH 540 0
DWIDTH 9 0
BBX 7 12 1 0
BITMAP
EC
4C
00
78
CC
84
06
FE
86
84
CC
78
ENDCHAR
STARTCHAR 04DC
ENCODING 1244
SWIDTH 540 0
DWIDTH 9 0
BBX 8 16 0 0
BITMAP
26
76
00
C9
4B
4A
6A
2A
2E
3C
2E
2A
6A
4A
4B
C9
ENDCHAR
STARTCHAR 04DD
ENCODING 1245
SWIDTH 540 0
DWIDTH 9 0
BBX 8 12 0 0
BITMAP
76
26
00
C9
4B
6A
2A
3E
2A
6A
4B
C9
ENDCHAR
STARTCHAR 04DE
ENCODING 1246
SWIDTH 540 0
DWIDTH 9 0
BBX 7 16 1 0
BITMAP
4C
EC
00
78
4C
C4
04
04
04
38
0C
06
06
86
CC
78
ENDCHAR
STARTCHAR 04DF
ENCODING 1247
SWIDTH 540 0
DWIDTH 9 0
BBX 7 12 1 0
BITMAP
EC
4C
00
78
C4
C4
04
38
04
06
C4
7C
ENDCHAR
STARTCHAR 04E0
ENCODING 1248
SWIDTH 540 0
DWIDTH 9 0
BBX 7 13 1 0
BITMAP
FC
0C
18
10
20
78
0C
04
06
06
84
4C
78
ENDCHAR
STARTCHAR 04E1
ENCODING 1249
SWIDTH 540 0
DWIDTH 9 0
BBX 7 13 1 -4
BITMAP
FC
0C
18
10
20
78
0C
04
06
06
84
4C
78
ENDCHAR
STARTCHAR 04E2
ENCODING 1250
SWIDTH 540 0
DWIDTH 9 0
BBX 6 16 1 0
BITMAP
7C
7C
00
84
8C
8C
8C
9C
94
94
B4
A4
A4
E4
C4
C4
ENDCHAR
STARTCHAR 04E3
ENCODING 1251
SWIDTH 540 0
DWIDTH 9 0
BBX 6 12 1 0
BITMAP
7C
00
00
84
8C
8C
94
94
A4
A4
C4
C4
ENDCHAR
STARTCHAR 04E4
ENCODING 1252
SWIDTH 540 0
DWIDTH 9 0
BBX 6 16 1 0
BITMAP
4C
EC
00
84
8C
8C
8C
9C
94
94
B4
A4
A4
E4
C4
C4
ENDCHAR
STARTCHAR 04E5
ENCODING 1253
SWIDTH 540 0
DWIDTH 9 0
BBX 6 12 1 0
BITMAP
EC
4C
00
84
8C
8C
94
94
A4
A4
C4
C4
ENDCHAR
STARTCHAR 04E6
ENCODING 1254
SWIDTH 540 0
DWIDTH 9 0
BBX 7 16 1 0
BITMAP
4C
EC
00
78
CC
84
86
86
86
86
86
86
86
84
CC
78
ENDCHAR
STARTCHAR 04E7
ENCODING 1255
SWIDTH 540 0
DWIDTH 9 0
BBX 7 12 1 0
BITMAP
EC
4C
00
78
CC
84
86
86
86
84
CC
78
ENDCHAR
STARTCHAR 04E8
ENCODING 1256
SWIDTH 540 0
DWIDTH 9 0
BBX 7 13 1 0
BITMAP
78
CC
84
86
86
86
FE
86
86
86
84
CC
78
ENDCHAR
STARTCHAR 04E9
ENCODING 1257
SWIDTH 540 0
DWIDTH 9 0
BBX 7 9 1 0
BITMAP
78
CC
84
86
FE
86
84
CC
78
ENDCHAR
STARTCHAR 04EA
ENCODING 1258
SWIDTH 540 0
DWIDTH 9 0
BBX 7 16 1 0
BITMAP
4C
EC
00
78
CC
84
86
86
86
FE
86
86
86
84
CC
78
ENDCHAR
STARTCHAR 04EB
ENCODING 1259
SWIDTH 540 0
DWIDTH 9 0
BBX 7 12 1 0
BITMAP
EC
4C
00
78
CC
84
86
FE
86
84
CC
78
ENDCHAR
STARTCHAR 04EC
ENCODING 1260
SWIDTH 540 0
DWIDTH 9 0
BBX 7 16 1 0
BITMAP
4C
EC
00
78
CC
84
06
06
06
3E
06
06
06
84
CC
78
ENDCHAR
STARTCHAR 04ED
ENCODING 1261
SWIDTH 540 0
DWIDTH 9 0
BBX 7 12 1 0
BITMAP
EC
4C
00
78
CC
84
06
3E
06
84
CC
78
ENDCHAR
STARTCHAR 04EE
ENCODING 1262
SWIDTH 540 0
DWIDTH 9 0
BBX 7 16 1 0
BITMAP
7C
7C
00
86
C4
44
4C
48
68
28
38
30
10
30
20
20
ENDCHAR
STARTCHAR 04EF
ENCODING 1263
SWIDTH 540 0
DWIDTH 9 0
BBX 7 16 1 -4
BITMAP
7C
00
00
86
C4
44
4C
48
68
28
38
30
10
30
20
20
ENDCHAR
STARTCHAR 04F0
ENCODING 1264
SWIDTH 540 0
DWIDTH 9 0
BBX 7 16 1 0
BITMAP
4C
EC
00
86
C4
44
4C
48
68
28
38
30
10
30
20
20
ENDCHAR
STARTCHAR 04F1
ENCODING 1265
SWIDTH 540 0
DWIDTH 9 0
BBX 7 16 1 -4
BITMAP
EC
4C
00
86
C4
44
4C
48
68
28
38
30
10
30
20
20
ENDCHAR
STARTCHAR 04F2
ENCODING 1266
SWIDTH 540 0
DWIDTH 9 0
BBX 7 17 1 0
BITMAP
14
36
6C
00
86
C4
44
4C
48
68
28
38
30
10
30
20
20
ENDCHAR
STARTCHAR 04F3
ENCODING 1267
SWIDTH 540 0
DWIDTH 9 0
BBX 7 17 1 -4
BITMAP
16
24
48
00
86
C4
44
4C
48
68
28
38
30
10
30
20
20
ENDCHAR
STARTCHAR 04F4
ENCODING 1268
SWIDTH 540 0
DWIDTH 9 0
BBX 6 16 1 0
BITMAP
4C
EC
00
84
84
84
84
84
84
84
C4
7C
04
04
04
04
ENDCHAR
STARTCHAR 04F5
ENCODING 1269
SWIDTH 540 0
DWIDTH 9 0
BBX 6 12 1 0
BITMAP
EC
4C
00
84
84
84
84
C4
7C
04
04
04
ENDCHAR
STARTCHAR 04F6
ENCODING 1270
SWIDTH 540 0
DWIDTH 9 0
BBX 6 16 2 -3
BITMAP
FC
80
80
80
80
80
80
80
80
80
80
80
C0
40
40
40
ENDCHAR
STARTCHAR 04F7
ENCODING 1271
SWIDTH 540 0
DWIDTH 9 0
BBX 6 12 2 -3
BITMAP
FC
80
80
80
80
80
80
80
C0
40
40
40
ENDCHAR
STARTCHAR 04F8
ENCODING 1272
SWIDTH 540 0
DWIDTH 9 0
BBX 7 16 1 0
BITMAP
4C
EC
00
86
86
86
86
86
86
E6
96
96
96
96
96
E6
ENDCHAR
STARTCHAR 04F9
ENCODING 1273
SWIDTH 540 0
DWIDTH 9 0
BBX 7 12 1 0
BITMAP
EC
4C
00
86
86
86
86
F6
96
96
96
F6
ENDCHAR
STARTCHAR 04FA
ENCODING 1274
SWIDTH 540 0
DWIDTH 9 0
BBX 8 17 0 -4
BITMAP
3F
20
20
20
20
20
20
F8
20
20
20
20
30
10
10
30
60
ENDCHAR
STARTCHAR 04FB
ENCODING 1275
SWIDTH 540 0
DWIDTH 9 0
BBX 8 13 0 -4
BITMAP
3F
20
20
20
F8
20
20
20
30
10
10
30
60
ENDCHAR
STARTCHAR 04FC
ENCODING 1276
SWIDTH 540 0
DWIDTH 9 0
BBX 7 17 1 -4
BITMAP
86
C4
4C
68
38
30
10
30
38
68
4C
C4
86
02
02
06
0C
ENDCHAR
STARTCHAR 04FD
ENCODING 1277
SWIDTH 540 0
DWIDTH 9 0
BBX 7 13 1 -4
BITMAP
C6
4C
68
38
10
38
68
4C
C6
02
02
06
0C
ENDCHAR
STARTCHAR 04FE
ENCODING 1278
SWIDTH 540 0
DWIDTH 9 0
BBX 7 13 1 0
BITMAP
86
C4
4C
68
38
30
7C
30
38
68
4C
C4
86
ENDCHAR
STARTCHAR 04FF
ENCODING 1279
SWIDTH 540 0
DWIDTH 9 0
BBX 7 9 1 0
BITMAP
C6
4C
68
38
7C
30
68
4C
C6
ENDCHAR
STARTCHAR 0500
ENCODING 1280
SWIDTH 540 0
DWIDTH 9 0
BBX 6 13 1 0
BITMAP
04
04
04
04
04
04
7C
C4
84
84
84
C4
7C
ENDCHAR
STARTCHAR 0501
ENCODING 1281
SWIDTH 540 0
DWIDTH 9 0
BBX 6 13 1 0
BITMAP
04
04
04
04
74
CC
84
84
84
84
84
CC
74
ENDCHAR
STARTCHAR 0502
ENCODING 1282
SWIDTH 540 0
DWIDTH 9 0
BBX 7 13 1 0
BITMAP
10
10
10
10
10
70
96
96
96
96
96
B6
7C
ENDCHAR
STARTCHAR 0503
ENCODING 1283
SWIDTH 540 0
DWIDTH 9 0
BBX 7 13 1 0
BITMAP
10
10
10
10
D0
B0
90
90
96
96
96
B6
DC
ENDCHAR
STARTCHAR 0504
ENCODING 1284
SWIDTH 540 0
DWIDTH 9 0
BBX 7 13 1 0
BITMAP
60
F0
90
10
10
30
66
36
16
16
16
16
1C
ENDCHAR
STARTCHAR 0505
ENCODING 1285
SWIDTH 540 0
DWIDTH 9 0
BBX 7 9 1 0
BITMAP
60
B0
90
10
66
16
16
16
1C
ENDCHAR
STARTCHAR 0506
ENCODING 1286
SWIDTH 540 0
DWIDTH 9 0
BBX 7 16 1 -3
BITMAP
78
4C
C4
04
04
04
38
0C
06
06
06
06
06
02
02
02
ENDCHAR
STARTCHAR 0507
ENCODING 1287
SWIDTH 540 0
DWIDTH 9 0
BBX 7 12 1 -3
BITMAP
78
C4
C4
04
38
04
06
06
06
02
02
02
ENDCHAR
STARTCHAR 0508
ENCODING 1288
SWIDTH 540 0
DWIDTH 9 0
BBX 8 13 0 0
BITMAP
78
48
48
48
48
48
4B
4B
4B
4B
4B
4B
CE
ENDCHAR
STARTCHAR 0509
ENCODING 1289
SWIDTH 540 0
DWIDTH 9 0
BBX 8 9 0 0
BITMAP
78
48
48
48
4B
4B
4B
4B
CE
ENDCHAR
STARTCHAR 050A
ENCODING 1290
SWIDTH 540 0
DWIDTH 9 0
BBX 7 13 1 0
BITMAP
90
90
90
90
90
90
F6
96
96
96
96
96
9C
ENDCHAR
STARTCHAR 050B
ENCODING 1291
SWIDTH 540 0
DWIDTH 9 0
BBX 7 9 1 0
BITMAP
90
90
90
90
F6
96
96
96
9C
ENDCHAR
STARTCHAR 050C
ENCODING 1292
SWIDTH 540 0
DWIDTH 9 0
BBX 6 13 1 0
BITMAP
78
CC
84
80
80
80
84
84
84
84
84
CC
78
ENDCHAR
STARTCHAR 050D
ENCODING 1293
SWIDTH 540 0
DWIDTH 9 0
BBX 6 9 1 0
BITMAP
78
C4
84
80
84
84
84
CC
78
ENDCHAR
STARTCHAR 050E
ENCODING 1294
SWIDTH 540 0
DWIDTH 9 0
BBX 8 13 0 0
BITMAP
FE
10
10
10
10
10
13
13
13
13
13
13
0E
ENDCHAR
STARTCHAR 050F
ENCODING 1295
SWIDTH 540 0
DWIDTH 9 0
BBX 8 9 0 0
BITMAP
FE
10
10
10
13
13
13
13
1E
ENDCHAR
STARTCHAR 0510
ENCODING 1296
SWIDTH 540 0
DWIDTH 9 0
BBX 7 13 1 0
BITMAP
78
4C
C4
80
80
C0
70
C0
80
80
86
CC
78
ENDCHAR
STARTCHAR 0511
ENCODING 1297
SWIDTH 540 0
DWIDTH 9 0
BBX 7 9 1 0
BITMAP
78
CC
84
C0
70
C0
80
C6
7C
ENDCHAR
STARTCHAR 0512
ENCODING 1298
SWIDTH 540 0
DWIDTH 9 0
BBX 8 17 0 -4
BITMAP
3E
22
22
22
22
22
22
22
22
22
62
42
C3
01
01
03
06
ENDCHAR
STARTCHAR 0513
ENCODING 1299
SWIDTH 540 0
DWIDTH 9 0
BBX 8 13 0 -4
BITMAP
3E
22
22
22
22
22
62
62
C3
01
01
03
06
ENDCHAR
STARTCHAR 0514
ENCODING 1300
SWIDTH 540 0
DWIDTH 9 0
BBX 8 13 0 0
BITMAP
71
5B
4A
4A
4E
4C
44
44
4E
4A
4A
5B
91
ENDCHAR
STARTCHAR 0515
ENCODING 1301
SWIDTH 540 0
DWIDTH 9 0
BBX 8 9 0 0
BITMAP
73
5A
4A
4C
44
4C
4A
4A
93
ENDCHAR
STARTCHAR 0516
ENCODING 1302
SWIDTH 540 0
DWIDTH 9 0
BBX 7 13 1 0
BITMAP
E6
B4
9C
98
98
98
90
F0
98
88
8C
84
86
ENDCHAR
STARTCHAR 0517
ENCODING 1303
SWIDTH 540 0
DWIDTH 9 0
BBX 7 13 1 -4
BITMAP
E6
BC
98
98
90
98
98
BC
E6
80
80
80
80
ENDCHAR
STARTCHAR 0518
ENCODING 1304
SWIDTH 540 0
DWIDTH 9 0
BBX 8 13 0 0
BITMAP
3F
68
48
48
48
48
4E
38
28
28
68
48
CF
ENDCHAR
STARTCHAR 0519
ENCODING 1305
SWIDTH 540 0
DWIDTH 9 0
BBX 8 9 0 0
BITMAP
7E
4B
49
49
7F
28
69
4B
CE
ENDCHAR
STARTCHAR 051A
ENCODING 1306
SWIDTH 540 0
DWIDTH 9 0
BBX 7 16 1 -3
BITMAP
78
CC
84
86
86
86
86
86
86
86
84
CC
78
18
18
08
ENDCHAR
STARTCHAR 051B
ENCODING 1307
SWIDTH 540 0
DWIDTH 9 0
BBX 6 13 1 -4
BITMAP
74
CC
84
84
84
84
84
CC
74
04
04
04
04
ENDCHAR
STARTCHAR 051C
ENCODING 1308
SWIDTH 540 0
DWIDTH 9 0
BBX 7 13 1 0
BITMAP
92
92
B6
B6
B4
B4
AC
AC
6C
6C
4C
4C
4C
ENDCHAR
STARTCHAR 051D
ENCODING 1309
SWIDTH 540 0
DWIDTH 9 0
BBX 7 9 1 0
BITMAP
92
B2
B6
B4
AC
EC
6C
4C
4C
ENDCHAR
STARTCHAR 051E
ENCODING 1310
SWIDTH 540 0
DWIDTH 9 0
BBX 7 13 1 0
BITMAP
C6
CC
F8
C8
DE
D4
F0
D0
D0
C8
C8
CC
C6
ENDCHAR
STARTCHAR 051F
ENCODING 1311
SWIDTH 540 0
DWIDTH 9 0
BBX 7 9 1 0
BITMAP
D6
FC
C8
D6
F0
D0
D8
CC
C6
ENDCHAR
STARTCHAR 0520
ENCODING 1312
SWIDTH 540 0
DWIDTH 9 0
BBX 8 17 0 -4
BITMAP
78
48
48
48
4A
4E
4B
4B
4B
4B
4B
4B
CB
03
03
02
06
ENDCHAR
STARTCHAR 0521
ENCODING 1313
SWIDTH 540 0
DWIDTH 9 0
BBX 8 13 0 -4
BITMAP
78
48
48
4E
4A
4B
4B
4B
CB
03
03
02
06
ENDCHAR
STARTCHAR 0522
ENCODING 1314
SWIDTH 540 0
DWIDTH 9 0
BBX 7 17 1 -4
BITMAP
90
90
90
90
90
9C
F4
96
96
96
96
96
96
06
06
04
0C
ENDCHAR
STARTCHAR 0523
ENCODING 1315
SWIDTH 540 0
DWIDTH 9 0
BBX 7 13 1 -4
BITMAP
90
90
90
9C
F4
96
96
96
96
06
06
04
0C
ENDCHAR
STARTCHAR 0524
ENCODING 1316
SWIDTH 540 0
DWIDTH 9 0
BBX 7 16 1 -3
BITMAP
FC
84
84
84
84
84
84
84
84
84
84
84
86
02
02
02
ENDCHAR
STARTCHAR 0525
ENCODING 1317
SWIDTH 540 0
DWIDTH 9 0
BBX 7 12 1 -3
BITMAP
FC
84
84
84
84
84
84
84
86
02
02
02
ENDCHAR
STARTCHAR 0526
ENCODING 1318
SWIDTH 540 0
DWIDTH 9 0
BBX 7 16 1 -3
BITMAP
80
80
80
80
80
F8
CC
84
84
84
84
84
86
02
02
02
ENDCHAR
STARTCHAR 0527
ENCODING 1319
SWIDTH 540 0
DWIDTH 9 0
BBX 7 16 1 -3
BITMAP
80
80
80
80
B8
CC
C4
84
84
84
84
84
86
02
02
02
ENDCHAR
STARTCHAR 0528
ENCODING 1320
SWIDTH 540 0
DWIDTH 9 0
BBX 8 17 -1 -4
BITMAP
21
21
21
21
21
21
3F
21
21
21
21
21
21
20
20
60
C0
ENDCHAR
STARTCHAR 0529
ENCODING 1321
SWIDTH 540 0
DWIDTH 9 0
BBX 8 13 -1 -4
BITMAP
21
21
21
21
3F
21
21
21
21
20
20
60
C0
ENDCHAR
STARTCHAR 052A
ENCODING 1322
SWIDTH 540 0
DWIDTH 9 0
BBX 8 16 0 -3
BITMAP
75
55
55
57
56
56
5E
56
56
56
55
55
F5
90
90
90
ENDCHAR
STARTCHAR 052B
ENCODING 1323
SWIDTH 540 0
DWIDTH 9 0
BBX 8 12 0 -3
BITMAP
75
55
57
56
5E
56
56
55
F5
90
90
90
ENDCHAR
STARTCHAR 052C
ENCODING 1324
SWIDTH 540 0
DWIDTH 9 0
BBX 7 16 1 -3
BITMAP
84
84
8C
8C
9C
94
D4
E4
7C
64
44
C4
FE
82
82
82
ENDCHAR
STARTCHAR 052D
ENCODING 1325
SWIDTH 540 0
DWIDTH 9 0
BBX 7 12 1 -3
BITMAP
84
8C
8C
94
F4
7C
44
C4
FE
82
82
82
ENDCHAR
STARTCHAR 052E
ENCODING 1326
SWIDTH 540 0
DWIDTH 9 0
BBX 8 16 0 -3
BITMAP
3E
22
22
22
22
22
22
22
22
22
62
42
C3
01
01
01
ENDCHAR
STARTCHAR 052F
ENCODING 1327
SWIDTH 540 0
DWIDTH 9 0
BBX 8 12 0 -3
BITMAP
3E
22
22
22
22
22
62
62
C3
01
01
01
ENDCHAR
STARTCHAR 0531
ENCODING 1329
SWIDTH 540 0
DWIDTH 9 0
BBX 7 13 1 0
BITMAP
84
84
84
84
84
84
84
84
84
B4
DC
4C
7E
ENDCHAR
STARTCHAR 0532
ENCODING 1330
SWIDTH 540 0
DWIDTH 9 0
BBX 6 13 1 0
BITMAP
78
4C
C4
80
80
80
80
80
FC
80
80
80
80
ENDCHAR
STARTCHAR 0533
ENCODING 1331
SWIDTH 540 0
DWIDTH 9 0
BBX 7 13 1 0
BITMAP
78
CC
84
84
84
84
84
C4
7E
04
04
04
04
ENDCHAR
STARTCHAR 0534
ENCODING 1332
SWIDTH 540 0
DWIDTH 9 0
BBX 7 13 1 0
BITMAP
78
CC
84
04
04
04
04
04
06
04
04
04
04
ENDCHAR
STARTCHAR 0535
ENCODING 1333
SWIDTH 540 0
DWIDTH 9 0
BBX 6 13 1 0
BITMAP
80
80
80
80
FC
80
80
80
80
80
C4
4C
78
ENDCHAR
STARTCHAR 0536
ENCODING 1334
SWIDTH 540 0
DWIDTH 9 0
BBX 6 13 1 0
BITMAP
78
CC
84
04
04
04
04
04
04
04
8C
90
FC
ENDCHAR
STARTCHAR 0537
ENCODING 1335
SWIDTH 540 0
DWIDTH 9 0
BBX 6 13 1 0
BITMAP
80
80
80
80
FC
80
80
80
80
80
80
80
F8
ENDCHAR
STARTCHAR 0538
ENCODING 1336
SWIDTH 540 0
DWIDTH 9 0
BBX 6 13 1 0
BITMAP
78
4C
C4
80
80
80
80
80
80
80
80
80
FC
ENDCHAR
STARTCHAR 0539
ENCODING 1337
SWIDTH 540 0
DWIDTH 9 0
BBX 7 13 1 0
BITMAP
78
4C
C4
84
84
84
84
84
9E
94
94
94
9C
ENDCHAR
STARTCHAR 053A
ENCODING 1338
SWIDTH 540 0
DWIDTH 9 0
BBX 7 13 1 0
BITMAP
04
04
04
04
7E
C4
84
84
84
84
84
CC
78
ENDCHAR
STARTCHAR 053B
ENCODING 1339
SWIDTH 540 0
DWIDTH 9 0
BBX 6 13 1 0
BITMAP
80
80
80
80
B8
CC
C4
84
84
80
80
80
80
ENDCHAR
STARTCHAR 053C
ENCODING 1340
SWIDTH 540 0
DWIDTH 9 0
BBX 6 13 1 0
BITMAP
80
80
80
80
80
80
80
80
80
80
80
80
FC
ENDCHAR
STARTCHAR 053D
ENCODING 1341
SWIDTH 540 0
DWIDTH 9 0
BBX 7 13 1 0
BITMAP
80
80
80
80
F6
96
96
96
96
96
96
96
9C
ENDCHAR
STARTCHAR 053E
ENCODING 1342
SWIDTH 540 0
DWIDTH 9 0
BBX 8 13 0 0
BITMAP
CF
FC
66
62
42
42
42
42
42
42
62
26
3C
ENDCHAR
STARTCHAR 053F
ENCODING 1343
SWIDTH 540 0
DWIDTH 9 0
BBX 6 13 1 0
BITMAP
80
80
80
80
84
84
C4
C4
7C
04
04
04
04
ENDCHAR
STARTCHAR 0540
ENCODING 1344
SWIDTH 540 0
DWIDTH 9 0
BBX 7 13 0 0
BITMAP
3C
06
02
02
02
06
FC
06
02
02
02
02
02
ENDCHAR
STARTCHAR 0541
ENCODING 1345
SWIDTH 540 0
DWIDTH 9 0
BBX 7 13 1 0
BITMAP
78
CC
84
06
06
06
06
06
74
DC
8C
CC
7C
ENDCHAR
STARTCHAR 0542
ENCODING 1346
SWIDTH 540 0
DWIDTH 9 0
BBX 7 13 1 0
BITMAP
78
CC
84
04
04
04
04
04
04
04
04
04
06
ENDCHAR
STARTCHAR 0543
ENCODING 1347
SWIDTH 540 0
DWIDTH 9 0
BBX 7 13 0 0
BITMAP
3C
20
60
40
FC
46
42
42
42
42
62
62
3E
ENDCHAR
STARTCHAR 0544
ENCODING 1348
SWIDTH 540 0
DWIDTH 9 0
BBX 7 13 1 0
BITMAP
86
84
84
84
84
84
84
84
84
84
C4
4C
78
ENDCHAR
STARTCHAR 0545
ENCODING 1349
SWIDTH 540 0
DWIDTH 9 0
BBX 7 13 1 0
BITMAP
78
4C
C4
04
04
04
F8
0C
06
06
86
C4
78
ENDCHAR
STARTCHAR 0546
ENCODING 1350
SWIDTH 540 0
DWIDTH 9 0
BBX 7 13 0 0
BITMAP
C0
40
40
40
40
40
40
40
40
40
62
26
3C
ENDCHAR
STARTCHAR 0547
ENCODING 1351
SWIDTH 540 0
DWIDTH 9 0
BBX 6 13 1 0
BITMAP
C0
30
4C
C4
80
80
80
80
80
80
84
CC
78
ENDCHAR
STARTCHAR 0548
ENCODING 1352
SWIDTH 540 0
DWIDTH 9 0
BBX 6 13 1 0
BITMAP
78
4C
C4
84
84
84
84
84
84
84
84
84
84
ENDCHAR
STARTCHAR 0549
ENCODING 1353
SWIDTH 540 0
DWIDTH 9 0
BBX 7 13 1 0
BITMAP
78
CC
84
06
06
06
06
06
04
4C
30
0C
04
ENDCHAR
STARTCHAR 054A
ENCODING 1354
SWIDTH 540 0
DWIDTH 9 0
BBX 7 13 1 0
BITMAP
78
D4
96
16
16
16
16
16
06
06
06
06
06
ENDCHAR
STARTCHAR 054B
ENCODING 1355
SWIDTH 540 0
DWIDTH 9 0
BBX 6 13 1 0
BITMAP
78
4C
C4
84
84
C4
C4
64
24
24
BC
B0
FC
ENDCHAR
STARTCHAR 054C
ENCODING 1356
SWIDTH 540 0
DWIDTH 9 0
BBX 7 13 1 0
BITMAP
78
4C
C4
84
84
84
84
84
86
84
84
84
84
ENDCHAR
STARTCHAR 054D
ENCODING 1357
SWIDTH 540 0
DWIDTH 9 0
BBX 6 13 1 0
BITMAP
84
84
84
84
84
84
84
84
84
84
C4
4C
78
ENDCHAR
STARTCHAR 054E
ENCODING 1358
SWIDTH 540 0
DWIDTH 9 0
BBX 7 13 1 0
BITMAP
04
04
04
04
84
84
84
CC
74
04
04
04
06
ENDCHAR
STARTCHAR 054F
ENCODING 1359
SWIDTH 540 0
DWIDTH 9 0
BBX 7 13 1 0
BITMAP
78
4C
84
80
C0
60
38
0C
04
06
84
CC
78
ENDCHAR
STARTCHAR 0550
ENCODING 1360
SWIDTH 540 0
DWIDTH 9 0
BBX 6 13 1 0
BITMAP
78
4C
C4
80
80
80
80
80
80
80
80
80
80
ENDCHAR
STARTCHAR 0551
ENCODING 1361
SWIDTH 540 0
DWIDTH 9 0
BBX 8 13 0 0
BITMAP
3C
26
62
42
42
62
FC
06
02
03
42
66
3C
ENDCHAR
STARTCHAR 0552
ENCODING 1362
SWIDTH 540 0
DWIDTH 9 0
BBX 6 13 1 0
BITMAP
80
80
80
80
FC
80
80
80
80
80
80
80
80
ENDCHAR
STARTCHAR 0553
ENCODING 1363
SWIDTH 540 0
DWIDTH 9 0
BBX 7 13 1 0
BITMAP
10
10
7C
96
96
92
92
92
92
96
7C
10
10
ENDCHAR
STARTCHAR 0554
ENCODING 1364
SWIDTH 540 0
DWIDTH 9 0
BBX 8 13 0 0
BITMAP
3C
66
62
43
62
56
4C
40
40
FE
40
40
40
ENDCHAR
STARTCHAR 0555
ENCODING 1365
SWIDTH 540 0
DWIDTH 9 0
BBX 7 13 1 0
BITMAP
78
CC
84
86
86
86
86
86
86
86
84
CC
78
ENDCHAR
STARTCHAR 0556
ENCODING 1366
SWIDTH 540 0
DWIDTH 9 0
BBX 7 13 1 0
BITMAP
70
D0
90
90
90
D0
3C
14
16
12
96
D4
78
ENDCHAR
STARTCHAR 0559
ENCODING 1369
SWIDTH 540 0
DWIDTH 9 0
BBX 3 6 3 8
BITMAP
60
C0
80
80
80
60
ENDCHAR
STARTCHAR 055A
ENCODING 1370
SWIDTH 540 0
DWIDTH 9 0
BBX 3 6 3 8
BITMAP
C0
40
20
20
60
C0
ENDCHAR
STARTCHAR 055B
ENCODING 1371
SWIDTH 540 0
DWIDTH 9 0
BBX 3 6 3 8
BITMAP
60
60
40
C0
C0
80
ENDCHAR
STARTCHAR 055C
ENCODING 1372
SWIDTH 540 0
DWIDTH 9 0
BBX 5 6 2 8
BITMAP
18
10
30
60
C0
80
ENDCHAR
STARTCHAR 055D
ENCODING 1373
SWIDTH 540 0
DWIDTH 9 0
BBX 3 6 3 8
BITMAP
80
80
C0
40
40
60
ENDCHAR
STARTCHAR 055E
ENCODING 1374
SWIDTH 540 0
DWIDTH 9 0
BBX 6 4 1 9
BITMAP
38
64
44
CC
ENDCHAR
STARTCHAR 055F
ENCODING 1375
SWIDTH 0 0
DWIDTH 0 0
BBX 5 3 -7 10
BITMAP
80
80
F8
ENDCHAR
STARTCHAR 0560
ENCODING 1376
SWIDTH 540 0
DWIDTH 9 0
BBX 7 9 1 0
BITMAP
EC
96
96
96
96
96
96
96
96
ENDCHAR
STARTCHAR 0561
ENCODING 1377
SWIDTH 540 0
DWIDTH 9 0
BBX 7 9 1 0
BITMAP
96
96
96
96
96
96
96
B6
DE
ENDCHAR
STARTCHAR 0562
ENCODING 1378
SWIDTH 540 0
DWIDTH 9 0
BBX 6 13 1 -4
BITMAP
B8
CC
C4
84
84
80
80
80
FC
80
80
80
80
ENDCHAR
STARTCHAR 0563
ENCODING 1379
SWIDTH 540 0
DWIDTH 9 0
BBX 7 13 1 -4
BITMAP
74
CC
84
84
84
84
84
CC
76
04
04
04
04
ENDCHAR
STARTCHAR 0564
ENCODING 1380
SWIDTH 540 0
DWIDTH 9 0
BBX 7 13 1 -4
BITMAP
B8
CC
C4
84
84
84
84
84
86
04
04
04
04
ENDCHAR
STARTCHAR 0565
ENCODING 1381
SWIDTH 540 0
DWIDTH 9 0
BBX 6 13 1 0
BITMAP
80
80
80
80
FC
80
80
80
84
84
C4
CC
74
ENDCHAR
STARTCHAR 0566
ENCODING 1382
SWIDTH 540 0
DWIDTH 9 0
BBX 7 13 1 -4
BITMAP
74
CC
84
84
84
84
84
CC
74
04
04
04
06
ENDCHAR
STARTCHAR 0567
ENCODING 1383
SWIDTH 540 0
DWIDTH 9 0
BBX 6 13 1 0
BITMAP
80
80
80
80
FC
80
80
80
80
80
80
80
F8
ENDCHAR
STARTCHAR 0568
ENCODING 1384
SWIDTH 540 0
DWIDTH 9 0
BBX 6 13 1 -4
BITMAP
B8
CC
C4
84
84
84
84
84
84
80
80
80
FC
ENDCHAR
STARTCHAR 0569
ENCODING 1385
SWIDTH 540 0
DWIDTH 9 0
BBX 7 13 1 -4
BITMAP
B8
CC
C4
84
9E
94
94
94
9C
80
80
80
80
ENDCHAR
STARTCHAR 056A
ENCODING 1386
SWIDTH 540 0
DWIDTH 9 0
BBX 7 13 1 0
BITMAP
04
04
04
04
7E
C4
84
84
84
84
84
CC
78
ENDCHAR
STARTCHAR 056B
ENCODING 1387
SWIDTH 540 0
DWIDTH 9 0
BBX 6 17 1 -4
BITMAP
80
80
80
80
B8
CC
C4
84
84
84
84
84
84
80
80
80
80
ENDCHAR
STARTCHAR 056C
ENCODING 1388
SWIDTH 540 0
DWIDTH 9 0
BBX 4 13 3 -4
BITMAP
80
80
80
80
80
80
80
80
80
80
80
80
F0
ENDCHAR
STARTCHAR 056D
ENCODING 1389
SWIDTH 540 0
DWIDTH 9 0
BBX 7 17 1 -4
BITMAP
80
80
80
80
E6
B6
96
96
96
96
96
96
9E
80
80
80
80
ENDCHAR
STARTCHAR 056E
ENCODING 1390
SWIDTH 540 0
DWIDTH 9 0
BBX 7 13 1 0
BITMAP
30
20
60
10
7E
C4
86
86
86
86
84
CC
78
ENDCHAR
STARTCHAR 056F
ENCODING 1391
SWIDTH 540 0
DWIDTH 9 0
BBX 6 17 1 -4
BITMAP
80
80
80
80
84
84
84
84
84
84
C4
CC
74
04
04
04
04
ENDCHAR
STARTCHAR 0570
ENCODING 1392
SWIDTH 540 0
DWIDTH 9 0
BBX 6 13 1 0
BITMAP
80
80
80
80
B8
CC
C4
84
84
84
84
84
84
ENDCHAR
STARTCHAR 0571
ENCODING 1393
SWIDTH 540 0
DWIDTH 9 0
BBX 6 13 1 0
BITMAP
40
78
38
60
F8
CC
84
84
84
84
C4
CC
74
ENDCHAR
STARTCHAR 0572
ENCODING 1394
SWIDTH 540 0
DWIDTH 9 0
BBX 7 13 1 -4
BITMAP
B8
CC
C4
84
84
84
84
84
84
04
04
04
06
ENDCHAR
STARTCHAR 0573
ENCODING 1395
SWIDTH 540 0
DWIDTH 9 0
BBX 7 13 0 0
BITMAP
3C
20
60
40
FC
46
42
42
42
42
62
66
3A
ENDCHAR
STARTCHAR 0574
ENCODING 1396
SWIDTH 540 0
DWIDTH 9 0
BBX 7 13 1 0
BITMAP
06
04
04
04
84
84
84
84
84
84
C4
CC
74
ENDCHAR
STARTCHAR 0575
ENCODING 1397
SWIDTH 540 0
DWIDTH 9 0
BBX 4 13 1 -4
BITMAP
10
10
10
10
10
10
10
10
10
10
10
30
E0
ENDCHAR
STARTCHAR 0576
ENCODING 1398
SWIDTH 540 0
DWIDTH 9 0
BBX 7 13 0 0
BITMAP
C0
40
40
40
42
42
42
42
42
42
62
66
3A
ENDCHAR
STARTCHAR 0577
ENCODING 1399
SWIDTH 540 0
DWIDTH 9 0
BBX 6 13 1 -4
BITMAP
78
CC
04
04
04
04
0C
18
30
20
60
C0
FC
ENDCHAR
STARTCHAR 0578
ENCODING 1400
SWIDTH 540 0
DWIDTH 9 0
BBX 6 9 1 0
BITMAP
B8
CC
C4
84
84
84
84
84
84
ENDCHAR
STARTCHAR 0579
ENCODING 1401
SWIDTH 540 0
DWIDTH 9 0
BBX 6 13 1 -4
BITMAP
40
40
40
40
7C
0C
18
10
30
20
40
C0
FC
ENDCHAR
STARTCHAR 057A
ENCODING 1402
SWIDTH 540 0
DWIDTH 9 0
BBX 7 13 1 -4
BITMAP
96
96
96
96
96
96
96
B6
DE
06
06
06
06
ENDCHAR
STARTCHAR 057B
ENCODING 1403
SWIDTH 540 0
DWIDTH 9 0
BBX 6 13 1 -4
BITMAP
78
CC
84
84
C4
6C
2C
38
30
20
60
C0
FC
ENDCHAR
STARTCHAR 057C
ENCODING 1404
SWIDTH 540 0
DWIDTH 9 0
BBX 6 9 1 0
BITMAP
B8
CC
C4
84
84
84
8C
88
8C
ENDCHAR
STARTCHAR 057D
ENCODING 1405
SWIDTH 540 0
DWIDTH 9 0
BBX 6 9 1 0
BITMAP
84
84
84
84
84
84
C4
CC
74
ENDCHAR
STARTCHAR 057E
ENCODING 1406
SWIDTH 540 0
DWIDTH 9 0
BBX 7 17 1 -4
BITMAP
04
04
04
04
84
84
84
84
84
84
C4
CC
74
04
04
04
06
ENDCHAR
STARTCHAR 057F
ENCODING 1407
SWIDTH 540 0
DWIDTH 9 0
BBX 7 9 1 0
BITMAP
9C
96
96
96
96
96
96
B6
D6
ENDCHAR
STARTCHAR 0580
ENCODING 1408
SWIDTH 540 0
DWIDTH 9 0
BBX 6 13 1 -4
BITMAP
B8
CC
C4
84
84
84
84
84
84
80
80
80
80
ENDCHAR
STARTCHAR 0581
ENCODING 1409
SWIDTH 540 0
DWIDTH 9 0
BBX 6 13 1 -4
BITMAP
74
CC
84
84
84
84
84
CC
74
04
04
0C
78
ENDCHAR
STARTCHAR 0582
ENCODING 1410
SWIDTH 540 0
DWIDTH 9 0
BBX 6 9 1 0
BITMAP
80
80
80
80
80
80
80
80
FC
ENDCHAR
STARTCHAR 0583
ENCODING 1411
SWIDTH 540 0
DWIDTH 9 0
BBX 7 17 1 -4
BITMAP
10
10
10
10
9C
96
96
96
96
96
96
B6
D6
10
10
10
10
ENDCHAR
STARTCHAR 0584
ENCODING 1412
SWIDTH 540 0
DWIDTH 9 0
BBX 8 13 0 -4
BITMAP
5C
62
43
43
63
62
5C
40
FE
40
40
40
40
ENDCHAR
STARTCHAR 0585
ENCODING 1413
SWIDTH 540 0
DWIDTH 9 0
BBX 7 9 1 0
BITMAP
78
CC
84
86
86
86
84
CC
78
ENDCHAR
STARTCHAR 0586
ENCODING 1414
SWIDTH 540 0
DWIDTH 9 0
BBX 7 17 1 -4
BITMAP
70
D0
90
90
90
D0
7C
14
16
12
96
94
7C
10
10
10
10
ENDCHAR
STARTCHAR 0587
ENCODING 1415
SWIDTH 540 0
DWIDTH 9 0
BBX 6 13 1 0
BITMAP
80
80
80
80
90
90
90
90
90
90
90
D0
7C
ENDCHAR
STARTCHAR 0588
ENCODING 1416
SWIDTH 540 0
DWIDTH 9 0
BBX 6 13 1 -4
BITMAP
10
10
10
10
7C
10
10
10
10
10
10
30
E0
ENDCHAR
STARTCHAR 0589
ENCODING 1417
SWIDTH 540 0
DWIDTH 9 0
BBX 3 9 3 0
BITMAP
C0
E0
C0
00
00
00
C0
E0
C0
ENDCHAR
STARTCHAR 058A
ENCODING 1418
SWIDTH 540 0
DWIDTH 9 0
BBX 6 1 1 5
BITMAP
FC
ENDCHAR
STARTCHAR 058D
ENCODING 1421
SWIDTH 540 0
DWIDTH 9 0
BBX 6 6 1 3
BITMAP
78
5C
B4
7C
5C
78
ENDCHAR
STARTCHAR 058E
ENCODING 1422
SWIDTH 540 0
DWIDTH 9 0
BBX 6 6 1 3
BITMAP
7C
7C
FC
BC
7C
30
ENDCHAR
STARTCHAR 058F
ENCODING 1423
SWIDTH 540 0
DWIDTH 9 0
BBX 7 13 1 0
BITMAP
78
CC
84
04
04
1E
04
04
1E
04
04
04
04
ENDCHAR
STARTCHAR 0E3F
ENCODING 3647
SWIDTH 540 0
DWIDTH 9 0
BBX 7 16 1 -2
BITMAP
30
30
F8
9C
94
94
94
F8
9C
96
92
96
94
F8
30
30
ENDCHAR
STARTCHAR 10FB
ENCODING 4347
SWIDTH 540 0
DWIDTH 9 0
BBX 7 9 1 0
BITMAP
C0
C0
00
0C
0E
00
00
C0
C0
ENDCHAR
STARTCHAR 1AB0
ENCODING 6832
SWIDTH 0 0
DWIDTH 0 0
BBX 8 3 -8 10
BITMAP
6E
FA
91
ENDCHAR
STARTCHAR 1AB1
ENCODING 6833
SWIDTH 0 0
DWIDTH 0 0
BBX 8 3 -8 10
BITMAP
18
EB
FB
ENDCHAR
STARTCHAR 1AB2
ENCODING 6834
SWIDTH 0 0
DWIDTH 0 0
BBX 6 3 -7 10
BITMAP
F8
A4
F8
ENDCHAR
STARTCHAR 1AB3
ENCODING 6835
SWIDTH 0 0
DWIDTH 0 0
BBX 3 3 -6 10
BITMAP
40
E0
40
ENDCHAR
STARTCHAR 1AB4
ENCODING 6836
SWIDTH 0 0
DWIDTH 0 0
BBX 6 5 -7 10
BITMAP
30
30
00
DC
C8
ENDCHAR
STARTCHAR 1AB5
ENCODING 6837
SWIDTH 0 0
DWIDTH 0 0
BBX 7 3 -8 -4
BITMAP
9A
64
DA
ENDCHAR
STARTCHAR 1ABB
ENCODING 6843
SWIDTH 0 0
DWIDTH 0 0
BBX 5 3 -7 10
BITMAP
88
88
88
ENDCHAR
STARTCHAR 1ABC
ENCODING 6844
SWIDTH 0 0
DWIDTH 0 0
BBX 8 3 -8 10
BITMAP
C5
C3
C5
ENDCHAR
STARTCHAR 1ABD
ENCODING 6845
SWIDTH 0 0
DWIDTH 0 0
BBX 5 3 -7 -4
BITMAP
88
88
88
ENDCHAR
STARTCHAR 1ABF
ENCODING 6847
SWIDTH 0 0
DWIDTH 0 0
BBX 3 4 -6 -5
BITMAP
E0
E0
60
60
ENDCHAR
STARTCHAR 1AC0
ENCODING 6848
SWIDTH 0 0
DWIDTH 0 0
BBX 3 4 -6 -5
BITMAP
60
60
E0
E0
ENDCHAR
STARTCHAR 1AC1
ENCODING 6849
SWIDTH 0 0
DWIDTH 0 0
BBX 1 3 -7 10
BITMAP
80
80
80
ENDCHAR
STARTCHAR 1AC2
ENCODING 6850
SWIDTH 0 0
DWIDTH 0 0
BBX 1 3 -3 10
BITMAP
80
80
80
ENDCHAR
STARTCHAR 1AC3
ENCODING 6851
SWIDTH 0 0
DWIDTH 0 0
BBX 1 3 -7 -4
BITMAP
80
80
80
ENDCHAR
STARTCHAR 1AC4
ENCODING 6852
SWIDTH 0 0
DWIDTH 0 0
BBX 1 3 -3 -4
BITMAP
80
80
80
ENDCHAR
STARTCHAR 1AC5
ENCODING 6853
SWIDTH 0 0
DWIDTH 0 0
BBX 6 3 -7 10
BITMAP
8C
84
8C
ENDCHAR
STARTCHAR 1AC6
ENCODING 6854
SWIDTH 0 0
DWIDTH 0 0
BBX 4 5 -6 10
BITMAP
60
F0
60
E0
A0
ENDCHAR
STARTCHAR 1AC7
ENCODING 6855
SWIDTH 0 0
DWIDTH 0 0
BBX 6 2 -7 11
BITMAP
AC
F8
ENDCHAR
STARTCHAR 1AC8
ENCODING 6856
SWIDTH 0 0
DWIDTH 0 0
BBX 3 2 -6 11
BITMAP
E0
40
ENDCHAR
STARTCHAR 1AC9
ENCODING 6857
SWIDTH 0 0
DWIDTH 0 0
BBX 7 2 -8 11
BITMAP
FE
64
ENDCHAR
STARTCHAR 1ACA
ENCODING 6858
SWIDTH 0 0
DWIDTH 0 0
BBX 7 2 -8 -4
BITMAP
FE
64
ENDCHAR
STARTCHAR 1ACB
ENCODING 6859
SWIDTH 0 0
DWIDTH 0 0
BBX 7 3 -7 10
BITMAP
6A
54
A8
ENDCHAR
STARTCHAR 1ACC
ENCODING 6860
SWIDTH 0 0
DWIDTH 0 0
BBX 3 5 -6 10
BITMAP
E0
40
40
A0
60
ENDCHAR
STARTCHAR 1ACD
ENCODING 6861
SWIDTH 0 0
DWIDTH 0 0
BBX 4 5 -6 10
BITMAP
E0
A0
A0
B0
80
ENDCHAR
STARTCHAR 1ACE
ENCODING 6862
SWIDTH 0 0
DWIDTH 0 0
BBX 3 4 -6 10
BITMAP
E0
80
A0
60
ENDCHAR
STARTCHAR 1C80
ENCODING 7296
SWIDTH 540 0
DWIDTH 9 0
BBX 7 9 1 0
BITMAP
7C
5C
D6
8C
80
8C
D6
5C
7C
ENDCHAR
STARTCHAR 1C81
ENCODING 7297
SWIDTH 540 0
DWIDTH 9 0
BBX 7 13 1 -4
BITMAP
7C
44
44
44
44
44
44
C4
FE
82
82
82
82
ENDCHAR
STARTCHAR 1C82
ENCODING 7298
SWIDTH 540 0
DWIDTH 9 0
BBX 5 9 2 0
BITMAP
70
98
88
88
88
88
88
98
70
ENDCHAR
STARTCHAR 1C83
ENCODING 7299
SWIDTH 540 0
DWIDTH 9 0
BBX 7 12 1 -3
BITMAP
78
C4
86
80
80
80
80
80
80
86
C4
78
ENDCHAR
STARTCHAR 1C84
ENCODING 7300
SWIDTH 540 0
DWIDTH 9 0
BBX 6 13 1 0
BITMAP
FC
04
04
04
04
04
04
04
04
04
04
04
04
ENDCHAR
STARTCHAR 1C85
ENCODING 7301
SWIDTH 540 0
DWIDTH 9 0
BBX 7 9 1 0
BITMAP
FE
96
96
96
96
96
96
96
96
ENDCHAR
STARTCHAR 1C86
ENCODING 7302
SWIDTH 540 0
DWIDTH 9 0
BBX 8 12 0 0
BITMAP
E0
20
20
20
20
20
20
3E
22
23
22
3E
ENDCHAR
STARTCHAR 1C87
ENCODING 7303
SWIDTH 540 0
DWIDTH 9 0
BBX 8 15 0 0
BITMAP
30
30
30
FC
30
30
30
30
30
30
3E
33
33
33
3E
ENDCHAR
STARTCHAR 1C88
ENCODING 7304
SWIDTH 540 0
DWIDTH 9 0
BBX 7 13 1 0
BITMAP
86
C4
4C
4C
68
28
78
C4
84
86
84
C4
78
ENDCHAR
STARTCHAR 1C89
ENCODING 7305
SWIDTH 540 0
DWIDTH 9 0
BBX 8 12 0 0
BITMAP
FE
10
10
10
10
1E
12
13
11
13
12
1E
ENDCHAR
STARTCHAR 1C8A
ENCODING 7306
SWIDTH 540 0
DWIDTH 9 0
BBX 8 9 0 0
BITMAP
FE
10
10
10
1E
13
11
13
1E
ENDCHAR
STARTCHAR 1D00
ENCODING 7424
SWIDTH 540 0
DWIDTH 9 0
BBX 7 9 1 0
BITMAP
30
30
38
68
48
4C
7C
C4
86
ENDCHAR
STARTCHAR 1D01
ENCODING 7425
SWIDTH 540 0
DWIDTH 9 0
BBX 7 9 1 0
BITMAP
3E
30
30
50
5C
70
D0
90
9E
ENDCHAR
STARTCHAR 1D02
ENCODING 7426
SWIDTH 540 0
DWIDTH 9 0
BBX 7 9 1 0
BITMAP
FC
B6
92
16
FC
90
96
B6
FC
ENDCHAR
STARTCHAR 1D03
ENCODING 7427
SWIDTH 540 0
DWIDTH 9 0
BBX 8 9 0 0
BITMAP
7C
46
42
42
FF
42
43
43
7E
ENDCHAR
STARTCHAR 1D04
ENCODING 7428
SWIDTH 540 0
DWIDTH 9 0
BBX 6 9 1 0
BITMAP
78
CC
84
80
80
80
84
CC
78
ENDCHAR
STARTCHAR 1D05
ENCODING 7429
SWIDTH 540 0
DWIDTH 9 0
BBX 7 9 1 0
BITMAP
F8
8C
84
84
86
84
84
8C
F8
ENDCHAR
STARTCHAR 1D06
ENCODING 7430
SWIDTH 540 0
DWIDTH 9 0
BBX 8 9 0 0
BITMAP
7C
46
42
42
F3
42
42
46
7C
ENDCHAR
STARTCHAR 1D07
ENCODING 7431
SWIDTH 540 0
DWIDTH 9 0
BBX 6 9 1 0
BITMAP
FC
C0
C0
C0
F8
C0
C0
C0
FC
ENDCHAR
STARTCHAR 1D08
ENCODING 7432
SWIDTH 540 0
DWIDTH 9 0
BBX 7 9 1 0
BITMAP
7C
C4
06
06
38
04
04
C4
78
ENDCHAR
STARTCHAR 1D09
ENCODING 7433
SWIDTH 540 0
DWIDTH 9 0
BBX 6 13 1 -4
BITMAP
FC
30
30
30
30
30
30
30
3C
00
00
30
30
ENDCHAR
STARTCHAR 1D0A
ENCODING 7434
SWIDTH 540 0
DWIDTH 9 0
BBX 6 9 1 0
BITMAP
04
04
04
04
04
04
84
CC
78
ENDCHAR
STARTCHAR 1D0B
ENCODING 7435
SWIDTH 540 0
DWIDTH 9 0
BBX 7 9 1 0
BITMAP
C6
CC
C8
D0
F0
D0
D8
CC
C6
ENDCHAR
STARTCHAR 1D0C
ENCODING 7436
SWIDTH 540 0
DWIDTH 9 0
BBX 8 9 0 0
BITMAP
20
20
28
3C
60
A0
20
20
3F
ENDCHAR
STARTCHAR 1D0D
ENCODING 7437
SWIDTH 540 0
DWIDTH 9 0
BBX 7 9 1 0
BITMAP
C6
CE
CE
AE
B6
B6
86
86
86
ENDCHAR
STARTCHAR 1D0E
ENCODING 7438
SWIDTH 540 0
DWIDTH 9 0
BBX 6 9 1 0
BITMAP
84
8C
8C
94
94
A4
A4
C4
C4
ENDCHAR
STARTCHAR 1D0F
ENCODING 7439
SWIDTH 540 0
DWIDTH 9 0
BBX 7 9 1 0
BITMAP
78
CC
84
86
86
86
84
CC
78
ENDCHAR
STARTCHAR 1D10
ENCODING 7440
SWIDTH 540 0
DWIDTH 9 0
BBX 7 9 1 0
BITMAP
78
CC
84
06
06
06
84
CC
78
ENDCHAR
STARTCHAR 1D11
ENCODING 7441
SWIDTH 540 0
DWIDTH 9 0
BBX 8 7 0 1
BITMAP
3E
63
41
C1
C1
43
3E
ENDCHAR
STARTCHAR 1D12
ENCODING 7442
SWIDTH 540 0
DWIDTH 9 0
BBX 8 7 0 1
BITMAP
3E
63
41
C1
C1
43
62
ENDCHAR
STARTCHAR 1D13
ENCODING 7443
SWIDTH 540 0
DWIDTH 9 0
BBX 10 7 -1 1
BITMAP
9F00
7180
3880
6C80
6380
2180
1F40
ENDCHAR
STARTCHAR 1D14
ENCODING 7444
SWIDTH 540 0
DWIDTH 9 0
BBX 7 9 1 0
BITMAP
FC
B6
92
12
F2
92
92
B6
FC
ENDCHAR
STARTCHAR 1D15
ENCODING 7445
SWIDTH 540 0
DWIDTH 9 0
BBX 7 9 1 0
BITMAP
6C
C4
84
C4
7C
C4
86
C4
78
ENDCHAR
STARTCHAR 1D16
ENCODING 7446
SWIDTH 540 0
DWIDTH 9 0
BBX 7 5 1 4
BITMAP
78
CC
84
86
86
ENDCHAR
STARTCHAR 1D17
ENCODING 7447
SWIDTH 540 0
DWIDTH 9 0
BBX 7 5 1 0
BITMAP
86
86
84
CC
78
ENDCHAR
STARTCHAR 1D18
ENCODING 7448
SWIDTH 540 0
DWIDTH 9 0
BBX 7 9 1 0
BITMAP
FC
C4
C6
C6
FC
C0
C0
C0
C0
ENDCHAR
STARTCHAR 1D19
ENCODING 7449
SWIDTH 540 0
DWIDTH 9 0
BBX 6 9 1 0
BITMAP
7C
C4
84
C4
7C
24
64
44
C4
ENDCHAR
STARTCHAR 1D1A
ENCODING 7450
SWIDTH 540 0
DWIDTH 9 0
BBX 6 9 1 0
BITMAP
C4
44
64
24
7C
C4
84
C4
7C
ENDCHAR
STARTCHAR 1D1B
ENCODING 7451
SWIDTH 540 0
DWIDTH 9 0
BBX 7 9 1 0
BITMAP
FE
10
10
10
10
10
10
10
10
ENDCHAR
STARTCHAR 1D1C
ENCODING 7452
SWIDTH 540 0
DWIDTH 9 0
BBX 6 9 1 0
BITMAP
84
84
84
84
84
84
C4
4C
78
ENDCHAR
STARTCHAR 1D1D
ENCODING 7453
SWIDTH 540 0
DWIDTH 9 0
BBX 7 7 1 1
BITMAP
FC
06
02
02
02
06
FC
ENDCHAR
STARTCHAR 1D1E
ENCODING 7454
SWIDTH 540 0
DWIDTH 9 0
BBX 9 7 -1 1
BITMAP
1F00
C180
C080
0080
C080
C180
1F00
ENDCHAR
STARTCHAR 1D1F
ENCODING 7455
SWIDTH 540 0
DWIDTH 9 0
BBX 7 7 1 1
BITMAP
FC
02
02
FC
02
02
FE
ENDCHAR
STARTCHAR 1D20
ENCODING 7456
SWIDTH 540 0
DWIDTH 9 0
BBX 7 9 1 0
BITMAP
86
C4
44
4C
48
68
28
30
30
ENDCHAR
STARTCHAR 1D21
ENCODING 7457
SWIDTH 540 0
DWIDTH 9 0
BBX 7 9 1 0
BITMAP
92
B2
B6
B4
AC
EC
6C
4C
4C
ENDCHAR
STARTCHAR 1D22
ENCODING 7458
SWIDTH 540 0
DWIDTH 9 0
BBX 6 9 1 0
BITMAP
FC
04
08
18
10
20
40
C0
FC
ENDCHAR
STARTCHAR 1D23
ENCODING 7459
SWIDTH 540 0
DWIDTH 9 0
BBX 7 9 1 0
BITMAP
FC
08
30
78
04
06
C6
C4
78
ENDCHAR
STARTCHAR 1D24
ENCODING 7460
SWIDTH 540 0
DWIDTH 9 0
BBX 7 13 1 0
BITMAP
78
4C
C4
04
04
18
70
C0
80
80
86
CC
78
ENDCHAR
STARTCHAR 1D25
ENCODING 7461
SWIDTH 540 0
DWIDTH 9 0
BBX 7 9 1 0
BITMAP
38
78
78
78
38
38
30
38
CE
ENDCHAR
STARTCHAR 1D26
ENCODING 7462
SWIDTH 540 0
DWIDTH 9 0
BBX 6 9 2 0
BITMAP
FC
80
80
80
80
80
80
80
80
ENDCHAR
STARTCHAR 1D27
ENCODING 7463
SWIDTH 540 0
DWIDTH 9 0
BBX 7 9 1 0
BITMAP
30
30
28
68
48
4C
44
C4
86
ENDCHAR
STARTCHAR 1D28
ENCODING 7464
SWIDTH 540 0
DWIDTH 9 0
BBX 6 9 1 0
BITMAP
FC
84
84
84
84
84
84
84
84
ENDCHAR
STARTCHAR 1D29
ENCODING 7465
SWIDTH 540 0
DWIDTH 9 0
BBX 7 9 1 0
BITMAP
FC
C4
C6
C6
FC
C0
C0
C0
C0
ENDCHAR
STARTCHAR 1D2A
ENCODING 7466
SWIDTH 540 0
DWIDTH 9 0
BBX 7 9 1 0
BITMAP
96
96
96
96
D4
7C
10
10
10
ENDCHAR
STARTCHAR 1D2B
ENCODING 7467
SWIDTH 540 0
DWIDTH 9 0
BBX 7 9 0 0
BITMAP
3E
22
22
22
22
22
62
62
C2
ENDCHAR
STARTCHAR 1D2C
ENCODING 7468
SWIDTH 540 0
DWIDTH 9 0
BBX 5 9 2 6
BITMAP
60
60
60
50
50
D0
F0
98
88
ENDCHAR
STARTCHAR 1D2D
ENCODING 7469
SWIDTH 540 0
DWIDTH 9 0
BBX 5 9 2 6
BITMAP
78
60
60
60
70
A0
E0
A0
B8
ENDCHAR
STARTCHAR 1D2E
ENCODING 7470
SWIDTH 540 0
DWIDTH 9 0
BBX 5 9 2 6
BITMAP
F0
90
98
90
F0
98
88
98
F0
ENDCHAR
STARTCHAR 1D2F
ENCODING 7471
SWIDTH 540 0
DWIDTH 9 0
BBX 6 9 1 6
BITMAP
78
48
4C
48
FC
4C
44
4C
78
ENDCHAR
STARTCHAR 1D30
ENCODING 7472
SWIDTH 540 0
DWIDTH 9 0
BBX 5 9 2 6
BITMAP
F0
98
88
88
88
88
88
98
F0
ENDCHAR
STARTCHAR 1D31
ENCODING 7473
SWIDTH 540 0
DWIDTH 9 0
BBX 5 9 2 6
BITMAP
F8
80
80
80
F0
80
80
80
F8
ENDCHAR
STARTCHAR 1D32
ENCODING 7474
SWIDTH 540 0
DWIDTH 9 0
BBX 5 9 2 6
BITMAP
F8
18
18
18
78
18
18
18
F8
ENDCHAR
STARTCHAR 1D33
ENCODING 7475
SWIDTH 540 0
DWIDTH 9 0
BBX 5 9 2 6
BITMAP
70
98
80
80
B8
98
98
98
70
ENDCHAR
STARTCHAR 1D34
ENCODING 7476
SWIDTH 540 0
DWIDTH 9 0
BBX 5 9 2 6
BITMAP
98
98
98
98
F8
98
98
98
98
ENDCHAR
STARTCHAR 1D35
ENCODING 7477
SWIDTH 540 0
DWIDTH 9 0
BBX 4 9 2 6
BITMAP
F0
20
20
20
20
20
20
20
F0
ENDCHAR
STARTCHAR 1D36
ENCODING 7478
SWIDTH 540 0
DWIDTH 9 0
BBX 4 9 2 6
BITMAP
10
10
10
10
10
10
10
90
F0
ENDCHAR
STARTCHAR 1D37
ENCODING 7479
SWIDTH 540 0
DWIDTH 9 0
BBX 5 9 2 6
BITMAP
98
90
B0
A0
E0
A0
B0
90
98
ENDCHAR
STARTCHAR 1D38
ENCODING 7480
SWIDTH 540 0
DWIDTH 9 0
BBX 5 9 2 6
BITMAP
80
80
80
80
80
80
80
80
F8
ENDCHAR
STARTCHAR 1D39
ENCODING 7481
SWIDTH 540 0
DWIDTH 9 0
BBX 5 9 2 6
BITMAP
98
D8
D8
E8
E8
A8
88
88
88
ENDCHAR
STARTCHAR 1D3A
ENCODING 7482
SWIDTH 540 0
DWIDTH 9 0
BBX 5 9 2 6
BITMAP
98
D8
D8
D8
B8
A8
A8
98
98
ENDCHAR
STARTCHAR 1D3B
ENCODING 7483
SWIDTH 540 0
DWIDTH 9 0
BBX 5 9 2 6
BITMAP
98
98
A8
A8
B8
D8
D8
D8
98
ENDCHAR
STARTCHAR 1D3C
ENCODING 7484
SWIDTH 540 0
DWIDTH 9 0
BBX 5 9 2 6
BITMAP
70
98
88
88
88
88
88
98
70
ENDCHAR
STARTCHAR 1D3D
ENCODING 7485
SWIDTH 540 0
DWIDTH 9 0
BBX 5 9 2 6
BITMAP
50
98
98
98
F0
98
88
98
70
ENDCHAR
STARTCHAR 1D3E
ENCODING 7486
SWIDTH 540 0
DWIDTH 9 0
BBX 5 9 2 6
BITMAP
F0
98
88
98
F0
80
80
80
80
ENDCHAR
STARTCHAR 1D3F
ENCODING 7487
SWIDTH 540 0
DWIDTH 9 0
BBX 5 9 2 6
BITMAP
F0
98
88
98
F0
A0
90
90
98
ENDCHAR
STARTCHAR 1D40
ENCODING 7488
SWIDTH 540 0
DWIDTH 9 0
BBX 5 9 2 6
BITMAP
F8
20
20
20
20
20
20
20
20
ENDCHAR
STARTCHAR 1D41
ENCODING 7489
SWIDTH 540 0
DWIDTH 9 0
BBX 5 9 2 6
BITMAP
98
98
98
98
98
98
98
98
70
ENDCHAR
STARTCHAR 1D42
ENCODING 7490
SWIDTH 540 0
DWIDTH 9 0
BBX 5 9 2 6
BITMAP
A8
A8
E8
E8
F0
D0
D0
D0
50
ENDCHAR
STARTCHAR 1D43
ENCODING 7491
SWIDTH 540 0
DWIDTH 9 0
BBX 5 6 2 6
BITMAP
F0
98
78
98
98
F8
ENDCHAR
STARTCHAR 1D44
ENCODING 7492
SWIDTH 540 0
DWIDTH 9 0
BBX 5 6 2 6
BITMAP
F0
88
F0
80
98
F0
ENDCHAR
STARTCHAR 1D45
ENCODING 7493
SWIDTH 540 0
DWIDTH 9 0
BBX 5 6 2 6
BITMAP
F8
98
98
98
98
F8
ENDCHAR
STARTCHAR 1D46
ENCODING 7494
SWIDTH 540 0
DWIDTH 9 0
BBX 5 6 2 6
BITMAP
F0
A8
F8
A0
A8
F0
ENDCHAR
STARTCHAR 1D47
ENCODING 7495
SWIDTH 540 0
DWIDTH 9 0
BBX 5 9 2 6
BITMAP
80
80
80
F0
98
88
88
98
F0
ENDCHAR
STARTCHAR 1D48
ENCODING 7496
SWIDTH 540 0
DWIDTH 9 0
BBX 5 9 2 6
BITMAP
18
18
18
F8
98
98
98
98
F8
ENDCHAR
STARTCHAR 1D49
ENCODING 7497
SWIDTH 540 0
DWIDTH 9 0
BBX 5 6 2 6
BITMAP
70
98
F8
80
98
70
ENDCHAR
STARTCHAR 1D4A
ENCODING 7498
SWIDTH 540 0
DWIDTH 9 0
BBX 5 6 2 6
BITMAP
F0
98
F8
88
98
70
ENDCHAR
STARTCHAR 1D4B
ENCODING 7499
SWIDTH 540 0
DWIDTH 9 0
BBX 5 6 2 6
BITMAP
F0
88
60
80
88
F0
ENDCHAR
STARTCHAR 1D4C
ENCODING 7500
SWIDTH 540 0
DWIDTH 9 0
BBX 5 6 2 6
BITMAP
F0
08
30
18
98
70
ENDCHAR
STARTCHAR 1D4D
ENCODING 7501
SWIDTH 540 0
DWIDTH 9 0
BBX 5 9 2 3
BITMAP
F8
98
98
98
98
F8
18
18
70
ENDCHAR
STARTCHAR 1D4E
ENCODING 7502
SWIDTH 540 0
DWIDTH 9 0
BBX 4 9 2 3
BITMAP
F0
20
20
20
20
30
00
60
60
ENDCHAR
STARTCHAR 1D4F
ENCODING 7503
SWIDTH 540 0
DWIDTH 9 0
BBX 5 9 2 6
BITMAP
80
80
80
98
B0
E0
A0
90
98
ENDCHAR
STARTCHAR 1D50
ENCODING 7504
SWIDTH 540 0
DWIDTH 9 0
BBX 5 6 2 6
BITMAP
F0
A8
A8
A8
A8
A8
ENDCHAR
STARTCHAR 1D51
ENCODING 7505
SWIDTH 540 0
DWIDTH 9 0
BBX 5 9 2 3
BITMAP
F0
98
98
98
98
98
18
18
30
ENDCHAR
STARTCHAR 1D52
ENCODING 7506
SWIDTH 540 0
DWIDTH 9 0
BBX 5 6 2 6
BITMAP
70
98
88
88
98
70
ENDCHAR
STARTCHAR 1D53
ENCODING 7507
SWIDTH 540 0
DWIDTH 9 0
BBX 5 6 2 6
BITMAP
70
98
08
08
98
70
ENDCHAR
STARTCHAR 1D54
ENCODING 7508
SWIDTH 540 0
DWIDTH 9 0
BBX 5 3 2 9
BITMAP
70
98
88
ENDCHAR
STARTCHAR 1D55
ENCODING 7509
SWIDTH 540 0
DWIDTH 9 0
BBX 5 4 2 6
BITMAP
88
88
98
70
ENDCHAR
STARTCHAR 1D56
ENCODING 7510
SWIDTH 540 0
DWIDTH 9 0
BBX 5 9 2 3
BITMAP
F0
98
88
88
98
F0
80
80
80
ENDCHAR
STARTCHAR 1D57
ENCODING 7511
SWIDTH 540 0
DWIDTH 9 0
BBX 5 9 2 6
BITMAP
60
60
60
F8
60
60
60
60
38
ENDCHAR
STARTCHAR 1D58
ENCODING 7512
SWIDTH 540 0
DWIDTH 9 0
BBX 5 6 2 6
BITMAP
98
98
98
98
98
70
ENDCHAR
STARTCHAR 1D59
ENCODING 7513
SWIDTH 540 0
DWIDTH 9 0
BBX 5 5 2 6
BITMAP
F0
08
08
08
F0
ENDCHAR
STARTCHAR 1D5A
ENCODING 7514
SWIDTH 540 0
DWIDTH 9 0
BBX 5 6 2 6
BITMAP
A8
A8
A8
A8
A8
F0
ENDCHAR
STARTCHAR 1D5B
ENCODING 7515
SWIDTH 540 0
DWIDTH 9 0
BBX 5 6 2 6
BITMAP
98
90
D0
50
60
60
ENDCHAR
STARTCHAR 1D5C
ENCODING 7516
SWIDTH 540 0
DWIDTH 9 0
BBX 5 6 2 6
BITMAP
60
70
70
60
60
D8
ENDCHAR
STARTCHAR 1D5D
ENCODING 7517
SWIDTH 540 0
DWIDTH 9 0
BBX 5 12 2 3
BITMAP
70
90
90
90
B0
98
88
98
F0
80
80
80
ENDCHAR
STARTCHAR 1D5E
ENCODING 7518
SWIDTH 540 0
DWIDTH 9 0
BBX 5 9 2 3
BITMAP
88
90
D0
50
60
60
20
20
20
ENDCHAR
STARTCHAR 1D5F
ENCODING 7519
SWIDTH 540 0
DWIDTH 9 0
BBX 5 9 2 6
BITMAP
F8
C0
60
F0
98
88
88
98
70
ENDCHAR
STARTCHAR 1D60
ENCODING 7520
SWIDTH 540 0
DWIDTH 9 0
BBX 5 9 2 3
BITMAP
B0
A8
A8
A8
A8
F0
20
20
20
ENDCHAR
STARTCHAR 1D61
ENCODING 7521
SWIDTH 540 0
DWIDTH 9 0
BBX 5 9 2 3
BITMAP
98
D0
50
60
20
60
50
D0
98
ENDCHAR
STARTCHAR 1D62
ENCODING 7522
SWIDTH 540 0
DWIDTH 9 0
BBX 4 10 2 -2
BITMAP
60
60
00
E0
20
20
20
20
20
F0
ENDCHAR
STARTCHAR 1D63
ENCODING 7523
SWIDTH 540 0
DWIDTH 9 0
BBX 4 7 3 -2
BITMAP
E0
90
80
80
80
80
80
ENDCHAR
STARTCHAR 1D64
ENCODING 7524
SWIDTH 540 0
DWIDTH 9 0
BBX 5 7 2 -2
BITMAP
98
98
98
98
98
90
70
ENDCHAR
STARTCHAR 1D65
ENCODING 7525
SWIDTH 540 0
DWIDTH 9 0
BBX 5 7 2 -2
BITMAP
88
90
90
50
50
60
60
ENDCHAR
STARTCHAR 1D66
ENCODING 7526
SWIDTH 540 0
DWIDTH 9 0
BBX 5 13 2 -5
BITMAP
70
90
90
90
B0
90
88
88
98
F0
80
80
80
ENDCHAR
STARTCHAR 1D67
ENCODING 7527
SWIDTH 540 0
DWIDTH 9 0
BBX 5 10 2 -5
BITMAP
88
98
90
50
70
60
20
20
20
20
ENDCHAR
STARTCHAR 1D68
ENCODING 7528
SWIDTH 540 0
DWIDTH 9 0
BBX 5 10 2 -5
BITMAP
70
98
88
88
88
98
F0
80
80
80
ENDCHAR
STARTCHAR 1D69
ENCODING 7529
SWIDTH 540 0
DWIDTH 9 0
BBX 5 10 2 -5
BITMAP
B0
A8
A8
A8
A8
B8
70
20
20
20
ENDCHAR
STARTCHAR 1D6A
ENCODING 7530
SWIDTH 540 0
DWIDTH 9 0
BBX 5 10 2 -5
BITMAP
98
90
50
60
60
60
60
50
90
98
ENDCHAR
STARTCHAR 1D6B
ENCODING 7531
SWIDTH 540 0
DWIDTH 9 0
BBX 7 9 1 0
BITMAP
9C
96
92
92
9E
90
92
B6
DC
ENDCHAR
STARTCHAR 1D6C
ENCODING 7532
SWIDTH 540 0
DWIDTH 9 0
BBX 9 13 -1 0
BITMAP
2000
6800
B000
2000
2E00
3300
3100
2180
2180
2180
3100
3300
2E00
ENDCHAR
STARTCHAR 1D6D
ENCODING 7533
SWIDTH 540 0
DWIDTH 9 0
BBX 8 13 1 0
BITMAP
04
0D
16
04
74
CC
84
84
84
84
84
CC
74
ENDCHAR
STARTCHAR 1D6E
ENCODING 7534
SWIDTH 540 0
DWIDTH 9 0
BBX 6 13 1 0
BITMAP
1C
10
30
30
30
FC
30
30
7C
F8
30
30
30
ENDCHAR
STARTCHAR 1D6F
ENCODING 7535
SWIDTH 540 0
DWIDTH 9 0
BBX 9 9 0 0
BITMAP
7600
4B00
4B00
7B80
DB00
CF00
4B00
4B00
4B00
ENDCHAR
STARTCHAR 1D70
ENCODING 7536
SWIDTH 540 0
DWIDTH 9 0
BBX 9 9 0 0
BITMAP
5C00
6600
6200
7280
DB00
CF00
4200
4200
4200
ENDCHAR
STARTCHAR 1D71
ENCODING 7537
SWIDTH 540 0
DWIDTH 9 0
BBX 9 13 -1 -4
BITMAP
2E00
3300
3100
2180
2180
2180
3100
3300
2E00
6800
F800
2000
2000
ENDCHAR
STARTCHAR 1D72
ENCODING 7538
SWIDTH 540 0
DWIDTH 9 0
BBX 8 9 0 0
BITMAP
2E
33
33
20
7C
F8
20
20
20
ENDCHAR
STARTCHAR 1D73
ENCODING 7539
SWIDTH 540 0
DWIDTH 9 0
BBX 8 9 0 0
BITMAP
1E
13
30
20
7C
F8
20
20
20
ENDCHAR
STARTCHAR 1D74
ENCODING 7540
SWIDTH 540 0
DWIDTH 9 0
BBX 9 9 0 0
BITMAP
3C00
6600
6000
7080
DD00
8F00
0200
6200
3C00
ENDCHAR
STARTCHAR 1D75
ENCODING 7541
SWIDTH 540 0
DWIDTH 9 0
BBX 6 12 1 0
BITMAP
30
30
30
FC
30
30
7C
F8
30
30
10
1C
ENDCHAR
STARTCHAR 1D76
ENCODING 7542
SWIDTH 540 0
DWIDTH 9 0
BBX 7 9 1 0
BITMAP
FC
04
08
18
72
BC
40
C0
FC
ENDCHAR
STARTCHAR 1D77
ENCODING 7543
SWIDTH 540 0
DWIDTH 9 0
BBX 7 13 1 -4
BITMAP
78
C0
C0
80
B8
CC
C4
86
86
86
C4
CC
B8
ENDCHAR
STARTCHAR 1D78
ENCODING 7544
SWIDTH 540 0
DWIDTH 9 0
BBX 5 6 2 6
BITMAP
98
98
F8
98
98
98
ENDCHAR
STARTCHAR 1D79
ENCODING 7545
SWIDTH 540 0
DWIDTH 9 0
BBX 7 13 1 -4
BITMAP
FC
0C
30
20
60
20
38
4C
84
86
84
CC
78
ENDCHAR
STARTCHAR 1D7A
ENCODING 7546
SWIDTH 540 0
DWIDTH 9 0
BBX 8 13 0 0
BITMAP
08
29
2A
2A
7E
2E
29
39
39
29
69
E9
19
ENDCHAR
STARTCHAR 1D7B
ENCODING 7547
SWIDTH 540 0
DWIDTH 9 0
BBX 4 9 2 0
BITMAP
F0
20
20
20
F0
20
20
20
F0
ENDCHAR
STARTCHAR 1D7C
ENCODING 7548
SWIDTH 540 0
DWIDTH 9 0
BBX 6 9 1 0
BITMAP
F0
10
10
10
78
10
10
10
0C
ENDCHAR
STARTCHAR 1D7D
ENCODING 7549
SWIDTH 540 0
DWIDTH 9 0
BBX 7 13 1 -4
BITMAP
B8
CC
C4
86
FE
86
C4
CC
B8
80
80
80
80
ENDCHAR
STARTCHAR 1D7E
ENCODING 7550
SWIDTH 540 0
DWIDTH 9 0
BBX 7 9 1 0
BITMAP
84
84
84
84
FE
84
C4
4C
78
ENDCHAR
STARTCHAR 1D7F
ENCODING 7551
SWIDTH 540 0
DWIDTH 9 0
BBX 7 9 1 0
BITMAP
EC
68
C4
84
FE
84
C4
4C
78
ENDCHAR
STARTCHAR 1D80
ENCODING 7552
SWIDTH 540 0
DWIDTH 9 0
BBX 7 17 1 -4
BITMAP
80
80
80
80
B8
CC
C4
86
86
86
C4
CC
BC
0C
0C
08
10
ENDCHAR
STARTCHAR 1D81
ENCODING 7553
SWIDTH 540 0
DWIDTH 9 0
BBX 7 17 1 -4
BITMAP
04
04
04
04
74
CC
84
84
84
84
84
CC
76
02
02
06
0C
ENDCHAR
STARTCHAR 1D82
ENCODING 7554
SWIDTH 540 0
DWIDTH 9 0
BBX 6 17 1 -4
BITMAP
1C
10
30
30
30
FC
30
30
30
30
30
30
38
08
08
10
30
ENDCHAR
STARTCHAR 1D83
ENCODING 7555
SWIDTH 540 0
DWIDTH 9 0
BBX 6 13 1 -4
BITMAP
70
90
90
90
90
90
90
D0
7C
14
14
14
68
ENDCHAR
STARTCHAR 1D84
ENCODING 7556
SWIDTH 540 0
DWIDTH 9 0
BBX 7 17 1 -4
BITMAP
C0
C0
C0
C0
C6
CC
C8
D0
F0
D0
D8
CC
C6
02
02
06
0C
ENDCHAR
STARTCHAR 1D85
ENCODING 7557
SWIDTH 540 0
DWIDTH 9 0
BBX 7 17 1 -4
BITMAP
F0
10
10
10
10
10
10
10
10
10
10
10
0E
02
02
06
0C
ENDCHAR
STARTCHAR 1D86
ENCODING 7558
SWIDTH 540 0
DWIDTH 9 0
BBX 7 13 1 -4
BITMAP
EC
96
96
96
96
96
96
96
96
02
02
02
0C
ENDCHAR
STARTCHAR 1D87
ENCODING 7559
SWIDTH 540 0
DWIDTH 9 0
BBX 7 13 1 -4
BITMAP
B8
CC
C4
84
84
84
84
84
86
02
02
06
0C
ENDCHAR
STARTCHAR 1D88
ENCODING 7560
SWIDTH 540 0
DWIDTH 9 0
BBX 7 13 1 -4
BITMAP
B8
CC
C4
86
86
86
C4
CC
BC
8C
8C
88
90
ENDCHAR
STARTCHAR 1D89
ENCODING 7561
SWIDTH 540 0
DWIDTH 9 0
BBX 6 13 2 -4
BITMAP
B8
CC
CC
80
80
80
80
80
E0
20
20
60
C0
ENDCHAR
STARTCHAR 1D8A
ENCODING 7562
SWIDTH 540 0
DWIDTH 9 0
BBX 6 13 1 -4
BITMAP
78
CC
C0
40
38
0C
04
C4
7C
0C
0C
08
10
ENDCHAR
STARTCHAR 1D8B
ENCODING 7563
SWIDTH 540 0
DWIDTH 9 0
BBX 6 17 1 -4
BITMAP
0C
18
10
10
10
10
10
10
10
10
10
10
1C
14
34
24
E8
ENDCHAR
STARTCHAR 1D8C
ENCODING 7564
SWIDTH 540 0
DWIDTH 9 0
BBX 7 13 1 -4
BITMAP
86
C4
44
4C
48
68
28
30
3C
0C
0C
08
10
ENDCHAR
STARTCHAR 1D8D
ENCODING 7565
SWIDTH 540 0
DWIDTH 9 0
BBX 7 13 1 -4
BITMAP
C6
4C
68
38
10
38
68
4C
C6
02
02
06
0C
ENDCHAR
STARTCHAR 1D8E
ENCODING 7566
SWIDTH 540 0
DWIDTH 9 0
BBX 6 13 1 -4
BITMAP
FC
04
08
18
10
20
40
C0
FC
04
04
0C
18
ENDCHAR
STARTCHAR 1D8F
ENCODING 7567
SWIDTH 540 0
DWIDTH 9 0
BBX 9 13 1 -4
BITMAP
7800
CC00
8400
0400
7C00
C400
8400
CC00
7600
0200
0200
0300
0180
ENDCHAR
STARTCHAR 1D90
ENCODING 7568
SWIDTH 540 0
DWIDTH 9 0
BBX 9 13 1 -4
BITMAP
7400
CC00
8400
8400
8400
8400
8400
CC00
7600
0200
0200
0300
0180
ENDCHAR
STARTCHAR 1D91
ENCODING 7569
SWIDTH 540 0
DWIDTH 9 0
BBX 8 17 1 -4
BITMAP
03
06
06
04
74
CC
84
84
84
84
84
CC
74
04
04
06
03
ENDCHAR
STARTCHAR 1D92
ENCODING 7570
SWIDTH 540 0
DWIDTH 9 0
BBX 8 13 1 -4
BITMAP
78
CC
84
86
FE
80
84
C4
7C
04
04
02
03
ENDCHAR
STARTCHAR 1D93
ENCODING 7571
SWIDTH 540 0
DWIDTH 9 0
BBX 8 13 1 -4
BITMAP
78
CC
84
C0
70
C0
80
C4
7C
04
04
02
03
ENDCHAR
STARTCHAR 1D94
ENCODING 7572
SWIDTH 540 0
DWIDTH 9 0
BBX 7 13 1 -4
BITMAP
78
C4
C4
04
38
04
06
C6
BC
80
80
C0
60
ENDCHAR
STARTCHAR 1D95
ENCODING 7573
SWIDTH 540 0
DWIDTH 9 0
BBX 9 13 1 -4
BITMAP
7000
D800
8800
0800
FE00
8A00
8A00
DA00
7200
0200
0200
0300
0180
ENDCHAR
STARTCHAR 1D96
ENCODING 7574
SWIDTH 540 0
DWIDTH 9 0
BBX 9 16 1 -4
BITMAP
3000
3000
0000
7000
1000
1000
1000
1000
1000
1000
1000
FE00
0200
0200
0300
0180
ENDCHAR
STARTCHAR 1D97
ENCODING 7575
SWIDTH 540 0
DWIDTH 9 0
BBX 7 13 1 -4
BITMAP
78
CC
84
06
06
06
84
CC
B8
80
80
C0
60
ENDCHAR
STARTCHAR 1D98
ENCODING 7576
SWIDTH 540 0
DWIDTH 9 0
BBX 6 17 1 -4
BITMAP
0C
18
10
10
10
10
10
10
10
10
30
20
E0
80
80
C0
60
ENDCHAR
STARTCHAR 1D99
ENCODING 7577
SWIDTH 540 0
DWIDTH 9 0
BBX 9 13 1 -4
BITMAP
8400
8400
8400
8400
8400
8400
C400
CC00
7600
0200
0200
0300
0180
ENDCHAR
STARTCHAR 1D9A
ENCODING 7578
SWIDTH 540 0
DWIDTH 9 0
BBX 7 13 1 -4
BITMAP
FC
0C
18
30
78
04
06
C4
BC
80
80
C0
60
ENDCHAR
STARTCHAR 1D9B
ENCODING 7579
SWIDTH 540 0
DWIDTH 9 0
BBX 5 6 2 6
BITMAP
F0
98
88
88
98
F0
ENDCHAR
STARTCHAR 1D9C
ENCODING 7580
SWIDTH 540 0
DWIDTH 9 0
BBX 5 6 2 6
BITMAP
70
98
80
80
98
70
ENDCHAR
STARTCHAR 1D9D
ENCODING 7581
SWIDTH 540 0
DWIDTH 9 0
BBX 6 6 1 6
BITMAP
38
4C
40
78
64
F8
ENDCHAR
STARTCHAR 1D9E
ENCODING 7582
SWIDTH 540 0
DWIDTH 9 0
BBX 5 9 2 6
BITMAP
60
38
F0
70
98
88
88
98
70
ENDCHAR
STARTCHAR 1D9F
ENCODING 7583
SWIDTH 540 0
DWIDTH 9 0
BBX 5 6 2 6
BITMAP
F0
98
30
18
98
F0
ENDCHAR
STARTCHAR 1DA0
ENCODING 7584
SWIDTH 540 0
DWIDTH 9 0
BBX 5 9 2 6
BITMAP
38
60
60
F8
60
60
60
60
60
ENDCHAR
STARTCHAR 1DA1
ENCODING 7585
SWIDTH 540 0
DWIDTH 9 0
BBX 4 9 2 3
BITMAP
70
30
30
70
30
30
30
30
E0
ENDCHAR
STARTCHAR 1DA2
ENCODING 7586
SWIDTH 540 0
DWIDTH 9 0
BBX 5 9 2 3
BITMAP
F8
98
98
98
98
F8
18
18
70
ENDCHAR
STARTCHAR 1DA3
ENCODING 7587
SWIDTH 540 0
DWIDTH 9 0
BBX 5 9 2 3
BITMAP
98
98
98
98
98
F8
18
18
18
ENDCHAR
STARTCHAR 1DA4
ENCODING 7588
SWIDTH 540 0
DWIDTH 9 0
BBX 4 9 2 6
BITMAP
60
60
00
E0
20
70
20
20
F0
ENDCHAR
STARTCHAR 1DA5
ENCODING 7589
SWIDTH 540 0
DWIDTH 9 0
BBX 4 6 2 6
BITMAP
E0
20
20
20
20
30
ENDCHAR
STARTCHAR 1DA6
ENCODING 7590
SWIDTH 540 0
DWIDTH 9 0
BBX 3 6 3 6
BITMAP
E0
40
40
40
40
E0
ENDCHAR
STARTCHAR 1DA7
ENCODING 7591
SWIDTH 540 0
DWIDTH 9 0
BBX 3 6 3 6
BITMAP
E0
40
E0
40
40
E0
ENDCHAR
STARTCHAR 1DA8
ENCODING 7592
SWIDTH 540 0
DWIDTH 9 0
BBX 5 12 2 3
BITMAP
30
30
00
70
30
30
30
30
70
B0
A8
68
ENDCHAR
STARTCHAR 1DA9
ENCODING 7593
SWIDTH 540 0
DWIDTH 9 0
BBX 4 12 2 3
BITMAP
E0
20
20
20
20
20
20
20
20
20
20
30
ENDCHAR
STARTCHAR 1DAA
ENCODING 7594
SWIDTH 540 0
DWIDTH 9 0
BBX 5 12 2 3
BITMAP
E0
20
20
20
20
20
20
20
38
08
08
10
ENDCHAR
STARTCHAR 1DAB
ENCODING 7595
SWIDTH 540 0
DWIDTH 9 0
BBX 5 6 2 6
BITMAP
80
80
80
80
80
F8
ENDCHAR
STARTCHAR 1DAC
ENCODING 7596
SWIDTH 540 0
DWIDTH 9 0
BBX 5 9 2 3
BITMAP
F0
A8
A8
A8
A8
A8
08
18
30
ENDCHAR
STARTCHAR 1DAD
ENCODING 7597
SWIDTH 540 0
DWIDTH 9 0
BBX 5 9 2 3
BITMAP
A8
A8
A8
A8
A8
F8
08
08
08
ENDCHAR
STARTCHAR 1DAE
ENCODING 7598
SWIDTH 540 0
DWIDTH 9 0
BBX 6 9 1 3
BITMAP
78
4C
4C
4C
4C
4C
40
40
80
ENDCHAR
STARTCHAR 1DAF
ENCODING 7599
SWIDTH 540 0
DWIDTH 9 0
BBX 6 9 2 3
BITMAP
F0
98
98
98
98
98
18
08
0C
ENDCHAR
STARTCHAR 1DB0
ENCODING 7600
SWIDTH 540 0
DWIDTH 9 0
BBX 5 6 2 6
BITMAP
98
D8
F8
A8
B8
98
ENDCHAR
STARTCHAR 1DB1
ENCODING 7601
SWIDTH 540 0
DWIDTH 9 0
BBX 5 6 2 6
BITMAP
70
98
F8
88
98
70
ENDCHAR
STARTCHAR 1DB2
ENCODING 7602
SWIDTH 540 0
DWIDTH 9 0
BBX 5 12 2 3
BITMAP
20
20
20
F0
A8
A8
A8
A8
F0
20
20
20
ENDCHAR
STARTCHAR 1DB3
ENCODING 7603
SWIDTH 540 0
DWIDTH 9 0
BBX 5 9 2 3
BITMAP
F0
98
C0
30
98
F0
80
80
40
ENDCHAR
STARTCHAR 1DB4
ENCODING 7604
SWIDTH 540 0
DWIDTH 9 0
BBX 5 12 2 3
BITMAP
38
20
20
20
20
20
20
20
20
20
60
C0
ENDCHAR
STARTCHAR 1DB5
ENCODING 7605
SWIDTH 540 0
DWIDTH 9 0
BBX 5 11 2 3
BITMAP
60
60
F8
60
60
60
60
38
08
18
30
ENDCHAR
STARTCHAR 1DB6
ENCODING 7606
SWIDTH 540 0
DWIDTH 9 0
BBX 5 6 2 6
BITMAP
98
98
F8
98
90
70
ENDCHAR
STARTCHAR 1DB7
ENCODING 7607
SWIDTH 540 0
DWIDTH 9 0
BBX 5 6 2 6
BITMAP
D8
D0
98
98
98
70
ENDCHAR
STARTCHAR 1DB8
ENCODING 7608
SWIDTH 540 0
DWIDTH 9 0
BBX 5 6 2 6
BITMAP
98
98
98
98
98
70
ENDCHAR
STARTCHAR 1DB9
ENCODING 7609
SWIDTH 540 0
DWIDTH 9 0
BBX 5 6 2 6
BITMAP
B0
98
98
98
98
70
ENDCHAR
STARTCHAR 1DBA
ENCODING 7610
SWIDTH 540 0
DWIDTH 9 0
BBX 5 6 2 6
BITMAP
60
60
50
D0
90
98
ENDCHAR
STARTCHAR 1DBB
ENCODING 7611
SWIDTH 540 0
DWIDTH 9 0
BBX 5 6 2 6
BITMAP
F8
10
20
40
C0
F8
ENDCHAR
STARTCHAR 1DBC
ENCODING 7612
SWIDTH 540 0
DWIDTH 9 0
BBX 6 9 2 3
BITMAP
F8
10
20
40
C0
F8
08
08
0C
ENDCHAR
STARTCHAR 1DBD
ENCODING 7613
SWIDTH 540 0
DWIDTH 9 0
BBX 5 7 2 5
BITMAP
F8
10
20
58
E8
F8
40
ENDCHAR
STARTCHAR 1DBE
ENCODING 7614
SWIDTH 540 0
DWIDTH 9 0
BBX 5 9 2 3
BITMAP
F0
30
60
70
18
08
08
98
70
ENDCHAR
STARTCHAR 1DBF
ENCODING 7615
SWIDTH 540 0
DWIDTH 9 0
BBX 5 9 2 6
BITMAP
70
98
88
88
F8
88
88
98
70
ENDCHAR
STARTCHAR 1DC3
ENCODING 7619
SWIDTH 0 0
DWIDTH 0 0
BBX 6 2 -7 10
BITMAP
8C
78
ENDCHAR
STARTCHAR 1DC4
ENCODING 7620
SWIDTH 0 0
DWIDTH 0 0
BBX 4 3 -6 10
BITMAP
10
30
E0
ENDCHAR
STARTCHAR 1DC5
ENCODING 7621
SWIDTH 0 0
DWIDTH 0 0
BBX 5 3 -7 10
BITMAP
C0
40
38
ENDCHAR
STARTCHAR 1DC6
ENCODING 7622
SWIDTH 0 0
DWIDTH 0 0
BBX 4 3 -6 10
BITMAP
E0
20
10
ENDCHAR
STARTCHAR 1DC7
ENCODING 7623
SWIDTH 0 0
DWIDTH 0 0
BBX 5 3 -7 10
BITMAP
38
40
C0
ENDCHAR
STARTCHAR 1DCA
ENCODING 7626
SWIDTH 0 0
DWIDTH 0 0
BBX 2 4 -5 -5
BITMAP
C0
80
80
80
ENDCHAR
STARTCHAR 1DCB
ENCODING 7627
SWIDTH 0 0
DWIDTH 0 0
BBX 5 2 -7 10
BITMAP
B8
E0
ENDCHAR
STARTCHAR 1DCC
ENCODING 7628
SWIDTH 0 0
DWIDTH 0 0
BBX 6 2 -7 10
BITMAP
EC
18
ENDCHAR
STARTCHAR 1DCD
ENCODING 7629
SWIDTH 0 0
DWIDTH 0 0
BBX 14 3 -7 14
BITMAP
0780
1FE0
E01C
ENDCHAR
STARTCHAR 1DCE
ENCODING 7630
SWIDTH 0 0
DWIDTH 0 0
BBX 2 4 -5 9
BITMAP
C0
40
40
C0
ENDCHAR
STARTCHAR 1DCF
ENCODING 7631
SWIDTH 0 0
DWIDTH 0 0
BBX 3 3 -6 -4
BITMAP
80
E0
20
ENDCHAR
STARTCHAR 1DD3
ENCODING 7635
SWIDTH 0 0
DWIDTH 0 0
BBX 3 2 -6 10
BITMAP
E0
E0
ENDCHAR
STARTCHAR 1DD4
ENCODING 7636
SWIDTH 0 0
DWIDTH 0 0
BBX 3 4 -6 10
BITMAP
E0
E0
C0
60
ENDCHAR
STARTCHAR 1DD5
ENCODING 7637
SWIDTH 0 0
DWIDTH 0 0
BBX 3 4 -6 10
BITMAP
E0
60
E0
E0
ENDCHAR
STARTCHAR 1DD7
ENCODING 7639
SWIDTH 0 0
DWIDTH 0 0
BBX 3 6 -6 10
BITMAP
60
A0
80
A0
40
40
ENDCHAR
STARTCHAR 1DD8
ENCODING 7640
SWIDTH 0 0
DWIDTH 0 0
BBX 3 5 -6 10
BITMAP
40
20
60
A0
60
ENDCHAR
STARTCHAR 1DD9
ENCODING 7641
SWIDTH 0 0
DWIDTH 0 0
BBX 3 5 -6 10
BITMAP
40
60
60
A0
60
ENDCHAR
STARTCHAR 1DDA
ENCODING 7642
SWIDTH 0 0
DWIDTH 0 0
BBX 3 5 -6 10
BITMAP
60
A0
A0
60
60
ENDCHAR
STARTCHAR 1DDB
ENCODING 7643
SWIDTH 0 0
DWIDTH 0 0
BBX 3 4 -6 10
BITMAP
60
80
A0
60
ENDCHAR
STARTCHAR 1DDC
ENCODING 7644
SWIDTH 0 0
DWIDTH 0 0
BBX 2 5 -5 10
BITMAP
80
C0
C0
80
C0
ENDCHAR
STARTCHAR 1DDD
ENCODING 7645
SWIDTH 0 0
DWIDTH 0 0
BBX 2 5 -5 10
BITMAP
80
80
80
80
C0
ENDCHAR
STARTCHAR 1DDE
ENCODING 7646
SWIDTH 0 0
DWIDTH 0 0
BBX 2 4 -5 10
BITMAP
80
80
80
C0
ENDCHAR
STARTCHAR 1DDF
ENCODING 7647
SWIDTH 0 0
DWIDTH 0 0
BBX 3 4 -6 10
BITMAP
A0
E0
E0
A0
ENDCHAR
STARTCHAR 1DE0
ENCODING 7648
SWIDTH 0 0
DWIDTH 0 0
BBX 3 4 -6 10
BITMAP
E0
A0
A0
A0
ENDCHAR
STARTCHAR 1DE1
ENCODING 7649
SWIDTH 0 0
DWIDTH 0 0
BBX 3 4 -6 10
BITMAP
A0
E0
A0
A0
ENDCHAR
STARTCHAR 1DE2
ENCODING 7650
SWIDTH 0 0
DWIDTH 0 0
BBX 3 3 -6 10
BITMAP
E0
E0
A0
ENDCHAR
STARTCHAR 1DE3
ENCODING 7651
SWIDTH 0 0
DWIDTH 0 0
BBX 2 4 -5 10
BITMAP
C0
40
C0
40
ENDCHAR
STARTCHAR 1DE4
ENCODING 7652
SWIDTH 0 0
DWIDTH 0 0
BBX 3 4 -6 10
BITMAP
40
A0
60
E0
ENDCHAR
STARTCHAR 1DE5
ENCODING 7653
SWIDTH 0 0
DWIDTH 0 0
BBX 2 6 -5 9
BITMAP
C0
80
80
80
80
80
ENDCHAR
STARTCHAR 1DE6
ENCODING 7654
SWIDTH 0 0
DWIDTH 0 0
BBX 3 4 -6 10
BITMAP
E0
20
40
E0
ENDCHAR
STARTCHAR 1DE7
ENCODING 7655
SWIDTH 0 0
DWIDTH 0 0
BBX 3 4 -6 10
BITMAP
60
A0
A0
60
ENDCHAR
STARTCHAR 1DE8
ENCODING 7656
SWIDTH 0 0
DWIDTH 0 0
BBX 3 5 -6 10
BITMAP
80
E0
A0
A0
E0
ENDCHAR
STARTCHAR 1DE9
ENCODING 7657
SWIDTH 0 0
DWIDTH 0 0
BBX 3 7 -6 10
BITMAP
60
A0
A0
A0
E0
80
80
ENDCHAR
STARTCHAR 1DEA
ENCODING 7658
SWIDTH 0 0
DWIDTH 0 0
BBX 3 4 -6 10
BITMAP
60
A0
E0
60
ENDCHAR
STARTCHAR 1DEB
ENCODING 7659
SWIDTH 0 0
DWIDTH 0 0
BBX 3 6 -6 10
BITMAP
60
40
E0
40
40
40
ENDCHAR
STARTCHAR 1DEC
ENCODING 7660
SWIDTH 0 0
DWIDTH 0 0
BBX 2 5 -5 10
BITMAP
80
80
C0
80
C0
ENDCHAR
STARTCHAR 1DED
ENCODING 7661
SWIDTH 0 0
DWIDTH 0 0
BBX 3 5 -6 11
BITMAP
60
A0
A0
60
80
ENDCHAR
STARTCHAR 1DEE
ENCODING 7662
SWIDTH 0 0
DWIDTH 0 0
BBX 3 5 -6 10
BITMAP
E0
A0
A0
E0
80
ENDCHAR
STARTCHAR 1DEF
ENCODING 7663
SWIDTH 0 0
DWIDTH 0 0
BBX 3 7 -6 10
BITMAP
20
40
40
40
40
40
C0
ENDCHAR
STARTCHAR 1DF0
ENCODING 7664
SWIDTH 0 0
DWIDTH 0 0
BBX 3 4 -6 11
BITMAP
A0
A0
E0
80
ENDCHAR
STARTCHAR 1DF1
ENCODING 7665
SWIDTH 0 0
DWIDTH 0 0
BBX 3 4 -6 10
BITMAP
E0
E0
60
60
ENDCHAR
STARTCHAR 1DF2
ENCODING 7666
SWIDTH 0 0
DWIDTH 0 0
BBX 3 6 -6 10
BITMAP
E0
00
60
E0
A0
60
ENDCHAR
STARTCHAR 1DF3
ENCODING 7667
SWIDTH 0 0
DWIDTH 0 0
BBX 3 5 -6 10
BITMAP
E0
60
A0
A0
60
ENDCHAR
STARTCHAR 1DF4
ENCODING 7668
SWIDTH 0 0
DWIDTH 0 0
BBX 3 5 -6 10
BITMAP
E0
00
A0
A0
60
ENDCHAR
STARTCHAR 1DF5
ENCODING 7669
SWIDTH 0 0
DWIDTH 0 0
BBX 3 3 -6 10
BITMAP
40
40
E0
ENDCHAR
STARTCHAR 1DF6
ENCODING 7670
SWIDTH 0 0
DWIDTH 0 0
BBX 6 2 -3 10
BITMAP
CC
78
ENDCHAR
STARTCHAR 1DF7
ENCODING 7671
SWIDTH 0 0
DWIDTH 0 0
BBX 6 2 -3 10
BITMAP
CC
78
ENDCHAR
STARTCHAR 1DF8
ENCODING 7672
SWIDTH 0 0
DWIDTH 0 0
BBX 2 2 -2 10
BITMAP
40
C0
ENDCHAR
STARTCHAR 1DF9
ENCODING 7673
SWIDTH 0 0
DWIDTH 0 0
BBX 7 3 -8 -4
BITMAP
82
82
FE
ENDCHAR
STARTCHAR 1DFA
ENCODING 7674
SWIDTH 0 0
DWIDTH 0 0
BBX 2 2 -2 -3
BITMAP
40
C0
ENDCHAR
STARTCHAR 1DFB
ENCODING 7675
SWIDTH 0 0
DWIDTH 0 0
BBX 4 2 -6 10
BITMAP
F0
E0
ENDCHAR
STARTCHAR 1DFC
ENCODING 7676
SWIDTH 0 0
DWIDTH 0 0
BBX 14 3 -7 -9
BITMAP
0FC0
3870
C00C
ENDCHAR
STARTCHAR 1DFD
ENCODING 7677
SWIDTH 0 0
DWIDTH 0 0
BBX 6 4 -7 -4
BITMAP
64
B8
6C
98
ENDCHAR
STARTCHAR 1DFE
ENCODING 7678
SWIDTH 0 0
DWIDTH 0 0
BBX 4 3 -6 10
BITMAP
30
C0
70
ENDCHAR
STARTCHAR 1DFF
ENCODING 7679
SWIDTH 0 0
DWIDTH 0 0
BBX 8 3 -8 -4
BITMAP
CB
3A
CC
ENDCHAR
STARTCHAR 1E00
ENCODING 7680
SWIDTH 540 0
DWIDTH 9 0
BBX 7 17 1 -4
BITMAP
30
30
38
38
28
68
48
4C
4C
FC
C4
84
86
00
30
28
38
ENDCHAR
STARTCHAR 1E01
ENCODING 7681
SWIDTH 540 0
DWIDTH 9 0
BBX 6 13 1 -4
BITMAP
78
CC
84
04
7C
C4
84
CC
74
00
30
28
38
ENDCHAR
STARTCHAR 1E02
ENCODING 7682
SWIDTH 540 0
DWIDTH 9 0
BBX 7 16 1 0
BITMAP
30
30
00
F8
8C
84
84
84
8C
F8
8C
86
86
86
8C
F8
ENDCHAR
STARTCHAR 1E03
ENCODING 7683
SWIDTH 540 0
DWIDTH 9 0
BBX 7 13 1 0
BITMAP
80
98
98
80
B8
CC
C4
86
86
86
C4
CC
B8
ENDCHAR
STARTCHAR 1E04
ENCODING 7684
SWIDTH 540 0
DWIDTH 9 0
BBX 7 17 1 -4
BITMAP
F8
8C
84
84
84
8C
F8
8C
86
86
86
8C
F8
00
00
30
30
ENDCHAR
STARTCHAR 1E05
ENCODING 7685
SWIDTH 540 0
DWIDTH 9 0
BBX 7 17 1 -4
BITMAP
80
80
80
80
B8
CC
C4
86
86
86
C4
CC
B8
00
00
30
30
ENDCHAR
STARTCHAR 1E06
ENCODING 7686
SWIDTH 540 0
DWIDTH 9 0
BBX 7 16 1 -3
BITMAP
F8
8C
84
84
84
8C
F8
8C
86
86
86
8C
F8
00
00
7C
ENDCHAR
STARTCHAR 1E07
ENCODING 7687
SWIDTH 540 0
DWIDTH 9 0
BBX 7 16 1 -3
BITMAP
80
80
80
80
B8
CC
C4
86
86
86
C4
CC
B8
00
00
7C
ENDCHAR
STARTCHAR 1E08
ENCODING 7688
SWIDTH 540 0
DWIDTH 9 0
BBX 6 21 1 -4
BITMAP
08
18
30
00
78
CC
84
80
80
80
80
80
80
80
84
CC
78
10
18
08
38
ENDCHAR
STARTCHAR 1E09
ENCODING 7689
SWIDTH 540 0
DWIDTH 9 0
BBX 6 17 1 -4
BITMAP
08
18
30
00
78
CC
84
80
80
80
84
CC
78
10
18
08
38
ENDCHAR
STARTCHAR 1E0A
ENCODING 7690
SWIDTH 540 0
DWIDTH 9 0
BBX 7 16 1 0
BITMAP
30
30
00
F8
8C
84
86
86
86
86
86
86
86
84
8C
F8
ENDCHAR
STARTCHAR 1E0B
ENCODING 7691
SWIDTH 540 0
DWIDTH 9 0
BBX 6 13 1 0
BITMAP
04
34
34
04
74
CC
84
84
84
84
84
CC
74
ENDCHAR
STARTCHAR 1E0C
ENCODING 7692
SWIDTH 540 0
DWIDTH 9 0
BBX 7 17 1 -4
BITMAP
F8
8C
84
86
86
86
86
86
86
86
84
8C
F8
00
00
30
30
ENDCHAR
STARTCHAR 1E0D
ENCODING 7693
SWIDTH 540 0
DWIDTH 9 0
BBX 6 17 1 -4
BITMAP
04
04
04
04
74
CC
84
84
84
84
84
CC
74
00
00
30
30
ENDCHAR
STARTCHAR 1E0E
ENCODING 7694
SWIDTH 540 0
DWIDTH 9 0
BBX 7 16 1 -3
BITMAP
F8
8C
84
86
86
86
86
86
86
86
84
8C
F8
00
00
7C
ENDCHAR
STARTCHAR 1E0F
ENCODING 7695
SWIDTH 540 0
DWIDTH 9 0
BBX 6 16 1 -3
BITMAP
04
04
04
04
74
CC
84
84
84
84
84
CC
74
00
00
7C
ENDCHAR
STARTCHAR 1E10
ENCODING 7696
SWIDTH 540 0
DWIDTH 9 0
BBX 7 17 1 -4
BITMAP
F8
8C
84
86
86
86
86
86
86
86
84
8C
F8
00
30
10
30
ENDCHAR
STARTCHAR 1E11
ENCODING 7697
SWIDTH 540 0
DWIDTH 9 0
BBX 6 17 1 -4
BITMAP
04
04
04
04
74
CC
84
84
84
84
84
CC
74
00
30
10
30
ENDCHAR
STARTCHAR 1E12
ENCODING 7698
SWIDTH 540 0
DWIDTH 9 0
BBX 7 17 1 -4
BITMAP
F8
8C
84
86
86
86
86
86
86
86
84
8C
F8
00
30
68
4C
ENDCHAR
STARTCHAR 1E13
ENCODING 7699
SWIDTH 540 0
DWIDTH 9 0
BBX 6 17 1 -4
BITMAP
04
04
04
04
74
CC
84
84
84
84
84
CC
74
00
30
68
4C
ENDCHAR
STARTCHAR 1E14
ENCODING 7700
SWIDTH 540 0
DWIDTH 9 0
BBX 6 20 1 0
BITMAP
60
30
10
00
7C
7C
00
FC
C0
C0
C0
C0
C0
F8
C0
C0
C0
C0
C0
FC
ENDCHAR
STARTCHAR 1E15
ENCODING 7701
SWIDTH 540 0
DWIDTH 9 0
BBX 7 16 1 0
BITMAP
60
30
10
00
7C
00
00
78
CC
84
86
FE
80
86
C4
78
ENDCHAR
STARTCHAR 1E16
ENCODING 7702
SWIDTH 540 0
DWIDTH 9 0
BBX 6 20 1 0
BITMAP
08
10
30
00
7C
7C
00
FC
C0
C0
C0
C0
C0
F8
C0
C0
C0
C0
C0
FC
ENDCHAR
STARTCHAR 1E17
ENCODING 7703
SWIDTH 540 0
DWIDTH 9 0
BBX 7 16 1 0
BITMAP
18
30
10
00
7C
00
00
78
CC
84
86
FE
80
86
C4
78
ENDCHAR
STARTCHAR 1E18
ENCODING 7704
SWIDTH 540 0
DWIDTH 9 0
BBX 6 17 1 -4
BITMAP
FC
C0
C0
C0
C0
C0
F8
C0
C0
C0
C0
C0
FC
00
30
68
4C
ENDCHAR
STARTCHAR 1E19
ENCODING 7705
SWIDTH 540 0
DWIDTH 9 0
BBX 7 13 1 -4
BITMAP
78
CC
84
86
FE
80
86
C4
78
00
30
68
4C
ENDCHAR
STARTCHAR 1E1A
ENCODING 7706
SWIDTH 540 0
DWIDTH 9 0
BBX 6 17 1 -4
BITMAP
FC
C0
C0
C0
C0
C0
F8
C0
C0
C0
C0
C0
FC
00
20
74
98
ENDCHAR
STARTCHAR 1E1B
ENCODING 7707
SWIDTH 540 0
DWIDTH 9 0
BBX 7 13 1 -4
BITMAP
78
CC
84
86
FE
80
86
C4
78
00
20
74
98
ENDCHAR
STARTCHAR 1E1C
ENCODING 7708
SWIDTH 540 0
DWIDTH 9 0
BBX 6 20 1 -4
BITMAP
44
7C
10
FC
C0
C0
C0
C0
C0
F8
C0
C0
C0
C0
C0
FC
00
10
08
38
ENDCHAR
STARTCHAR 1E1D
ENCODING 7709
SWIDTH 540 0
DWIDTH 9 0
BBX 7 16 1 -4
BITMAP
4C
78
00
78
CC
84
86
FE
80
86
C4
78
00
10
08
38
ENDCHAR
STARTCHAR 1E1E
ENCODING 7710
SWIDTH 540 0
DWIDTH 9 0
BBX 5 16 2 0
BITMAP
60
60
00
F8
80
80
80
80
80
F0
80
80
80
80
80
80
ENDCHAR
STARTCHAR 1E1F
ENCODING 7711
SWIDTH 540 0
DWIDTH 9 0
BBX 6 16 1 0
BITMAP
18
18
00
1C
10
30
30
30
FC
30
30
30
30
30
30
30
ENDCHAR
STARTCHAR 1E20
ENCODING 7712
SWIDTH 540 0
DWIDTH 9 0
BBX 6 16 1 0
BITMAP
7C
7C
00
78
CC
84
80
80
80
9C
84
84
84
84
CC
78
ENDCHAR
STARTCHAR 1E21
ENCODING 7713
SWIDTH 540 0
DWIDTH 9 0
BBX 6 16 1 -4
BITMAP
7C
00
00
74
CC
84
84
84
84
84
CC
74
04
04
0C
78
ENDCHAR
STARTCHAR 1E22
ENCODING 7714
SWIDTH 540 0
DWIDTH 9 0
BBX 6 16 1 0
BITMAP
30
30
00
84
84
84
84
84
84
FC
84
84
84
84
84
84
ENDCHAR
STARTCHAR 1E23
ENCODING 7715
SWIDTH 540 0
DWIDTH 9 0
BBX 6 13 1 0
BITMAP
80
98
98
80
B8
CC
C4
84
84
84
84
84
84
ENDCHAR
STARTCHAR 1E24
ENCODING 7716
SWIDTH 540 0
DWIDTH 9 0
BBX 6 17 1 -4
BITMAP
84
84
84
84
84
84
FC
84
84
84
84
84
84
00
00
30
30
ENDCHAR
STARTCHAR 1E25
ENCODING 7717
SWIDTH 540 0
DWIDTH 9 0
BBX 6 17 1 -4
BITMAP
80
80
80
80
B8
CC
C4
84
84
84
84
84
84
00
00
30
30
ENDCHAR
STARTCHAR 1E26
ENCODING 7718
SWIDTH 540 0
DWIDTH 9 0
BBX 6 16 1 0
BITMAP
4C
EC
00
84
84
84
84
84
84
FC
84
84
84
84
84
84
ENDCHAR
STARTCHAR 1E27
ENCODING 7719
SWIDTH 540 0
DWIDTH 9 0
BBX 6 16 1 0
BITMAP
4C
EC
00
80
80
80
80
B8
CC
C4
84
84
84
84
84
84
ENDCHAR
STARTCHAR 1E28
ENCODING 7720
SWIDTH 540 0
DWIDTH 9 0
BBX 7 17 0 -4
BITMAP
42
42
42
42
42
42
7E
42
42
42
42
42
42
00
40
30
E0
ENDCHAR
STARTCHAR 1E29
ENCODING 7721
SWIDTH 540 0
DWIDTH 9 0
BBX 7 17 0 -4
BITMAP
40
40
40
40
5C
66
62
42
42
42
42
42
42
00
40
30
E0
ENDCHAR
STARTCHAR 1E2A
ENCODING 7722
SWIDTH 540 0
DWIDTH 9 0
BBX 6 17 1 -4
BITMAP
84
84
84
84
84
84
FC
84
84
84
84
84
84
00
00
4C
78
ENDCHAR
STARTCHAR 1E2B
ENCODING 7723
SWIDTH 540 0
DWIDTH 9 0
BBX 6 17 1 -4
BITMAP
80
80
80
80
B8
CC
C4
84
84
84
84
84
84
00
00
4C
78
ENDCHAR
STARTCHAR 1E2C
ENCODING 7724
SWIDTH 540 0
DWIDTH 9 0
BBX 6 17 1 -4
BITMAP
FC
10
10
10
10
10
10
10
10
10
10
10
FC
00
20
74
98
ENDCHAR
STARTCHAR 1E2D
ENCODING 7725
SWIDTH 540 0
DWIDTH 9 0
BBX 6 16 1 -4
BITMAP
30
30
00
70
10
10
10
10
10
10
10
FC
00
20
74
98
ENDCHAR
STARTCHAR 1E2E
ENCODING 7726
SWIDTH 540 0
DWIDTH 9 0
BBX 6 20 1 0
BITMAP
08
10
30
00
4C
EC
00
FC
10
10
10
10
10
10
10
10
10
10
10
FC
ENDCHAR
STARTCHAR 1E2F
ENCODING 7727
SWIDTH 540 0
DWIDTH 9 0
BBX 6 16 1 0
BITMAP
18
30
10
00
EC
4C
00
70
10
10
10
10
10
10
10
FC
ENDCHAR
STARTCHAR 1E30
ENCODING 7728
SWIDTH 540 0
DWIDTH 9 0
BBX 7 17 1 0
BITMAP
08
18
30
00
C6
CC
C8
C8
D8
D0
F0
D0
D0
C8
C8
CC
C6
ENDCHAR
STARTCHAR 1E31
ENCODING 7729
SWIDTH 540 0
DWIDTH 9 0
BBX 7 17 1 0
BITMAP
20
60
C0
00
C0
C0
C0
C0
C6
CC
C8
D0
F0
D0
D8
CC
C6
ENDCHAR
STARTCHAR 1E32
ENCODING 7730
SWIDTH 540 0
DWIDTH 9 0
BBX 7 17 1 -4
BITMAP
C6
CC
C8
C8
D8
D0
F0
D0
D0
C8
C8
CC
C6
00
00
30
30
ENDCHAR
STARTCHAR 1E33
ENCODING 7731
SWIDTH 540 0
DWIDTH 9 0
BBX 7 17 1 -4
BITMAP
C0
C0
C0
C0
C6
CC
C8
D0
F0
D0
D8
CC
C6
00
00
30
30
ENDCHAR
STARTCHAR 1E34
ENCODING 7732
SWIDTH 540 0
DWIDTH 9 0
BBX 7 16 1 -3
BITMAP
C6
CC
C8
C8
D8
D0
F0
D0
D0
C8
C8
CC
C6
00
00
7C
ENDCHAR
STARTCHAR 1E35
ENCODING 7733
SWIDTH 540 0
DWIDTH 9 0
BBX 7 16 1 -3
BITMAP
C0
C0
C0
C0
C6
CC
C8
D0
F0
D0
D8
CC
C6
00
00
7C
ENDCHAR
STARTCHAR 1E36
ENCODING 7734
SWIDTH 540 0
DWIDTH 9 0
BBX 6 17 2 -4
BITMAP
80
80
80
80
80
80
80
80
80
80
80
80
FC
00
00
60
60
ENDCHAR
STARTCHAR 1E37
ENCODING 7735
SWIDTH 540 0
DWIDTH 9 0
BBX 6 17 1 -4
BITMAP
F0
10
10
10
10
10
10
10
10
10
10
10
0C
00
00
30
30
ENDCHAR
STARTCHAR 1E38
ENCODING 7736
SWIDTH 540 0
DWIDTH 9 0
BBX 6 20 2 -4
BITMAP
F8
F8
00
80
80
80
80
80
80
80
80
80
80
80
80
FC
00
00
60
60
ENDCHAR
STARTCHAR 1E39
ENCODING 7737
SWIDTH 540 0
DWIDTH 9 0
BBX 6 20 1 -4
BITMAP
7C
7C
00
F0
10
10
10
10
10
10
10
10
10
10
10
0C
00
00
30
30
ENDCHAR
STARTCHAR 1E3A
ENCODING 7738
SWIDTH 540 0
DWIDTH 9 0
BBX 6 16 2 -3
BITMAP
80
80
80
80
80
80
80
80
80
80
80
80
FC
00
00
F8
ENDCHAR
STARTCHAR 1E3B
ENCODING 7739
SWIDTH 540 0
DWIDTH 9 0
BBX 6 16 1 -3
BITMAP
F0
10
10
10
10
10
10
10
10
10
10
10
0C
00
00
7C
ENDCHAR
STARTCHAR 1E3C
ENCODING 7740
SWIDTH 540 0
DWIDTH 9 0
BBX 6 17 2 -4
BITMAP
80
80
80
80
80
80
80
80
80
80
80
80
FC
00
60
D0
98
ENDCHAR
STARTCHAR 1E3D
ENCODING 7741
SWIDTH 540 0
DWIDTH 9 0
BBX 6 17 1 -4
BITMAP
F0
10
10
10
10
10
10
10
10
10
10
10
0C
00
30
68
4C
ENDCHAR
STARTCHAR 1E3E
ENCODING 7742
SWIDTH 540 0
DWIDTH 9 0
BBX 7 17 1 0
BITMAP
08
18
30
00
C6
C6
CE
CE
AE
AE
B6
B6
96
86
86
86
86
ENDCHAR
STARTCHAR 1E3F
ENCODING 7743
SWIDTH 540 0
DWIDTH 9 0
BBX 7 13 1 0
BITMAP
08
18
30
00
EC
96
96
96
96
96
96
96
96
ENDCHAR
STARTCHAR 1E40
ENCODING 7744
SWIDTH 540 0
DWIDTH 9 0
BBX 7 16 1 0
BITMAP
30
30
00
C6
C6
CE
CE
AE
AE
B6
B6
96
86
86
86
86
ENDCHAR
STARTCHAR 1E41
ENCODING 7745
SWIDTH 540 0
DWIDTH 9 0
BBX 7 12 1 0
BITMAP
30
30
00
EC
96
96
96
96
96
96
96
96
ENDCHAR
STARTCHAR 1E42
ENCODING 7746
SWIDTH 540 0
DWIDTH 9 0
BBX 7 17 1 -4
BITMAP
C6
C6
CE
CE
AE
AE
B6
B6
96
86
86
86
86
00
00
30
30
ENDCHAR
STARTCHAR 1E43
ENCODING 7747
SWIDTH 540 0
DWIDTH 9 0
BBX 7 13 1 -4
BITMAP
EC
96
96
96
96
96
96
96
96
00
00
30
30
ENDCHAR
STARTCHAR 1E44
ENCODING 7748
SWIDTH 540 0
DWIDTH 9 0
BBX 6 16 1 0
BITMAP
30
30
00
C4
C4
E4
A4
A4
B4
94
94
94
8C
8C
8C
84
ENDCHAR
STARTCHAR 1E45
ENCODING 7749
SWIDTH 540 0
DWIDTH 9 0
BBX 6 12 1 0
BITMAP
30
30
00
B8
CC
C4
84
84
84
84
84
84
ENDCHAR
STARTCHAR 1E46
ENCODING 7750
SWIDTH 540 0
DWIDTH 9 0
BBX 6 17 1 -4
BITMAP
C4
C4
E4
A4
A4
B4
94
94
94
8C
8C
8C
84
00
00
30
30
ENDCHAR
STARTCHAR 1E47
ENCODING 7751
SWIDTH 540 0
DWIDTH 9 0
BBX 6 13 1 -4
BITMAP
B8
CC
C4
84
84
84
84
84
84
00
00
30
30
ENDCHAR
STARTCHAR 1E48
ENCODING 7752
SWIDTH 540 0
DWIDTH 9 0
BBX 6 16 1 -3
BITMAP
C4
C4
E4
A4
A4
B4
94
94
94
8C
8C
8C
84
00
00
7C
ENDCHAR
STARTCHAR 1E49
ENCODING 7753
SWIDTH 540 0
DWIDTH 9 0
BBX 6 12 1 -3
BITMAP
B8
CC
C4
84
84
84
84
84
84
00
00
7C
ENDCHAR
STARTCHAR 1E4A
ENCODING 7754
SWIDTH 540 0
DWIDTH 9 0
BBX 6 17 1 -4
BITMAP
C4
C4
E4
A4
A4
B4
94
94
94
8C
8C
8C
84
00
30
68
4C
ENDCHAR
STARTCHAR 1E4B
ENCODING 7755
SWIDTH 540 0
DWIDTH 9 0
BBX 6 13 1 -4
BITMAP
B8
CC
C4
84
84
84
84
84
84
00
30
68
4C
ENDCHAR
STARTCHAR 1E4C
ENCODING 7756
SWIDTH 540 0
DWIDTH 9 0
BBX 7 20 1 0
BITMAP
08
10
30
00
64
DC
00
78
CC
84
86
86
86
86
86
86
86
84
CC
78
ENDCHAR
STARTCHAR 1E4D
ENCODING 7757
SWIDTH 540 0
DWIDTH 9 0
BBX 7 16 1 0
BITMAP
18
30
10
20
74
98
00
78
CC
84
86
86
86
84
CC
78
ENDCHAR
STARTCHAR 1E4E
ENCODING 7758
SWIDTH 540 0
DWIDTH 9 0
BBX 7 19 1 0
BITMAP
EC
4C
00
64
DC
00
78
CC
84
86
86
86
86
86
86
86
84
CC
78
ENDCHAR
STARTCHAR 1E4F
ENCODING 7759
SWIDTH 540 0
DWIDTH 9 0
BBX 7 16 1 0
BITMAP
48
EC
48
20
74
98
00
78
CC
84
86
86
86
84
CC
78
ENDCHAR
STARTCHAR 1E50
ENCODING 7760
SWIDTH 540 0
DWIDTH 9 0
BBX 7 20 1 0
BITMAP
60
30
10
00
7C
7C
00
78
CC
84
86
86
86
86
86
86
86
84
CC
78
ENDCHAR
STARTCHAR 1E51
ENCODING 7761
SWIDTH 540 0
DWIDTH 9 0
BBX 7 16 1 0
BITMAP
60
30
10
00
7C
00
00
78
CC
84
86
86
86
84
CC
78
ENDCHAR
STARTCHAR 1E52
ENCODING 7762
SWIDTH 540 0
DWIDTH 9 0
BBX 7 20 1 0
BITMAP
08
10
30
00
7C
7C
00
78
CC
84
86
86
86
86
86
86
86
84
CC
78
ENDCHAR
STARTCHAR 1E53
ENCODING 7763
SWIDTH 540 0
DWIDTH 9 0
BBX 7 16 1 0
BITMAP
18
30
10
00
7C
00
00
78
CC
84
86
86
86
84
CC
78
ENDCHAR
STARTCHAR 1E54
ENCODING 7764
SWIDTH 540 0
DWIDTH 9 0
BBX 7 17 1 0
BITMAP
08
18
30
00
F8
CC
C6
C6
C6
C6
C4
F8
C0
C0
C0
C0
C0
ENDCHAR
STARTCHAR 1E55
ENCODING 7765
SWIDTH 540 0
DWIDTH 9 0
BBX 7 17 1 -4
BITMAP
08
18
30
00
B8
CC
C4
86
86
86
C4
CC
B8
80
80
80
80
ENDCHAR
STARTCHAR 1E56
ENCODING 7766
SWIDTH 540 0
DWIDTH 9 0
BBX 7 16 1 0
BITMAP
30
30
00
F8
CC
C6
C6
C6
C6
C4
F8
C0
C0
C0
C0
C0
ENDCHAR
STARTCHAR 1E57
ENCODING 7767
SWIDTH 540 0
DWIDTH 9 0
BBX 7 16 1 -4
BITMAP
30
30
00
B8
CC
C4
86
86
86
C4
CC
B8
80
80
80
80
ENDCHAR
STARTCHAR 1E58
ENCODING 7768
SWIDTH 540 0
DWIDTH 9 0
BBX 7 16 1 0
BITMAP
30
30
00
F8
8C
84
86
86
84
84
F8
90
88
8C
84
86
ENDCHAR
STARTCHAR 1E59
ENCODING 7769
SWIDTH 540 0
DWIDTH 9 0
BBX 6 12 2 0
BITMAP
70
60
00
B8
CC
CC
80
80
80
80
80
80
ENDCHAR
STARTCHAR 1E5A
ENCODING 7770
SWIDTH 540 0
DWIDTH 9 0
BBX 7 17 1 -4
BITMAP
F8
8C
84
86
86
84
84
F8
90
88
8C
84
86
00
00
30
30
ENDCHAR
STARTCHAR 1E5B
ENCODING 7771
SWIDTH 540 0
DWIDTH 9 0
BBX 6 13 2 -4
BITMAP
B8
CC
CC
80
80
80
80
80
80
00
00
C0
C0
ENDCHAR
STARTCHAR 1E5C
ENCODING 7772
SWIDTH 540 0
DWIDTH 9 0
BBX 7 20 1 -4
BITMAP
7C
7C
00
F8
8C
84
86
86
84
84
F8
90
88
8C
84
86
00
00
30
30
ENDCHAR
STARTCHAR 1E5D
ENCODING 7773
SWIDTH 540 0
DWIDTH 9 0
BBX 6 16 2 -4
BITMAP
F8
00
00
B8
CC
CC
80
80
80
80
80
80
00
00
C0
C0
ENDCHAR
STARTCHAR 1E5E
ENCODING 7774
SWIDTH 540 0
DWIDTH 9 0
BBX 7 16 1 -3
BITMAP
F8
8C
84
86
86
84
84
F8
90
88
8C
84
86
00
00
7C
ENDCHAR
STARTCHAR 1E5F
ENCODING 7775
SWIDTH 540 0
DWIDTH 9 0
BBX 6 12 2 -3
BITMAP
B8
CC
CC
80
80
80
80
80
80
00
00
F8
ENDCHAR
STARTCHAR 1E60
ENCODING 7776
SWIDTH 540 0
DWIDTH 9 0
BBX 7 16 1 0
BITMAP
30
30
00
78
4C
84
80
C0
60
38
0C
04
06
84
CC
78
ENDCHAR
STARTCHAR 1E61
ENCODING 7777
SWIDTH 540 0
DWIDTH 9 0
BBX 6 12 1 0
BITMAP
30
30
00
78
CC
C0
40
38
0C
04
C4
78
ENDCHAR
STARTCHAR 1E62
ENCODING 7778
SWIDTH 540 0
DWIDTH 9 0
BBX 7 17 1 -4
BITMAP
78
4C
84
80
C0
60
38
0C
04
06
84
CC
78
00
00
30
30
ENDCHAR
STARTCHAR 1E63
ENCODING 7779
SWIDTH 540 0
DWIDTH 9 0
BBX 6 13 1 -4
BITMAP
78
CC
C0
40
38
0C
04
C4
78
00
00
30
30
ENDCHAR
STARTCHAR 1E64
ENCODING 7780
SWIDTH 540 0
DWIDTH 9 0
BBX 7 19 1 0
BITMAP
30
30
08
18
30
00
78
4C
84
80
C0
60
38
0C
04
06
84
CC
78
ENDCHAR
STARTCHAR 1E65
ENCODING 7781
SWIDTH 540 0
DWIDTH 9 0
BBX 6 16 1 0
BITMAP
10
30
10
08
18
30
00
78
CC
C0
40
38
0C
04
C4
78
ENDCHAR
STARTCHAR 1E66
ENCODING 7782
SWIDTH 540 0
DWIDTH 9 0
BBX 7 19 1 0
BITMAP
30
30
48
6C
38
00
78
4C
84
80
C0
60
38
0C
04
06
84
CC
78
ENDCHAR
STARTCHAR 1E67
ENCODING 7783
SWIDTH 540 0
DWIDTH 9 0
BBX 6 16 1 0
BITMAP
10
30
10
4C
68
30
00
78
CC
C0
40
38
0C
04
C4
78
ENDCHAR
STARTCHAR 1E68
ENCODING 7784
SWIDTH 540 0
DWIDTH 9 0
BBX 7 20 1 -4
BITMAP
30
30
00
78
4C
84
80
C0
60
38
0C
04
06
84
CC
78
00
00
30
30
ENDCHAR
STARTCHAR 1E69
ENCODING 7785
SWIDTH 540 0
DWIDTH 9 0
BBX 6 16 1 -4
BITMAP
30
30
00
78
CC
C0
40
38
0C
04
C4
78
00
00
30
30
ENDCHAR
STARTCHAR 1E6A
ENCODING 7786
SWIDTH 540 0
DWIDTH 9 0
BBX 7 16 1 0
BITMAP
30
30
00
FE
10
10
10
10
10
10
10
10
10
10
10
10
ENDCHAR
STARTCHAR 1E6B
ENCODING 7787
SWIDTH 540 0
DWIDTH 9 0
BBX 6 16 1 0
BITMAP
30
30
00
00
30
30
30
FC
30
30
30
30
30
30
10
1C
ENDCHAR
STARTCHAR 1E6C
ENCODING 7788
SWIDTH 540 0
DWIDTH 9 0
BBX 7 17 1 -4
BITMAP
FE
10
10
10
10
10
10
10
10
10
10
10
10
00
00
30
30
ENDCHAR
STARTCHAR 1E6D
ENCODING 7789
SWIDTH 540 0
DWIDTH 9 0
BBX 6 16 1 -4
BITMAP
30
30
30
FC
30
30
30
30
30
30
10
1C
00
00
18
18
ENDCHAR
STARTCHAR 1E6E
ENCODING 7790
SWIDTH 540 0
DWIDTH 9 0
BBX 7 16 1 -3
BITMAP
FE
10
10
10
10
10
10
10
10
10
10
10
10
00
00
7C
ENDCHAR
STARTCHAR 1E6F
ENCODING 7791
SWIDTH 540 0
DWIDTH 9 0
BBX 6 15 1 -3
BITMAP
30
30
30
FC
30
30
30
30
30
30
10
1C
00
00
7C
ENDCHAR
STARTCHAR 1E70
ENCODING 7792
SWIDTH 540 0
DWIDTH 9 0
BBX 7 17 1 -4
BITMAP
FE
10
10
10
10
10
10
10
10
10
10
10
10
00
30
68
4C
ENDCHAR
STARTCHAR 1E71
ENCODING 7793
SWIDTH 540 0
DWIDTH 9 0
BBX 6 16 1 -4
BITMAP
30
30
30
FC
30
30
30
30
30
30
10
1C
00
18
3C
24
ENDCHAR
STARTCHAR 1E72
ENCODING 7794
SWIDTH 540 0
DWIDTH 9 0
BBX 6 17 1 -4
BITMAP
84
84
84
84
84
84
84
84
84
84
C4
4C
78
00
00
EC
4C
ENDCHAR
STARTCHAR 1E73
ENCODING 7795
SWIDTH 540 0
DWIDTH 9 0
BBX 6 13 1 -4
BITMAP
84
84
84
84
84
84
C4
4C
78
00
00
EC
4C
ENDCHAR
STARTCHAR 1E74
ENCODING 7796
SWIDTH 540 0
DWIDTH 9 0
BBX 6 17 1 -4
BITMAP
84
84
84
84
84
84
84
84
84
84
C4
4C
78
00
20
74
98
ENDCHAR
STARTCHAR 1E75
ENCODING 7797
SWIDTH 540 0
DWIDTH 9 0
BBX 6 13 1 -4
BITMAP
84
84
84
84
84
84
C4
4C
78
00
20
74
98
ENDCHAR
STARTCHAR 1E76
ENCODING 7798
SWIDTH 540 0
DWIDTH 9 0
BBX 6 17 1 -4
BITMAP
84
84
84
84
84
84
84
84
84
84
C4
4C
78
00
30
68
4C
ENDCHAR
ENDFONT
